<svg width="40" height="40" viewBox="0 0 40 40" fill="none" xmlns="http://www.w3.org/2000/svg">
<path d="M21.5839 31.2417C20.5583 31.063 20.5583 29.5862 21.5839 29.4074C23.3989 29.0921 25.0795 28.2452 26.4128 26.9739C27.7461 25.7027 28.6721 24.0644 29.0736 22.2664L29.1439 21.9441C29.3666 20.9273 30.8141 20.9215 31.0456 21.9353L31.1335 22.3251C31.5526 24.11 32.4872 25.7324 33.8208 26.9905C35.1545 28.2487 36.8286 29.0871 38.6349 29.4016C39.6693 29.5832 39.6693 31.0659 38.6349 31.2476C36.8184 31.564 35.136 32.41 33.7988 33.6795C32.4615 34.9489 31.5292 36.5852 31.1189 38.3827L31.0456 38.7109C30.8112 39.7277 29.3666 39.7189 29.141 38.7051L29.0823 38.4208C28.687 36.6147 27.7626 34.9672 26.4271 33.6886C25.0916 32.41 23.4055 31.5582 21.5839 31.2417Z" fill="white" stroke="white" strokeLinecap="round" stroke-linejoin="round"/>
<path d="M21.5839 31.2417C20.5583 31.063 20.5583 29.5862 21.5839 29.4074C23.3989 29.0921 25.0795 28.2452 26.4128 26.9739C27.7461 25.7027 28.6721 24.0644 29.0736 22.2664L29.1439 21.9441C29.3666 20.9273 30.8141 20.9215 31.0456 21.9353L31.1335 22.3251C31.5526 24.11 32.4872 25.7324 33.8208 26.9905C35.1545 28.2487 36.8286 29.0871 38.6349 29.4016C39.6693 29.5832 39.6693 31.0659 38.6349 31.2476C36.8184 31.564 35.136 32.41 33.7988 33.6795C32.4615 34.9489 31.5292 36.5852 31.1189 38.3827L31.0456 38.7109C30.8112 39.7277 29.3666 39.7189 29.141 38.7051L29.0823 38.4208C28.687 36.6147 27.7626 34.9672 26.4271 33.6886C25.0916 32.41 23.4055 31.5582 21.5839 31.2417Z" fill="white"/>
<path fillRule="evenodd" clipRule="evenodd" d="M0 25.7362C0 28.5024 2.24163 30.7411 5.00484 30.7411H15.7002C15.5843 29.1498 16.0871 27.5753 17.1038 26.3457H5.12791C4.93362 26.3457 4.74729 26.2685 4.60991 26.1312C4.47253 25.9938 4.39535 25.8074 4.39535 25.6132V17.0686L4.99019 16.9631C7.79042 16.4607 10.6751 16.7446 13.3237 17.7834C15.9722 18.8221 18.2809 20.5749 19.993 22.847L21.0713 24.274C21.8081 24.0774 22.4769 23.6826 23.0049 23.1323C23.5329 22.5821 23.8999 21.8976 24.066 21.1533L24.1334 20.8486C24.9978 16.9074 28.8013 15.3896 31.9161 16.3126V5.00484C31.9161 2.24163 29.6745 0 26.9113 0H5.00484C2.24163 0 0 2.24163 0 5.00484V25.7362ZM23.0228 13.2388C24.0883 13.2388 25.1101 12.8155 25.8635 12.0621C26.6169 11.3087 27.0402 10.2869 27.0402 9.22144C27.0402 8.15597 26.6169 7.13414 25.8635 6.38075C25.1101 5.62735 24.0883 5.20409 23.0228 5.20409C21.9574 5.20409 20.9355 5.62735 20.1821 6.38075C19.4287 7.13414 19.0055 8.15597 19.0055 9.22144C19.0055 10.2869 19.4287 11.3087 20.1821 12.0621C20.9355 12.8155 21.9574 13.2388 23.0228 13.2388Z" fill="white"/>
</svg>
