<svg width="20" height="24" viewBox="0 0 20 24" fill="none" xmlns="http://www.w3.org/2000/svg">
<path fillRule="evenodd" clipRule="evenodd" d="M2.17469 7.68936H4.61884V6.51636C4.61884 6.51284 4.61894 6.50937 4.61898 6.50586H2.21017C1.43177 6.50586 0.794922 7.1427 0.794922 7.92111V17.6574C0.794922 18.4358 1.43181 19.0727 2.21017 19.0727H7.10683V21.3213H4.95259C4.2888 21.3213 3.7457 21.7552 3.7457 22.2856V23.2499H16.2539V22.2856C16.2539 21.7552 15.7108 21.3213 15.047 21.3213H12.8927V19.0727H17.7894C18.5677 19.0727 19.2046 18.4358 19.2046 17.6574V7.92115C19.2046 7.14275 18.5678 6.5059 17.7894 6.5059H15.3805C15.3805 6.50942 15.3807 6.51289 15.3807 6.5164V7.6894H17.8248C17.8768 7.68956 17.9267 7.71029 17.9634 7.74707C18.0002 7.78384 18.0209 7.83367 18.0211 7.88567V16.6888H1.97842V7.88567C1.97857 7.83366 1.99929 7.78382 2.03607 7.74704C2.07284 7.71025 2.12268 7.68952 2.17469 7.68936ZM14.0293 5.915H8.21519V4.04145C8.21519 3.06256 9.02087 2.25687 9.99977 2.25687C10.9787 2.25687 11.7843 3.06261 11.7843 4.04145V4.62762H13.2911V4.04145C13.2911 2.23086 11.8104 0.750122 9.99981 0.750122C8.18922 0.750122 6.70844 2.2309 6.70844 4.04145V5.915H5.97025C5.63898 5.915 5.36884 6.18514 5.36884 6.5164V12.9216C5.36884 13.2529 5.63898 13.523 5.97025 13.523H14.0294C14.3606 13.523 14.6308 13.2528 14.6308 12.9216V6.5164C14.6307 6.18514 14.3605 5.915 14.0293 5.915ZM10.6985 9.99059V11.2148C10.6985 11.5991 10.3841 11.9135 9.99977 11.9135C9.61544 11.9135 9.30105 11.5991 9.30105 11.2148V9.99059C8.92108 9.75598 8.66777 9.33584 8.66777 8.85645C8.66777 8.12079 9.26416 7.52445 9.99977 7.52445C10.7354 7.52445 11.3318 8.12079 11.3318 8.85645C11.3318 9.33584 11.0785 9.75598 10.6985 9.99059Z" fill="white"/>
</svg>
