<svg width="20" height="24" viewBox="0 0 20 24" fill="none" xmlns="http://www.w3.org/2000/svg">
<path d="M1.5903 6.26264L2.82559 6.97593C2.86577 7.00079 2.91053 7.01733 2.95722 7.02456C3.00391 7.0318 3.05157 7.02959 3.09739 7.01806C3.14321 7.00654 3.18624 6.98593 3.22395 6.95746C3.26165 6.929 3.29326 6.89325 3.31689 6.85234C3.34053 6.81143 3.35571 6.76619 3.36153 6.71931C3.36736 6.67242 3.36371 6.62485 3.35081 6.5794C3.3379 6.53395 3.31601 6.49155 3.28642 6.45472C3.25682 6.41789 3.22014 6.38738 3.17854 6.36499L1.94324 5.6517C1.90313 5.62852 1.85884 5.61348 1.81291 5.60742C1.76698 5.60136 1.72031 5.60441 1.67555 5.61638C1.6308 5.62836 1.58885 5.64904 1.55209 5.67723C1.51532 5.70542 1.48448 5.74058 1.4613 5.7807C1.43813 5.82081 1.42308 5.8651 1.41702 5.91103C1.41096 5.95696 1.41401 6.00363 1.42599 6.04838C1.43797 6.09314 1.45864 6.13509 1.48684 6.17185C1.51503 6.20862 1.55019 6.23946 1.5903 6.26264ZM2.32512 10.7641C2.32512 10.6704 2.28794 10.5807 2.22175 10.5145C2.15556 10.4483 2.06579 10.4111 1.97218 10.4111H0.546301C0.452695 10.4111 0.362923 10.4483 0.296733 10.5145C0.230544 10.5807 0.193359 10.6704 0.193359 10.7641C0.193359 10.8577 0.230544 10.9474 0.296733 11.0136C0.362923 11.0798 0.452695 11.117 0.546301 11.117H1.97218C2.06579 11.117 2.15556 11.0798 2.22175 11.0136C2.28794 10.9474 2.32512 10.8577 2.32512 10.7641ZM2.95124 14.5179L1.71595 15.2312C1.63555 15.2784 1.57705 15.3554 1.55323 15.4455C1.52941 15.5356 1.54219 15.6315 1.58879 15.7122C1.63539 15.7929 1.71203 15.8519 1.80197 15.8763C1.89192 15.9007 1.98787 15.8886 2.06889 15.8425L3.30418 15.1296C3.38529 15.0828 3.44449 15.0057 3.46875 14.9152C3.493 14.8248 3.48034 14.7284 3.43354 14.6473C3.38673 14.5662 3.30963 14.507 3.21918 14.4827C3.12873 14.4585 3.03235 14.4711 2.95124 14.5179ZM4.92136 2.58146L5.63501 3.81676C5.73348 3.98687 5.94983 4.04264 6.11712 3.94593C6.33065 3.8224 6.3303 3.54358 6.21242 3.33958L5.49948 2.10429C5.4763 2.0641 5.44543 2.02888 5.40863 2.00064C5.37184 1.97239 5.32983 1.95168 5.28502 1.93968C5.24021 1.92768 5.19347 1.92464 5.14749 1.93072C5.1015 1.9368 5.05716 1.95188 5.01701 1.97511C4.80348 2.09829 4.80348 2.37746 4.92136 2.58146ZM10.0002 2.83911C10.0938 2.83911 10.1836 2.80192 10.2498 2.73573C10.3159 2.66955 10.3531 2.57977 10.3531 2.48617V1.05887C10.3531 0.965268 10.3159 0.875496 10.2498 0.809307C10.1836 0.743117 10.0938 0.705933 10.0002 0.705933C9.90658 0.705933 9.8168 0.743117 9.75062 0.809307C9.68443 0.875496 9.64724 0.965268 9.64724 1.05887V2.48617C9.64724 2.53252 9.65637 2.57841 9.67411 2.62123C9.69184 2.66405 9.71784 2.70296 9.75062 2.73573C9.78339 2.76851 9.8223 2.79451 9.86512 2.81224C9.90794 2.82998 9.95383 2.83911 10.0002 2.83911ZM13.8836 3.94734C13.9647 3.99405 14.061 4.00668 14.1514 3.98246C14.2418 3.95824 14.3188 3.89916 14.3657 3.81817L15.079 2.58287C15.1979 2.37711 15.1965 2.09652 14.9837 1.9737C14.9436 1.95047 14.8992 1.93538 14.8532 1.9293C14.8072 1.92323 14.7605 1.92627 14.7157 1.93827C14.6709 1.95027 14.6289 1.97098 14.5921 1.99922C14.5553 2.02747 14.5244 2.06269 14.5012 2.10287L13.7883 3.33817C13.6694 3.54393 13.6708 3.82452 13.8836 3.94734ZM17.1751 6.9777L18.4104 6.2644C18.4915 6.2176 18.5507 6.14049 18.575 6.05005C18.5992 5.9596 18.5866 5.86322 18.5398 5.78211C18.493 5.701 18.4159 5.6418 18.3254 5.61755C18.235 5.59329 18.1386 5.60595 18.0575 5.65276L16.8222 6.36605C16.7411 6.41285 16.6819 6.48996 16.6576 6.58041C16.6334 6.67086 16.646 6.76723 16.6928 6.84834C16.7396 6.92945 16.8167 6.98865 16.9072 7.01291C16.9976 7.03717 17.094 7.0245 17.1751 6.9777ZM19.4544 10.4122H18.0282C17.9346 10.4122 17.8448 10.4494 17.7786 10.5155C17.7124 10.5817 17.6752 10.6715 17.6752 10.7651C17.6752 10.8587 17.7124 10.9485 17.7786 11.0147C17.8448 11.0809 17.9346 11.1181 18.0282 11.1181H19.4541C19.5477 11.1181 19.6374 11.0809 19.7036 11.0147C19.7698 10.9485 19.807 10.8587 19.807 10.7651C19.807 10.6715 19.7698 10.5817 19.7036 10.5155C19.6374 10.4494 19.548 10.4122 19.4544 10.4122ZM18.2844 15.2323L17.0495 14.5193C16.9685 14.4733 16.8725 14.4611 16.7826 14.4856C16.6926 14.51 16.616 14.569 16.5694 14.6497C16.5228 14.7304 16.51 14.8263 16.5338 14.9164C16.5576 15.0065 16.6161 15.0835 16.6965 15.1306L17.9318 15.8436C18.0128 15.8896 18.1088 15.9018 18.1987 15.8774C18.2887 15.853 18.3653 15.794 18.4119 15.7132C18.4585 15.6325 18.4713 15.5367 18.4475 15.4466C18.4237 15.3564 18.3648 15.2794 18.2844 15.2323ZM7.39442 19.5886H12.8579V20.3362H7.39442V19.5886ZM7.39442 21.089C7.39442 21.5866 7.79677 21.9855 8.29089 21.9855H11.9615C12.4556 21.9855 12.8579 21.5866 12.8579 21.089V21.0421H7.39442V21.089ZM10.1255 23.2942C10.5003 23.2941 10.8633 23.1636 11.1523 22.925C11.4413 22.6863 11.6382 22.3545 11.7091 21.9865H8.54218C8.61298 22.3545 8.80977 22.6864 9.09872 22.925C9.38767 23.1637 9.75072 23.2942 10.1255 23.2942ZM16.6203 10.1055C16.3238 6.94664 13.7191 4.42664 10.5532 4.22546C6.75207 3.98546 3.6003 6.99605 3.6003 10.7408C3.6003 12.6819 4.44736 14.4255 5.79559 15.6219C6.47677 16.2255 6.89324 17.069 6.89324 17.9796V18.0643H7.39442V18.8831H12.8579V18.0643H13.3591V17.9796C13.3591 17.0725 13.7685 16.229 14.4497 15.6255C15.9427 14.3019 16.8285 12.3043 16.6203 10.1055ZM11.8627 12.2161H11.3262V18.0643H10.6203V12.2161H9.62854V18.0643H8.92265V12.2161H8.38618C7.71207 12.2161 7.16501 11.669 7.16501 10.9949C7.16501 10.6702 7.29206 10.3631 7.51795 10.1302C8.25559 9.40664 9.60736 9.87252 9.60736 10.9949V11.5102H10.645V10.9949C10.645 10.6702 10.7685 10.3631 10.9979 10.1302C11.7427 9.39958 13.0874 9.87605 13.0874 10.9949C13.0864 11.3191 12.957 11.6297 12.7274 11.8586C12.4978 12.0875 12.1869 12.2161 11.8627 12.2161Z" fill="white"/>
<path d="M12.381 10.9959C12.381 10.5194 11.8092 10.3239 11.4976 10.631C11.4326 10.697 11.35 10.818 11.35 10.9959V11.5101H11.8643C12.1491 11.5101 12.381 11.2793 12.381 10.9959ZM8.01934 10.6306C7.92346 10.7279 7.87015 10.8593 7.87111 10.9959C7.87111 11.2793 8.10334 11.5101 8.38817 11.5101H8.90205V10.9959C8.90205 10.5279 8.3437 10.3108 8.0197 10.6306H8.01934Z" fill="white"/>
</svg>
