<svg width="20" height="20" viewBox="0 0 20 20" fill="none" xmlns="http://www.w3.org/2000/svg">
<g clip-path="url(#clip0_192_3443)">
<path fill-rule="evenodd" clip-rule="evenodd" d="M14.0197 0.952208C14.2811 -0.242077 15.9825 -0.24922 16.2568 0.943637L16.2697 1.00078L16.294 1.11078C16.6082 2.44649 17.6882 3.46507 19.0397 3.70078C20.2854 3.91792 20.2854 5.70649 19.0397 5.92364C18.3751 6.0393 17.7596 6.34874 17.2703 6.8131C16.781 7.27746 16.4399 7.87603 16.2897 8.53364L16.2568 8.67935C15.9854 9.87221 14.2825 9.86507 14.0211 8.66935L13.994 8.54506C13.8497 7.88487 13.5121 7.28262 13.024 6.8152C12.536 6.34778 11.9198 6.03639 11.254 5.92078C10.0111 5.70507 10.0111 3.91935 11.254 3.70221C11.9171 3.58682 12.5311 3.2772 13.0181 2.81256C13.5051 2.34793 13.8432 1.74919 13.9897 1.09221L14.0097 0.999351L14.0197 0.952208ZM10.9868 7.44935C8.30682 6.98364 8.05396 3.45649 10.2268 2.41078C10.0325 2.06078 9.82682 1.71792 9.6111 1.38078C9.38499 1.37266 9.15865 1.37266 8.93253 1.38078C7.31633 3.90875 6.32113 6.78322 6.02825 9.76935H12.5182C12.4754 9.34078 12.4182 8.91364 12.3468 8.49221C12.2214 8.22186 12.0325 7.98584 11.7962 7.80425C11.5599 7.62267 11.2832 7.50091 10.9897 7.44935H10.9868ZM0.0282478 9.76935C0.20681 7.92621 0.931791 6.1784 2.11024 4.75001C3.28869 3.32162 4.8669 2.27774 6.64253 1.75221C5.30613 4.23436 4.48677 6.96166 4.23396 9.76935H0.0253906H0.0282478ZM0.0411049 11.5551H4.23539C4.48776 14.3627 5.30663 17.09 6.64253 19.5722C4.86663 19.0469 3.28812 18.0031 2.1094 16.5747C0.930677 15.1463 0.205487 13.3984 0.0268192 11.5551H0.0411049ZM6.02825 11.5551C6.32156 14.5413 7.31725 17.4158 8.93396 19.9436C9.16008 19.952 9.38642 19.952 9.61253 19.9436C11.2292 17.4158 12.2249 14.5413 12.5182 11.5551H6.02825ZM18.5182 11.5551C18.3397 13.3982 17.6147 15.146 16.4363 16.5744C15.2578 18.0028 13.6796 19.0467 11.904 19.5722C13.2399 17.09 14.0587 14.3627 14.3111 11.5551H18.5182Z" fill="#FCFCFC"/>
</g>
<defs>
<clipPath id="clip0_192_3443">
<rect width="20" height="20" fill="white"/>
</clipPath>
</defs>
</svg>
