<svg width="80" height="80" viewBox="0 0 80 80" fill="none" xmlns="http://www.w3.org/2000/svg">
<circle cx="40" cy="40" r="40" fill="#514DFB"/>
<path d="M40.4807 51.1857C39.5129 51.0171 39.5129 49.6235 40.4807 49.4548C42.1934 49.1572 43.7793 48.358 45.0374 47.1585C46.2956 45.9589 47.1694 44.4129 47.5482 42.7163L47.6146 42.4122C47.8247 41.4527 49.1907 41.4472 49.4091 42.4039L49.4921 42.7716C49.8876 44.456 50.7694 45.9869 52.0279 47.1741C53.2864 48.3614 54.8661 49.1525 56.5706 49.4493C57.5467 49.6207 57.5467 51.0198 56.5706 51.1913C54.8565 51.4898 53.2689 52.2882 52.0071 53.4861C50.7452 54.6839 49.8655 56.2279 49.4782 57.9242L49.4091 58.2339C49.1879 59.1933 47.8247 59.1851 47.6118 58.2283L47.5565 57.9601C47.1834 56.2558 46.3112 54.7012 45.0509 53.4947C43.7907 52.2881 42.1997 51.4843 40.4807 51.1857Z" fill="white" stroke="white" stroke-linecap="round" stroke-linejoin="round"/>
<path d="M40.4807 51.1857C39.5129 51.0171 39.5129 49.6235 40.4807 49.4548C42.1934 49.1572 43.7793 48.358 45.0374 47.1585C46.2956 45.9589 47.1694 44.4129 47.5482 42.7163L47.6146 42.4122C47.8247 41.4527 49.1907 41.4472 49.4091 42.4039L49.4921 42.7716C49.8876 44.456 50.7694 45.9869 52.0279 47.1741C53.2864 48.3614 54.8661 49.1525 56.5706 49.4493C57.5467 49.6207 57.5467 51.0198 56.5706 51.1913C54.8565 51.4898 53.2689 52.2882 52.0071 53.4861C50.7452 54.6839 49.8655 56.2279 49.4782 57.9242L49.4091 58.2339C49.1879 59.1933 47.8247 59.1851 47.6118 58.2283L47.5565 57.9601C47.1834 56.2558 46.3112 54.7012 45.0509 53.4947C43.7907 52.2881 42.1997 51.4843 40.4807 51.1857Z" fill="white"/>
<path fill-rule="evenodd" clip-rule="evenodd" d="M20.1133 45.9906C20.1133 48.6008 22.2286 50.7133 24.836 50.7133H34.9285C34.8191 49.2118 35.2936 47.726 36.253 46.5658H24.9521C24.7688 46.5658 24.593 46.4929 24.4633 46.3633C24.3337 46.2337 24.2609 46.0578 24.2609 45.8745V37.8116L24.8222 37.712C27.4646 37.2379 30.1867 37.5059 32.6859 38.486C35.1852 39.4662 37.3637 41.1202 38.9793 43.2643L39.9968 44.6109C40.6921 44.4253 41.3232 44.0527 41.8215 43.5335C42.3197 43.0143 42.666 42.3684 42.8227 41.6661L42.8863 41.3785C43.702 37.6595 47.2911 36.2272 50.2303 37.0982V26.4278C50.2303 23.8204 48.1151 21.7051 45.5076 21.7051H24.836C22.2286 21.7051 20.1133 23.8204 20.1133 26.4278V45.9906ZM41.8384 34.1976C42.8438 34.1976 43.808 33.7982 44.519 33.0873C45.2299 32.3764 45.6293 31.4121 45.6293 30.4067C45.6293 29.4013 45.2299 28.4371 44.519 27.7262C43.808 27.0152 42.8438 26.6158 41.8384 26.6158C40.833 26.6158 39.8687 27.0152 39.1578 27.7262C38.4469 28.4371 38.0475 29.4013 38.0475 30.4067C38.0475 31.4121 38.4469 32.3764 39.1578 33.0873C39.8687 33.7982 40.833 34.1976 41.8384 34.1976Z" fill="white"/>
</svg>
