<svg width="22" height="18" viewBox="0 0 22 18" fill="none" xmlns="http://www.w3.org/2000/svg">
<path d="M20.334 0.333984H1.66732C1.3137 0.333984 0.974557 0.47446 0.724509 0.724509C0.47446 0.974557 0.333984 1.3137 0.333984 1.66732V16.334C0.333984 16.6876 0.47446 17.0267 0.724509 17.2768C0.974557 17.5268 1.3137 17.6673 1.66732 17.6673H20.334C20.6876 17.6673 21.0267 17.5268 21.2768 17.2768C21.5268 17.0267 21.6673 16.6876 21.6673 16.334V1.66732C21.6673 1.3137 21.5268 0.974557 21.2768 0.724509C21.0267 0.47446 20.6876 0.333984 20.334 0.333984ZM14.0406 14.294L9.30732 7.24065L5.08065 13.4273L2.08065 10.7606L3.00065 9.70065L4.80065 11.294L9.30732 4.70732L14.1006 11.8473L18.7673 5.66732L19.9007 6.52065L14.0406 14.294Z" fill="white"/>
</svg>
