<svg width="20" height="20" viewBox="0 0 20 20" fill="none" xmlns="http://www.w3.org/2000/svg">
<path d="M15.8586 10.2092C15.5045 12.013 19.9482 12.5366 18.2484 16.5862C16.4225 20.9362 5.2181 22.4268 1.11438 13.1041C-3.2189 3.25999 6.08571 -1.5579 11.8841 0.448191C16.6605 2.10069 16.7029 5.90839 15.8586 10.2092Z" fill="#FFE9C8"/>
<path d="M15.8586 10.2092C16.7029 5.90834 16.6605 2.10065 11.8841 0.448147C9.5352 -0.364509 6.61098 -0.0572045 4.25098 1.2503C6.46582 0.255452 9.04488 0.0798267 11.1583 0.811038C15.9347 2.46358 15.9771 6.27123 15.1328 10.5721C14.7787 12.3758 19.2225 12.8995 17.5227 16.949C17.1471 17.8435 16.3748 18.617 15.3495 19.2005C16.7348 18.5948 17.7888 17.6811 18.2485 16.5861C19.9483 12.5366 15.5045 12.0129 15.8586 10.2092Z" fill="#FFDCA7"/>
<path d="M15.5994 16.2118C16.2536 15.9437 16.5666 15.1962 16.2986 14.542C16.0306 13.8878 15.283 13.5748 14.6288 13.8428C13.9746 14.1108 13.6616 14.8584 13.9296 15.5126C14.1977 16.1668 14.9453 16.4798 15.5994 16.2118Z" fill="#009E65"/>
<path d="M15.1139 13.75C14.9878 13.75 14.8661 13.7686 14.751 13.8025C15.2811 13.959 15.6681 14.4492 15.6681 15.03C15.6681 15.6109 15.2811 16.1011 14.751 16.2576C14.8688 16.2924 14.991 16.3101 15.1139 16.3101C15.8208 16.3101 16.3939 15.737 16.3939 15.03C16.3939 14.3231 15.8208 13.75 15.1139 13.75Z" fill="#008954"/>
<path d="M11.3425 17.5586C12.0334 17.4088 12.472 16.7272 12.3221 16.0363C12.1722 15.3454 11.4906 14.9069 10.7998 15.0567C10.1089 15.2066 9.67033 15.8882 9.82021 16.5791C9.97008 17.2699 10.6516 17.7085 11.3425 17.5586Z" fill="#00E0A7"/>
<path d="M11.0699 15.0293C10.9438 15.0293 10.8221 15.0478 10.707 15.0818C11.2371 15.2383 11.6242 15.7285 11.6242 16.3093C11.6242 16.8902 11.2371 17.3804 10.707 17.5369C10.8248 17.5717 10.9471 17.5894 11.0699 17.5894C11.7769 17.5894 12.35 17.0163 12.35 16.3093C12.35 15.6024 11.7769 15.0293 11.0699 15.0293Z" fill="#00C988"/>
<path d="M4.55055 12.9605C5.25749 12.9605 5.83059 12.3874 5.83059 11.6804C5.83059 10.9735 5.25749 10.4004 4.55055 10.4004C3.8436 10.4004 3.27051 10.9735 3.27051 11.6804C3.27051 12.3874 3.8436 12.9605 4.55055 12.9605Z" fill="#00DDFF"/>
<path d="M4.55039 10.4004C4.4243 10.4004 4.30258 10.4189 4.1875 10.4529C4.71766 10.6094 5.10465 11.0996 5.10465 11.6804C5.10465 12.2613 4.71766 12.7515 4.1875 12.908C4.30531 12.9428 4.42753 12.9605 4.55039 12.9605C5.25734 12.9605 5.83043 12.3874 5.83043 11.6804C5.83047 10.9735 5.25734 10.4004 4.55039 10.4004Z" fill="#00D0FD"/>
<path d="M4.14312 8.70549C4.79964 8.44329 5.11931 7.69852 4.85712 7.042C4.59493 6.38547 3.85016 6.0658 3.19363 6.32799C2.5371 6.59018 2.21743 7.33495 2.47963 7.99148C2.74182 8.64801 3.48659 8.96768 4.14312 8.70549Z" fill="#FF656B"/>
<path d="M3.66953 6.23438C3.54344 6.23438 3.42172 6.25289 3.30664 6.28687C3.83676 6.44336 4.22379 6.93355 4.22379 7.51441C4.22379 8.09527 3.83676 8.58547 3.30664 8.74195C3.42446 8.77679 3.54667 8.79447 3.66953 8.79445C4.37648 8.79445 4.94957 8.22137 4.94957 7.51441C4.94957 6.8075 4.37648 6.23438 3.66953 6.23438Z" fill="#FF3E4C"/>
<path d="M6.64463 5.53587C7.34239 5.42224 7.81591 4.76448 7.70227 4.06672C7.58864 3.36897 6.93087 2.89545 6.23312 3.00909C5.53537 3.12272 5.06185 3.78048 5.17548 4.47824C5.28912 5.17599 5.94688 5.64951 6.64463 5.53587Z" fill="#FF9A00"/>
<path d="M6.43711 2.99219C6.31102 2.99219 6.1893 3.01074 6.07422 3.04469C6.60434 3.20117 6.99137 3.69137 6.99137 4.27223C6.99137 4.85309 6.60434 5.34328 6.07422 5.49977C6.19203 5.5346 6.31425 5.55228 6.43711 5.55227C7.14406 5.55227 7.71715 4.97918 7.71715 4.27223C7.71719 3.56527 7.14406 2.99219 6.43711 2.99219Z" fill="#EF8800"/>
<path d="M10.7996 5.15773C11.5065 5.15773 12.0796 4.58464 12.0796 3.8777C12.0796 3.17075 11.5065 2.59766 10.7996 2.59766C10.0926 2.59766 9.51953 3.17075 9.51953 3.8777C9.51953 4.58464 10.0926 5.15773 10.7996 5.15773Z" fill="#FFDC00"/>
<path d="M10.7994 2.59766C10.6733 2.59766 10.5516 2.61621 10.4365 2.65016C10.9666 2.80664 11.3537 3.29684 11.3537 3.8777C11.3537 4.45855 10.9666 4.94875 10.4365 5.10523C10.5543 5.14007 10.6766 5.15775 10.7994 5.15773C11.5064 5.15773 12.0795 4.58465 12.0795 3.8777C12.0795 3.17074 11.5064 2.59766 10.7994 2.59766Z" fill="#FFBF00"/>
<path d="M10.6721 12.3456L9.54688 11.2204L10.4449 9.06445L12.828 11.4476L10.6721 12.3456Z" fill="#E6E2E6"/>
<path d="M10.1184 13.3687L8.52362 11.774C8.30593 11.5563 8.30593 11.2033 8.52362 10.9856C8.74136 10.7678 9.09433 10.7678 9.31206 10.9856L10.9068 12.5803C11.1245 12.798 11.1245 13.151 10.9068 13.3687C10.6891 13.5865 10.336 13.5865 10.1184 13.3687Z" fill="#FFDC00"/>
<path d="M9.87921 13.1304L8.76367 12.0149C8.31636 11.9271 7.83492 12.0564 7.48839 12.403C7.0557 12.8357 6.61745 14.4999 6.44722 15.2036C6.41179 15.3501 6.54394 15.4823 6.69038 15.4468C7.39413 15.2766 9.05835 14.8384 9.49105 14.4056C9.83765 14.0591 9.96699 13.5777 9.87921 13.1304Z" fill="#BC6640"/>
<path d="M12.8284 11.4473L10.4453 9.06414L18.4075 2.12899C18.7884 1.79715 19.3612 1.81688 19.7185 2.17414C20.0757 2.53137 20.0954 3.10422 19.7636 3.48516L12.8284 11.4473Z" fill="#8C808A"/>
<path d="M12.3151 10.9355L10.1592 11.8336L10.6724 12.3468L12.8283 11.4488L12.3151 10.9355Z" fill="#D8D1D7"/>
<path d="M10.9071 12.5816L10.3939 12.0684C10.6116 12.2861 10.6116 12.6391 10.3939 12.8568C10.1762 13.0745 9.8232 13.0745 9.60547 12.8568L10.1187 13.37C10.3364 13.5877 10.6894 13.5878 10.9071 13.37C11.1248 13.1523 11.1248 12.7993 10.9071 12.5816Z" fill="#FFBF00"/>
<path d="M9.87915 13.1304L9.36591 12.6172C9.45368 13.0645 9.32435 13.5459 8.97782 13.8925C8.60786 14.2624 7.33782 14.6364 6.53735 14.8434C6.50636 14.9632 6.47632 15.0832 6.44724 15.2034C6.41177 15.35 6.54376 15.4823 6.69036 15.4468C7.39411 15.2766 9.05833 14.8384 9.49103 14.4057C9.83759 14.0591 9.96692 13.5777 9.87915 13.1304Z" fill="#A05638"/>
<path d="M19.2506 2.97293L12.3154 10.9351L12.8286 11.4483L19.7638 3.48613C20.0956 3.10516 20.0759 2.53234 19.7187 2.17512C19.6308 2.08707 19.5265 2.01697 19.4118 1.96875C19.55 2.29742 19.4982 2.68859 19.2506 2.97293Z" fill="#7B7179"/>
</svg>
