<svg width="20" height="20" viewBox="0 0 20 20" fill="none" xmlns="http://www.w3.org/2000/svg">
<path d="M19.6094 12.5391V13.9062C19.6094 14.4456 19.1721 14.8828 18.6328 14.8828H1.36719C0.827852 14.8828 0.390625 14.4456 0.390625 13.9062V12.5391H19.6094ZM13.3203 17.0312H11.7578V14.8828H8.24219V17.0312H6.67969C6.14035 17.0312 5.70312 17.4685 5.70312 18.0078V18.7891H14.2969V18.0078C14.2969 17.4685 13.8596 17.0312 13.3203 17.0312Z" fill="white"/>
<path d="M0.390625 12.5391H19.6094V2.1875C19.6094 1.64816 19.1721 1.21094 18.6328 1.21094H1.36719C0.827852 1.21094 0.390625 1.64816 0.390625 2.1875V12.5391Z" fill="#99EBFA"/>
<path d="M2.73438 10.9766C3.16585 10.9766 3.51562 10.6268 3.51562 10.1953C3.51562 9.76384 3.16585 9.41406 2.73438 9.41406C2.3029 9.41406 1.95312 9.76384 1.95312 10.1953C1.95312 10.6268 2.3029 10.9766 2.73438 10.9766Z" fill="#A0E5A5"/>
<path d="M5.85938 10.5859C6.29085 10.5859 6.64062 10.2362 6.64062 9.80469C6.64062 9.37322 6.29085 9.02344 5.85938 9.02344C5.4279 9.02344 5.07812 9.37322 5.07812 9.80469C5.07812 10.2362 5.4279 10.5859 5.85938 10.5859Z" fill="#A0E5A5"/>
<path d="M19.5996 1.2207C19.3414 0.9625 18.998 0.820312 18.6328 0.820312H11.7688C11.5535 0.820312 11.3785 0.995703 11.3785 1.21094C11.3785 1.42617 11.5535 1.60156 11.7688 1.60156H18.6328C18.9551 1.60195 19.2179 1.86484 19.2188 2.1875V12.1484H0.78125V2.1875C0.781641 1.86484 1.04453 1.60195 1.36719 1.60156H8.25352C8.46875 1.60156 8.64375 1.42617 8.64375 1.21094C8.64375 0.995703 8.46875 0.820312 8.25352 0.820312H1.36719C1.00195 0.820312 0.658594 0.9625 0.400391 1.2207C0.142187 1.47891 0 1.82227 0 2.1875V13.9062C0 14.6601 0.61332 15.2734 1.36719 15.2734H7.85156V16.6406H6.67969C5.92582 16.6406 5.3125 17.2539 5.3125 18.0078V18.7891C5.3125 19.0048 5.48738 19.1797 5.70312 19.1797H14.2969C14.5126 19.1797 14.6875 19.0048 14.6875 18.7891V18.0078C14.6875 17.2539 14.0742 16.6406 13.3203 16.6406H12.1484V15.2734H18.6328C19.3867 15.2734 20 14.6601 20 13.9062V2.1875C20 1.82227 19.8578 1.47891 19.5996 1.2207ZM11.3672 16.6406H10.7812C10.566 16.6406 10.3906 16.816 10.3906 17.0312C10.3906 17.2465 10.566 17.4219 10.7812 17.4219H13.3203C13.6434 17.4219 13.9062 17.6847 13.9062 18.0078V18.3984H6.09375V18.0078C6.09375 17.6847 6.3566 17.4219 6.67969 17.4219H9.21875C9.43398 17.4219 9.60938 17.2465 9.60938 17.0312C9.60938 16.816 9.43398 16.6406 9.21875 16.6406H8.63281V15.2734H11.3672V16.6406ZM19.2188 13.9062C19.2188 14.2293 18.9559 14.4922 18.6328 14.4922H1.36719C1.0441 14.4922 0.78125 14.2293 0.78125 13.9062V12.9297H19.2188V13.9062Z" fill="black"/>
<path d="M10.0117 1.60156C10.2275 1.60156 10.4023 1.42667 10.4023 1.21094C10.4023 0.995201 10.2275 0.820312 10.0117 0.820312C9.79598 0.820312 9.62109 0.995201 9.62109 1.21094C9.62109 1.42667 9.79598 1.60156 10.0117 1.60156Z" fill="black"/>
<path d="M5.85938 8.63309C5.2132 8.63309 4.6875 9.15879 4.6875 9.80496C4.6875 10.4511 5.2132 10.9768 5.85938 10.9768C6.50555 10.9768 7.03125 10.4511 7.03125 9.80496V7.46121C7.03125 7.24547 6.85637 7.07059 6.64062 7.07059H3.51562C3.29988 7.07059 3.125 7.24547 3.125 7.46121V9.0909C2.99958 9.04638 2.86746 9.02366 2.73438 9.02371C2.0882 9.02371 1.5625 9.54942 1.5625 10.1956C1.5625 10.8418 2.0882 11.3675 2.73438 11.3675C3.38055 11.3675 3.90625 10.8418 3.90625 10.1956V7.85184H6.25V8.70028C6.12458 8.65576 5.99246 8.63303 5.85938 8.63309ZM2.73438 10.5862C2.51898 10.5862 2.34375 10.411 2.34375 10.1956C2.34375 9.9802 2.51898 9.80496 2.73438 9.80496C2.94977 9.80496 3.125 9.9802 3.125 10.1956C3.125 10.411 2.94977 10.5862 2.73438 10.5862ZM5.85938 10.1956C5.64398 10.1956 5.46875 10.0204 5.46875 9.80496C5.46875 9.58957 5.64398 9.41434 5.85938 9.41434C6.07477 9.41434 6.25 9.58957 6.25 9.80496C6.25 10.0204 6.07477 10.1956 5.85938 10.1956ZM8.20312 7.07059C7.98738 7.07059 7.8125 7.24547 7.8125 7.46121V10.9768C7.8125 11.1926 7.98738 11.3675 8.20312 11.3675C8.41887 11.3675 8.59375 11.1926 8.59375 10.9768V7.46121C8.59375 7.24547 8.41887 7.07059 8.20312 7.07059ZM3.64281 6.28942C3.8148 6.28942 3.97238 6.17492 4.01957 6.00098L4.14953 5.52199H4.89461L5.02316 6.00012C5.07918 6.20844 5.29352 6.33192 5.50184 6.27594C5.71016 6.21992 5.83363 6.00563 5.77766 5.79727C5.77766 5.79727 4.94766 2.71051 4.94684 2.70774C4.88992 2.51352 4.72055 2.38309 4.52531 2.38309H4.525C4.32961 2.38324 4.16027 2.51399 4.10355 2.70844L3.26559 5.79645C3.2091 6.00465 3.33207 6.21922 3.54027 6.27574C3.57453 6.285 3.60895 6.28942 3.64281 6.28942ZM4.68457 4.74074H4.36156L4.52383 4.14278L4.68457 4.74074ZM10.2442 2.76098L9.72242 5.8084C9.68602 6.02102 9.82887 6.22293 10.0415 6.25934C10.254 6.29571 10.4561 6.15285 10.4925 5.94024L10.7704 4.31672C10.7704 4.31672 11.2318 5.96477 11.2332 5.96922C11.2943 6.16094 11.4692 6.28934 11.6688 6.28934H11.6712C11.8718 6.28832 12.0465 6.15789 12.1059 5.96473C12.1072 5.96047 12.5526 4.31395 12.5526 4.31395L12.8481 5.94399C12.8572 5.99447 12.8762 6.04266 12.904 6.0858C12.9317 6.12894 12.9677 6.16619 13.0099 6.19542C13.0521 6.22464 13.0996 6.24527 13.1497 6.25612C13.1999 6.26698 13.2517 6.26784 13.3021 6.25867C13.5144 6.2202 13.6553 6.01692 13.6168 5.80465L13.0641 2.75594C13.0239 2.54809 12.8492 2.39504 12.6393 2.38375C12.4298 2.3725 12.2401 2.50571 12.1779 2.70758C12.1766 2.71188 11.6635 4.60895 11.6635 4.60895C11.6635 4.60895 11.1313 2.70781 11.1299 2.70336C11.0657 2.50199 10.8742 2.37071 10.6652 2.38422C10.4554 2.39766 10.2823 2.55258 10.2442 2.76098ZM7.38219 2.45903C7.0459 2.59059 6.80695 2.8986 6.74301 3.28297C6.67789 3.67449 6.80602 4.06047 7.07742 4.29028C7.09508 4.30524 7.48352 4.53223 7.86109 4.71309C8.17051 4.86133 8.17082 5.08543 8.14348 5.20582C8.10934 5.35602 7.98758 5.50805 7.8209 5.50805C7.62586 5.50805 7.43215 5.39735 7.30273 5.21192C7.1793 5.035 6.93582 4.99168 6.75887 5.11508C6.58195 5.23856 6.53859 5.48203 6.66203 5.65895C6.9375 6.05371 7.37066 6.28934 7.8209 6.28934C8.33762 6.28934 8.78352 5.91496 8.90531 5.37891C9.03371 4.81363 8.75633 4.27571 8.19859 4.00852C7.92121 3.87567 7.66168 3.73133 7.56523 3.67672C7.51813 3.62004 7.4966 3.51367 7.51367 3.41114C7.5225 3.35821 7.55504 3.23028 7.66684 3.18653C7.91301 3.09016 8.17008 3.35137 8.17949 3.36106C8.32543 3.51793 8.5709 3.52801 8.72926 3.38297C8.88836 3.23727 8.89918 2.99016 8.75348 2.8311C8.52594 2.5827 7.98102 2.22473 7.38219 2.45903ZM16.748 3.55324C16.748 2.90801 16.2166 2.38309 15.5634 2.38309H14.7949C14.5792 2.38309 14.4043 2.55797 14.4043 2.77371V5.89871C14.4043 6.11446 14.5792 6.28934 14.7949 6.28934C15.0106 6.28934 15.1855 6.11446 15.1855 5.89871V5.2793L16.0812 6.17496C16.1575 6.25125 16.2575 6.28938 16.3574 6.28938C16.4574 6.28938 16.5573 6.25125 16.6336 6.17496C16.7862 6.02242 16.7862 5.77508 16.6336 5.6225L15.7236 4.71242C16.3013 4.63489 16.748 4.14481 16.748 3.55324ZM15.5634 3.94215C15.4748 3.94215 15.3277 3.94274 15.1855 3.94344V3.16434H15.5634C15.7821 3.16434 15.9668 3.34242 15.9668 3.55324C15.9668 3.76406 15.7821 3.94215 15.5634 3.94215ZM18.0469 7.2659H14.8828C14.6671 7.2659 14.4922 7.44129 14.4922 7.65653C14.4922 7.87176 14.6671 8.04715 14.8828 8.04715H18.0469C18.2621 8.04715 18.4375 7.87176 18.4375 7.65653C18.4375 7.44129 18.2621 7.2659 18.0469 7.2659ZM11.5234 8.04715H13.125C13.3402 8.04715 13.5156 7.87176 13.5156 7.65653C13.5156 7.44129 13.3402 7.2659 13.125 7.2659H11.5234C11.3082 7.2659 11.1328 7.44129 11.1328 7.65653C11.1328 7.87176 11.3082 8.04715 11.5234 8.04715Z" fill="black"/>
<path d="M9.76562 8.04688C9.98136 8.04688 10.1562 7.87199 10.1562 7.65625C10.1562 7.44051 9.98136 7.26562 9.76562 7.26562C9.54989 7.26562 9.375 7.44051 9.375 7.65625C9.375 7.87199 9.54989 8.04688 9.76562 8.04688Z" fill="black"/>
<path d="M9.76562 11.1719C9.98136 11.1719 10.1562 10.997 10.1562 10.7812C10.1562 10.5655 9.98136 10.3906 9.76562 10.3906C9.54989 10.3906 9.375 10.5655 9.375 10.7812C9.375 10.997 9.54989 11.1719 9.76562 11.1719Z" fill="black"/>
<path d="M18.0469 10.3906H11.5234C11.3082 10.3906 11.1328 10.566 11.1328 10.7812C11.1328 10.9965 11.3082 11.1719 11.5234 11.1719H18.0469C18.2621 11.1719 18.4375 10.9965 18.4375 10.7812C18.4375 10.566 18.2621 10.3906 18.0469 10.3906ZM11.1328 9.21875C11.1328 9.43398 11.3082 9.60938 11.5234 9.60938H14.6875C14.9027 9.60938 15.0781 9.43398 15.0781 9.21875C15.0781 9.00352 14.9027 8.82812 14.6875 8.82812H11.5234C11.3082 8.82812 11.1328 9.00352 11.1328 9.21875Z" fill="black"/>
<path d="M9.76562 9.60938C9.98136 9.60938 10.1562 9.43449 10.1562 9.21875C10.1562 9.00301 9.98136 8.82812 9.76562 8.82812C9.54989 8.82812 9.375 9.00301 9.375 9.21875C9.375 9.43449 9.54989 9.60938 9.76562 9.60938Z" fill="black"/>
<path d="M18.0469 8.82812H16.4453C16.2296 8.82812 16.0547 9.00352 16.0547 9.21875C16.0547 9.43398 16.2296 9.60938 16.4453 9.60938H18.0469C18.2621 9.60938 18.4375 9.43398 18.4375 9.21875C18.4375 9.00352 18.2621 8.82812 18.0469 8.82812Z" fill="black"/>
</svg>
