<svg width="68" height="68" viewBox="0 0 68 68" fill="none" xmlns="http://www.w3.org/2000/svg">
<rect x="27.7168" width="48.3218" height="48.3218" rx="24.1609" transform="rotate(35 27.7168 0)" fill="#514DFB"/>
<path d="M33.303 36.7935L27.2477 32.1219C26.7659 31.7502 26.0735 31.8399 25.7022 32.3215C25.3306 32.8029 25.4195 33.4953 25.9017 33.867L31.9565 38.5382C32.4388 38.9099 33.1308 38.8209 33.5025 38.3391C33.8741 37.8571 33.7848 37.1651 33.303 36.7935Z" fill="white"/>
<path d="M34.0594 23.2966L40.1151 27.9678C40.5969 28.3399 41.2889 28.2506 41.6606 27.7687C42.0323 27.2868 41.943 26.5952 41.4611 26.2232L35.4059 21.5516C34.924 21.1799 34.232 21.2696 33.8603 21.7511C33.4886 22.2329 33.578 22.925 34.0594 23.2966Z" fill="white"/>
<path d="M33.532 23.8721L27.752 31.3642L33.9102 36.1144L39.6899 28.6223L33.532 23.8721Z" fill="white"/>
<path d="M48.7489 39.6657L38.4652 31.7324L36.6445 34.0924L46.9286 42.0257C47.5803 42.5284 48.5159 42.408 49.0183 41.7562C49.5215 41.1041 49.4006 40.1685 48.7489 39.6657Z" fill="white"/>
<path d="M31.3215 42.2474C31.3215 41.4566 30.6808 40.8154 29.8899 40.8154H23.164C22.3732 40.8154 21.7324 41.4565 21.7324 42.2474V43.3092H31.3215V42.2474Z" fill="white"/>
<path d="M32.0884 44.207H20.9648V46.1368H32.0884V44.207Z" fill="white"/>
</svg>
