<svg width="24" height="24" viewBox="0 0 24 24" fill="none" xmlns="http://www.w3.org/2000/svg">
<g clip-path="url(#clip0_683_1328)">
<path d="M10.4394 15.0904L5.3159 11.1376C4.90818 10.8232 4.32238 10.8991 4.00818 11.3065C3.69374 11.7139 3.76897 12.2997 4.17697 12.6142L9.3001 16.5666C9.70815 16.8811 10.2937 16.8058 10.6082 16.3981C10.9226 15.9904 10.8471 15.4048 10.4394 15.0904Z" fill="white"/>
<path d="M11.0794 3.67052L16.2032 7.62294C16.6109 7.93776 17.1964 7.86219 17.5109 7.45447C17.8254 7.04675 17.7499 6.46156 17.3421 6.14675L12.2187 2.19405C11.811 1.87956 11.2254 1.95545 10.911 2.36284C10.5965 2.77052 10.6721 3.35608 11.0794 3.67052Z" fill="white"/>
<path d="M10.6328 4.15723L5.74219 10.4964L10.9528 14.5157L15.8431 8.17649L10.6328 4.15723Z" fill="white"/>
<path d="M23.5093 17.5208L14.8081 10.8082L13.2676 12.805L21.9692 19.5175C22.5206 19.9429 23.3122 19.841 23.7373 19.2895C24.163 18.7378 24.0608 17.9462 23.5093 17.5208Z" fill="white"/>
<path d="M8.76339 19.7052C8.76339 19.0361 8.22128 18.4936 7.55213 18.4936L1.86116 18.4936C1.19206 18.4936 0.649902 19.036 0.649902 19.7052L0.649902 20.6036L8.76339 20.6036L8.76339 19.7052Z" fill="white"/>
<path d="M9.41188 21.3633L0 21.3633L5.5822e-08 22.9961L9.41188 22.9961L9.41188 21.3633Z" fill="white"/>
</g>
<defs>
<clipPath id="clip0_683_1328">
<rect width="24" height="24" fill="white"/>
</clipPath>
</defs>
</svg>
