<svg width="55" height="55" viewBox="0 0 55 55" fill="none" xmlns="http://www.w3.org/2000/svg">
<mask id="mask0_1_6997" style="mask-type:alpha" maskUnits="userSpaceOnUse" x="0" y="0" width="55" height="55">
<circle cx="27.194" cy="27.194" r="27.194" fill="url(#paint0_linear_1_6997)"/>
</mask>
<g mask="url(#mask0_1_6997)">
<circle cx="27.194" cy="27.194" r="27.194" fill="#514DFB"/>
</g>
<path d="M26.2 15.0257C19.8267 15.4336 15 20.9469 15 27.2497V36.0525C15 38.2368 16.7867 40 19 40H20.3333C21.8 40 23 38.8158 23 37.3684V32.1051C23 30.6576 21.8 29.4734 20.3333 29.4734H17.6667V27.2233C17.6667 22.1706 21.6133 17.7757 26.72 17.631C27.9691 17.5938 29.213 17.8046 30.378 18.2508C31.5429 18.697 32.6052 19.3696 33.5018 20.2287C34.3984 21.0877 35.1111 22.1157 35.5974 23.2517C36.0838 24.3877 36.3341 25.6085 36.3333 26.8418V29.4734H33.6667C32.2 29.4734 31 30.6576 31 32.1051V37.3684C31 38.8158 32.2 40 33.6667 40H35C37.2133 40 39 38.2368 39 36.0525V26.8418C39 20.039 33.1867 14.5783 26.2 15.0257Z" fill="white"/>
<defs>
<linearGradient id="paint0_linear_1_6997" x1="17.4042" y1="48.9493" x2="48.4054" y2="8.15821" gradientUnits="userSpaceOnUse">
<stop stop-color="#FFA3A3"/>
<stop offset="1" stop-color="#FFA3DA"/>
</linearGradient>
</defs>
</svg>
