<svg width="40" height="40" viewBox="0 0 40 40" fill="none" xmlns="http://www.w3.org/2000/svg">
<g filter="url(#filter0_b_216_5398)">
<rect width="40" height="40" rx="10" fill="white" fill-opacity="0.1"/>
</g>
<path d="M25.9084 18.68V15.0236C25.9084 11.7016 23.2068 9 19.8892 9C16.5672 9 13.8612 11.7016 13.8612 15.0236V18.68H17.1832V15.0236C17.1832 13.5364 18.3976 12.322 19.8892 12.322C21.3764 12.322 22.5908 13.5364 22.5908 15.0236V18.68H25.9084ZM12 20.9988V29.5612C12 30.3576 12.6468 31 13.4388 31H26.3352C27.1272 31 27.774 30.3576 27.774 29.5612V20.9988C27.774 20.2024 27.1272 19.56 26.3352 19.56H13.4388C12.6468 19.56 12 20.2024 12 20.9988ZM16.7203 25.2879C16.8028 25.2054 16.9147 25.1591 17.0314 25.1591C17.1481 25.1591 17.26 25.2054 17.3425 25.2879L18.7223 26.6673L22.4315 22.9581C22.4721 22.9161 22.5207 22.8826 22.5744 22.8596C22.6281 22.8366 22.6859 22.8245 22.7443 22.824C22.8027 22.8236 22.8606 22.8347 22.9147 22.8569C22.9687 22.8791 23.0178 22.9118 23.0591 22.9531C23.1004 22.9945 23.1331 23.0436 23.1551 23.0977C23.1772 23.1518 23.1883 23.2097 23.1878 23.2682C23.1872 23.3266 23.175 23.3843 23.1519 23.438C23.1288 23.4916 23.0953 23.5402 23.0532 23.5807L19.0334 27.6006C18.9926 27.6416 18.9442 27.6741 18.8908 27.6963C18.8374 27.7185 18.7801 27.7299 18.7223 27.7299C18.6645 27.7299 18.6073 27.7185 18.5539 27.6963C18.5005 27.6741 18.452 27.6416 18.4112 27.6006L16.7203 25.9101C16.6378 25.8276 16.5915 25.7157 16.5915 25.599C16.5915 25.4823 16.6378 25.3704 16.7203 25.2879Z" fill="white"/>
<defs>
<filter id="filter0_b_216_5398" x="-44" y="-44" width="128" height="128" filterUnits="userSpaceOnUse" color-interpolation-filters="sRGB">
<feFlood flood-opacity="0" result="BackgroundImageFix"/>
<feGaussianBlur in="BackgroundImageFix" stdDeviation="22"/>
<feComposite in2="SourceAlpha" operator="in" result="effect1_backgroundBlur_216_5398"/>
<feBlend mode="normal" in="SourceGraphic" in2="effect1_backgroundBlur_216_5398" result="shape"/>
</filter>
</defs>
</svg>
