<svg width="24" height="24" viewBox="0 0 24 24" fill="none" xmlns="http://www.w3.org/2000/svg">
<path d="M11.5 12.2441C14.5376 12.2441 17 9.78171 17 6.74414C17 3.70657 14.5376 1.24414 11.5 1.24414C8.46243 1.24414 6 3.70657 6 6.74414C6 9.78171 8.46243 12.2441 11.5 12.2441Z" fill="white"/>
<path fill-rule="evenodd" clip-rule="evenodd" d="M20.1517 13.7874L13.7877 20.1514C13.6471 20.292 13.5682 20.4826 13.5682 20.6814C13.5682 20.8802 13.6471 21.0708 13.7877 21.2114C13.9283 21.352 14.1189 21.4309 14.3177 21.4309C14.5165 21.4309 14.7071 21.352 14.8477 21.2114L21.2117 14.8474C21.3523 14.7068 21.4312 14.5162 21.4312 14.3174C21.4312 14.1186 21.3523 13.928 21.2117 13.7874C21.0711 13.6468 20.8805 13.5679 20.6817 13.5679C20.4829 13.5679 20.2923 13.6468 20.1517 13.7874Z" fill="white"/>
<path fill-rule="evenodd" clip-rule="evenodd" d="M17.4993 12.249C14.6013 12.249 12.2493 14.601 12.2493 17.499C12.2493 20.397 14.6013 22.749 17.4993 22.749C20.3973 22.749 22.7493 20.397 22.7493 17.499C22.7493 14.601 20.3973 12.249 17.4993 12.249ZM17.4993 13.749C19.5693 13.749 21.2493 15.429 21.2493 17.499C21.2493 19.569 19.5693 21.249 17.4993 21.249C15.4293 21.249 13.7493 19.569 13.7493 17.499C13.7493 15.429 15.4293 13.749 17.4993 13.749Z" fill="white"/>
<path fill-rule="evenodd" clip-rule="evenodd" d="M12.9246 21.7555C11.8466 20.6007 11.2478 19.0793 11.2496 17.4995C11.2496 15.8165 11.9166 14.2875 13.0006 13.1635C12.5106 13.1255 12.0096 13.1055 11.4996 13.1055C8.17764 13.1055 5.23664 13.9365 3.41064 15.1815C2.01764 16.1315 1.24964 17.3385 1.24964 18.6055V20.0555C1.24925 20.2788 1.29295 20.5001 1.37824 20.7065C1.46354 20.9129 1.58874 21.1005 1.74668 21.2584C1.90462 21.4164 2.09218 21.5416 2.29861 21.6269C2.50505 21.7122 2.72629 21.7559 2.94964 21.7555H12.9246Z" fill="white"/>
</svg>
