<svg width="16" height="8" viewBox="0 0 16 8" fill="none" xmlns="http://www.w3.org/2000/svg">
<path fill-rule="evenodd" clip-rule="evenodd" d="M9.20859 2.31956C8.2337 3.06956 7.34402 3.90486 6.55261 4.81315C6.56211 4.87416 6.58618 4.9326 6.62317 4.98444C6.66016 5.03627 6.70919 5.08029 6.76689 5.11343C6.82459 5.14658 6.88958 5.16808 6.9574 5.17646C7.02522 5.18484 7.09422 5.17989 7.15971 5.16196C7.46638 5.01476 12.5482 0.512355 12.5482 0.387555C12.5482 0.222755 12.2575 0.00195312 12.0406 0.00195312C11.0374 0.713765 10.091 1.48821 9.20859 2.31956ZM11.4122 3.48756C9.21393 5.40756 7.37484 6.97236 7.32328 6.97236C6.75149 6.54991 6.20577 6.09963 5.6886 5.62355C5.17962 5.10734 4.59642 4.65455 3.95439 4.27715C3.83775 4.28942 3.72807 4.33357 3.64018 4.40366C3.55229 4.47375 3.49039 4.56642 3.46282 4.66915C3.6683 4.94593 3.91204 5.19809 4.18817 5.41956L4.91261 6.06755L4.36948 6.53635L3.82638 7.00516L2.25395 5.64515C0.653949 4.26115 0.416594 4.11796 0.120594 4.37636C-0.175406 4.63476 -0.0171831 4.84035 1.76059 6.39876C2.37043 6.9679 3.02614 7.49574 3.72237 7.97795C3.90015 8.01715 4.06995 7.90835 4.74462 7.32275L5.55261 6.62115L6.35261 7.31235C6.63207 7.59153 6.96282 7.82534 7.33039 8.00355C7.44328 8.00355 9.05037 6.65955 11.757 4.30195C15.1535 1.34195 16.0059 0.559556 16.0059 0.397156C16.0131 0.346455 16.0079 0.294945 15.9906 0.246259C15.9733 0.197572 15.9444 0.152893 15.9058 0.115366C15.8673 0.0778384 15.82 0.048377 15.7675 0.0290588C15.7149 0.00974069 15.6582 0.00103551 15.6015 0.0035553C14.1316 1.09009 12.7328 2.2523 11.4122 3.48436V3.48756Z" fill="#57AEFE"/>
</svg>
