<!DOCTYPE svg PUBLIC "-//W3C//DTD SVG 1.1//EN" "http://www.w3.org/Graphics/SVG/1.1/DTD/svg11.dtd">

<!-- Uploaded to: SVG Repo, www.svgrepo.com, Transformed by: SVG Repo Mixer Tools -->strokeWidth
<svg fill="#d1e3ff" width="strokeWidtht="800px" viewBox="-3.2 -3.2 38.40 38.40" id="icon" xmlns="http://www.w3.org/2000/svg" stroke="#d1e3ff" stroke-width="0.00032" transform="matrix(1, 0, 0, 1, 0, 0)rotate(0)">
strokeWidth
<g id="SVGRepo_bgCarrier" stroke-width="0"/>

<g id="SVGRepo_tracerCarrier" strokeLinecap="round" stroke-linejoin="round" stroke="#CCCCCC" stroke-width="1.7280000000000002"/>

<g id="SVGRepo_iconCarrier"> <defs> <style> .cls-1 { fill: none; } </style> </defs> <title>checkbox--checked--filled</title> <path d="M26,4H6A2,2,0,0,0,4,6V26a2,2,0,0,0,2,2H26a2,2,0,0,0,2-2V6A2,2,0,0,0,26,4ZM14,21.5,9,16.5427,10.5908,15,14,18.3456,21.4087,11l1.5918,1.5772Z" transform="translate(0 0)"/> <path id="inner-path" class="cls-1" d="M14,21.5,9,16.5427,10.5908,15,14,18.3456,21.4087,11l1.5918,1.5772Z" transform="translate(0 0)"/> <rect id="_Transparent_Rectangle_" data-name="&lt;Transparent Rectangle&gt;" class="cls-1" width="32" height="32"/> </g>

</svg>