<svg width="18" height="20" viewBox="0 0 18 20" fill="none" xmlns="http://www.w3.org/2000/svg">
<path d="M2.5 0.25H9.8125C10.8567 0.250327 11.8806 0.538004 12.7721 1.08152C13.6636 1.62504 14.3884 2.40343 14.867 3.33143C15.3456 4.25943 15.5596 5.30125 15.4855 6.34277C15.4114 7.38429 15.0521 8.38533 14.447 9.23625C15.4966 9.88923 16.3048 10.8665 16.7493 12.02C17.1937 13.1735 17.2501 14.4404 16.9099 15.6288C16.5697 16.8173 15.8515 17.8625 14.864 18.6061C13.8766 19.3497 12.6737 19.7513 11.4375 19.75H2.5C2.06902 19.75 1.6557 19.5788 1.35095 19.274C1.0462 18.9693 0.875 18.556 0.875 18.125V1.875C0.875 1.44402 1.0462 1.0307 1.35095 0.725951C1.6557 0.421205 2.06902 0.25 2.5 0.25ZM4.125 11.625V16.5H11.4375C12.084 16.5 12.704 16.2432 13.1611 15.7861C13.6182 15.329 13.875 14.709 13.875 14.0625C13.875 13.416 13.6182 12.796 13.1611 12.3389C12.704 11.8818 12.084 11.625 11.4375 11.625H4.125ZM9.8125 8.375C10.459 8.375 11.079 8.11819 11.5361 7.66107C11.9932 7.20395 12.25 6.58396 12.25 5.9375C12.25 5.29103 11.9932 4.67105 11.5361 4.21393C11.079 3.75681 10.459 3.5 9.8125 3.5H4.125V8.375H9.8125Z" fill="white"/>
</svg>
