<svg width="38" height="38" viewBox="0 0 38 38" fill="none" xmlns="http://www.w3.org/2000/svg">
<circle cx="19" cy="19" r="19" fill="white"/>
<g clip-path="url(#clip0_228_20774)">
<path d="M21.4688 27.375H17.5312C17.3572 27.375 17.1903 27.3059 17.0672 27.1828C16.9441 27.0597 16.875 26.8928 16.875 26.7188C16.875 26.5447 16.9441 26.3778 17.0672 26.2547C17.1903 26.1316 17.3572 26.0625 17.5312 26.0625H21.4688C21.6428 26.0625 21.8097 26.1316 21.9328 26.2547C22.0559 26.3778 22.125 26.5447 22.125 26.7188C22.125 26.8928 22.0559 27.0597 21.9328 27.1828C21.8097 27.3059 21.6428 27.375 21.4688 27.375ZM19.5 12.0249C19.326 12.0249 19.159 11.9557 19.036 11.8327C18.9129 11.7096 18.8438 11.5427 18.8438 11.3686V9.65625C18.8438 9.4822 18.9129 9.31528 19.036 9.19221C19.159 9.06914 19.326 9 19.5 9C19.674 9 19.841 9.06914 19.964 9.19221C20.0871 9.31528 20.1562 9.4822 20.1562 9.65625V11.3686C20.1562 11.5427 20.0871 11.7096 19.964 11.8327C19.841 11.9557 19.674 12.0249 19.5 12.0249ZM25.2496 14.4066C25.1197 14.4067 24.9927 14.3682 24.8847 14.296C24.7767 14.2239 24.6926 14.1213 24.6429 14.0013C24.5933 13.8812 24.5803 13.7492 24.6058 13.6218C24.6312 13.4944 24.6939 13.3775 24.7859 13.2857L25.9969 12.0747C26.0578 12.0138 26.1302 11.9654 26.2098 11.9324C26.2895 11.8995 26.3749 11.8825 26.4611 11.8825C26.5473 11.8825 26.6326 11.8995 26.7123 11.9324C26.7919 11.9654 26.8643 12.0138 26.9253 12.0747C26.9862 12.1357 27.0346 12.2081 27.0676 12.2877C27.1005 12.3674 27.1175 12.4527 27.1175 12.5389C27.1175 12.6251 27.1005 12.7105 27.0676 12.7902C27.0346 12.8698 26.9862 12.9422 26.9253 13.0031L25.7142 14.2141C25.591 14.3373 25.4239 14.4065 25.2496 14.4066ZM29.3438 20.1562H27.6314C27.4573 20.1562 27.2904 20.0871 27.1673 19.964C27.0443 19.841 26.9751 19.674 26.9751 19.5C26.9751 19.326 27.0443 19.159 27.1673 19.036C27.2904 18.9129 27.4573 18.8438 27.6314 18.8438H29.3438C29.5178 18.8438 29.6847 18.9129 29.8078 19.036C29.9309 19.159 30 19.326 30 19.5C30 19.674 29.9309 19.841 29.8078 19.964C29.6847 20.0871 29.5178 20.1562 29.3438 20.1562ZM26.4606 27.1169C26.3744 27.1171 26.2891 27.1002 26.2094 27.0671C26.1298 27.0341 26.0576 26.9856 25.9969 26.9244L24.7859 25.7134C24.7249 25.6524 24.6766 25.58 24.6436 25.5004C24.6106 25.4208 24.5936 25.3354 24.5936 25.2492C24.5936 25.163 24.6106 25.0776 24.6436 24.998C24.6766 24.9183 24.7249 24.846 24.7859 24.785C24.8468 24.724 24.9192 24.6757 24.9988 24.6427C25.0785 24.6097 25.1639 24.5927 25.2501 24.5927C25.3363 24.5927 25.4216 24.6097 25.5013 24.6427C25.5809 24.6757 25.6533 24.724 25.7142 24.785L26.9253 25.996C27.0173 26.0878 27.08 26.2048 27.1054 26.3323C27.1308 26.4597 27.1178 26.5919 27.068 26.7119C27.0183 26.832 26.934 26.9346 26.8258 27.0067C26.7177 27.0787 26.5906 27.1171 26.4606 27.1169ZM12.5394 27.1169C12.4095 27.1169 12.2825 27.0784 12.1745 27.0063C12.0665 26.9341 11.9823 26.8315 11.9327 26.7115C11.883 26.5915 11.8701 26.4594 11.8955 26.3321C11.921 26.2047 11.9837 26.0877 12.0756 25.996L13.2866 24.785C13.3476 24.724 13.42 24.6757 13.4996 24.6427C13.5792 24.6097 13.6646 24.5927 13.7508 24.5927C13.837 24.5927 13.9224 24.6097 14.002 24.6427C14.0817 24.6757 14.154 24.724 14.215 24.785C14.276 24.846 14.3243 24.9183 14.3573 24.998C14.3903 25.0776 14.4073 25.163 14.4073 25.2492C14.4073 25.3354 14.3903 25.4208 14.3573 25.5004C14.3243 25.58 14.276 25.6524 14.215 25.7134L13.004 26.9244C12.9431 26.9855 12.8707 27.034 12.7909 27.067C12.7112 27.1001 12.6257 27.117 12.5394 27.1169ZM11.3686 20.1562H9.65625C9.4822 20.1562 9.31528 20.0871 9.19221 19.964C9.06914 19.841 9 19.674 9 19.5C9 19.326 9.06914 19.159 9.19221 19.036C9.31528 18.9129 9.4822 18.8438 9.65625 18.8438H11.3686C11.5427 18.8438 11.7096 18.9129 11.8327 19.036C11.9557 19.159 12.0249 19.326 12.0249 19.5C12.0249 19.674 11.9557 19.841 11.8327 19.964C11.7096 20.0871 11.5427 20.1562 11.3686 20.1562ZM13.7504 14.4066C13.6642 14.4068 13.5788 14.3899 13.4992 14.3569C13.4196 14.3238 13.3473 14.2753 13.2866 14.2141L12.0756 13.0031C12.0147 12.9422 11.9663 12.8698 11.9333 12.7902C11.9003 12.7105 11.8834 12.6251 11.8834 12.5389C11.8834 12.4527 11.9003 12.3674 11.9333 12.2877C11.9663 12.2081 12.0147 12.1357 12.0756 12.0747C12.1366 12.0138 12.209 11.9654 12.2886 11.9324C12.3682 11.8995 12.4536 11.8825 12.5398 11.8825C12.626 11.8825 12.7114 11.8995 12.791 11.9324C12.8707 11.9654 12.943 12.0138 13.004 12.0747L14.215 13.2857C14.307 13.3775 14.3697 13.4946 14.3951 13.622C14.4205 13.7495 14.4075 13.8816 14.3578 14.0017C14.308 14.1217 14.2237 14.2243 14.1156 14.2964C14.0074 14.3685 13.8803 14.4069 13.7504 14.4066ZM22.7812 19.9375C22.6072 19.9375 22.4403 19.8684 22.3172 19.7453C22.1941 19.6222 22.125 19.4553 22.125 19.2812C22.1245 18.6432 21.8709 18.0314 21.4197 17.5803C20.9686 17.1291 20.3568 16.8755 19.7188 16.875C19.5447 16.875 19.3778 16.8059 19.2547 16.6828C19.1316 16.5597 19.0625 16.3928 19.0625 16.2188C19.0625 16.0447 19.1316 15.8778 19.2547 15.7547C19.3778 15.6316 19.5447 15.5625 19.7188 15.5625C20.7047 15.5637 21.6499 15.9558 22.347 16.653C23.0442 17.3501 23.4363 18.2953 23.4375 19.2812C23.4375 19.4553 23.3684 19.6222 23.2453 19.7453C23.1222 19.8684 22.9553 19.9375 22.7812 19.9375Z" fill="#504DFB"/>
<path d="M20.5936 29.9998H18.4061C17.6684 29.9998 16.8748 29.4398 16.8748 28.2113V26.6678C16.8748 25.7394 16.4793 24.8872 15.8169 24.3884C13.9051 22.949 13.0204 20.5813 13.5078 18.2092C13.9847 15.8852 15.8651 13.9978 18.1864 13.5122C20.0318 13.1245 21.9209 13.5734 23.3612 14.7442C24.0697 15.3175 24.6407 16.0423 25.0324 16.8652C25.4241 17.6882 25.6265 18.5884 25.6248 19.4998C25.6269 20.427 25.4172 21.3424 25.0115 22.1762C24.6059 23.0099 24.015 23.7399 23.2842 24.3105C22.5475 24.8898 22.1248 25.6965 22.1248 26.5234V28.4685C22.1248 29.3129 21.4379 29.9998 20.5936 29.9998ZM19.4876 14.689C19.1446 14.689 18.7989 14.7249 18.4533 14.7967C16.6368 15.1764 15.1659 16.6534 14.7923 18.4725C14.4082 20.3424 15.1029 22.2079 16.6053 23.3393C17.5949 24.0848 18.1864 25.329 18.1864 26.6678V28.2113C18.1864 28.2909 18.1969 28.6873 18.4052 28.6873H20.5927C20.6507 28.6873 20.7064 28.6642 20.7474 28.6232C20.7884 28.5822 20.8114 28.5265 20.8114 28.4685V26.5234C20.8114 25.2905 21.4169 24.1084 22.4722 23.278C23.0466 22.8302 23.5111 22.2569 23.83 21.6021C24.1489 20.9473 24.3139 20.2282 24.3123 19.4998C24.3135 18.7835 24.1542 18.0761 23.8462 17.4294C23.5382 16.7827 23.0894 16.2132 22.5326 15.7627C21.6713 15.0651 20.5959 14.6859 19.4876 14.689Z" fill="#504DFB"/>
</g>
<defs>
<clipPath id="clip0_228_20774">
<rect width="21" height="21" fill="white" transform="translate(9 9)"/>
</clipPath>
</defs>
</svg>
