<svg width="80" height="80" viewBox="0 0 80 80" fill="none" xmlns="http://www.w3.org/2000/svg">
<mask id="mask0_194_3298" style="mask-type:alpha" maskUnits="userSpaceOnUse" x="0" y="0" width="80" height="80">
<circle cx="40" cy="40" r="40" fill="url(#paint0_linear_194_3298)"/>
</mask>
<g mask="url(#mask0_194_3298)">
<circle cx="40" cy="40" r="40" fill="#514DFB"/>
</g>
<path d="M36.6304 25.0059C35.5474 25.0059 34.8279 25.428 34.4827 26.0142L32.526 29.4028H29.7567C29.7567 28.5953 29.0709 27.9372 28.2292 27.9372H25.1742C24.3326 27.9372 23.6468 28.5953 23.6468 29.4028V29.6784C22.7555 29.9773 21.9829 30.5344 21.4357 31.2726C20.8885 32.0108 20.5936 32.8939 20.5918 33.7998L20.5918 48.6396C20.5916 49.5779 20.7841 50.5071 21.1582 51.3741C21.5324 52.2411 22.0809 53.0288 22.7724 53.6923C23.4639 54.3559 24.2849 54.8822 25.1884 55.2412C26.0919 55.6002 27.0603 55.7849 28.0383 55.7847H52.8599C53.8378 55.7849 54.8062 55.6002 55.7098 55.2412C56.6133 54.8822 57.4343 54.3559 58.1258 53.6923C58.8173 53.0288 59.3658 52.2411 59.74 51.3741C60.1141 50.5071 60.3066 49.5779 60.3064 48.6396V36.5479C60.3066 35.6096 60.1141 34.6803 59.74 33.8134C59.3658 32.9464 58.8173 32.1587 58.1258 31.4951C57.4343 30.8316 56.6133 30.3053 55.7098 29.9463C54.8062 29.5873 53.8378 29.4026 52.8599 29.4028H51.4271L49.4719 26.0128C49.1252 25.4309 48.3615 25.0059 47.3228 25.0059H36.6304ZM26.7017 30.1357C27.0027 30.1358 27.3007 30.1927 27.5788 30.3033C27.8568 30.414 28.1094 30.576 28.3222 30.7803C28.535 30.9846 28.7037 31.2271 28.8188 31.494C28.9339 31.7608 28.9931 32.0468 28.993 32.3356C28.9929 32.6244 28.9335 32.9104 28.8182 33.1772C28.7029 33.4439 28.534 33.6863 28.3211 33.8905C28.1082 34.0946 27.8555 34.2565 27.5774 34.367C27.2993 34.4774 27.0012 34.5342 26.7002 34.5341C26.0923 34.5339 25.5094 34.302 25.0797 33.8894C24.6501 33.4769 24.4088 32.9174 24.409 32.3341C24.4092 31.7509 24.6509 31.1916 25.0808 30.7793C25.5108 30.367 26.0939 30.1355 26.7017 30.1357ZM41.9766 30.7776C43.3934 30.7777 44.7962 31.0456 46.1051 31.5659C47.414 32.0862 48.6033 32.8488 49.6051 33.8101C50.6068 34.7715 51.4014 35.9127 51.9435 37.1687C52.4856 38.4247 52.7645 39.7709 52.7644 41.1303C52.7643 42.4897 52.4852 43.8358 51.9429 45.0917C51.4006 46.3477 50.6059 47.4888 49.604 48.45C48.6021 49.4112 47.4127 50.1736 46.1037 50.6938C44.7948 51.2139 43.3918 51.4816 41.975 51.4815C40.5582 51.4814 39.1552 51.2135 37.8462 50.6932C36.5372 50.1728 35.3478 49.4101 34.346 48.4487C32.3228 46.5071 31.1862 43.8738 31.1864 41.1281C31.1866 38.3824 32.3236 35.7492 34.3471 33.8079C36.3706 31.8665 39.1151 30.7774 41.9766 30.7776ZM41.9766 34.0753C41.0113 34.0753 40.0555 34.2578 39.1638 34.6122C38.272 34.9666 37.4617 35.4861 36.7792 36.141C36.0966 36.796 35.5552 37.5734 35.1858 38.4291C34.8164 39.2848 34.6263 40.2019 34.6263 41.1281C34.6263 42.0543 34.8164 42.9714 35.1858 43.8271C35.5552 44.6827 36.0966 45.4602 36.7792 46.1151C37.4617 46.77 38.272 47.2895 39.1638 47.644C40.0555 47.9984 41.0113 48.1808 41.9766 48.1808C43.9262 48.1808 45.7959 47.4377 47.1745 46.1149C48.5531 44.7921 49.3276 42.9981 49.3276 41.1274C49.3276 39.2567 48.5531 37.4626 47.1745 36.1398C45.7959 34.817 43.9262 34.0753 41.9766 34.0753Z" fill="white"/>
<defs>
<linearGradient id="paint0_linear_194_3298" x1="25.6" y1="72" x2="71.2" y2="12" gradientUnits="userSpaceOnUse">
<stop stop-color="#E69FFF"/>
<stop offset="1" stop-color="#C6A4FF"/>
</linearGradient>
</defs>
</svg>
