<svg width="30" height="24" viewBox="0 0 30 24" fill="none" xmlns="http://www.w3.org/2000/svg">
<path d="M26.4131 4.17391H23.2826L21.5544 1.56522C20.9022 0.586957 19.7609 0 18.587 0H11.4131C10.2391 0 9.09784 0.586957 8.44567 1.56522L6.71741 4.17391H3.58697C3.11554 4.17255 2.6485 4.2644 2.21269 4.44418C1.77689 4.62396 1.38092 4.88812 1.04757 5.22147C0.714222 5.55482 0.450061 5.95079 0.270282 6.38659C0.0905028 6.82239 -0.00134698 7.28944 1.49261e-05 7.76087V20.413C-0.00134698 20.8845 0.0905028 21.3515 0.270282 21.7873C0.450061 22.2231 0.714222 22.6191 1.04757 22.9524C1.38092 23.2858 1.77689 23.55 2.21269 23.7297C2.6485 23.9095 3.11554 24.0014 3.58697 24H26.4131C26.8845 24.0014 27.3515 23.9095 27.7873 23.7297C28.2231 23.55 28.6191 23.2858 28.9525 22.9524C29.2858 22.6191 29.55 22.2231 29.7297 21.7873C29.9095 21.3515 30.0014 20.8845 30 20.413V7.76087C30.0014 7.28944 29.9095 6.82239 29.7297 6.38659C29.55 5.95079 29.2858 5.55482 28.9525 5.22147C28.6191 4.88812 28.2231 4.62396 27.7873 4.44418C27.3515 4.2644 26.8845 4.17255 26.4131 4.17391ZM15 21.0652C10.5326 21.0652 6.91306 17.4457 6.91306 12.9783C6.91306 8.51087 10.5326 4.92391 15 4.92391C19.4674 4.92391 23.087 8.54348 23.087 13.0109C23.087 17.4457 19.4674 21.0652 15 21.0652ZM25.9565 9.22826H24.5218C23.9348 9.19565 23.4783 8.70652 23.5109 8.11956C23.5435 7.56522 23.9674 7.1413 24.5218 7.10869H25.8261C26.4131 7.07609 26.9022 7.53261 26.9348 8.11956C26.9674 8.70652 26.5435 9.19565 25.9565 9.22826Z" fill="white"/>
<path d="M15 8.51086C12.5217 8.51086 10.5 10.5326 10.5 13.0109C10.5 15.4891 12.5217 17.4783 15 17.4783C17.4783 17.4783 19.5 15.4565 19.5 12.9783C19.5 10.5 17.4783 8.51086 15 8.51086Z" fill="white"/>
</svg>
