<svg width="9" height="14" viewBox="0 0 9 14" fill="none" xmlns="http://www.w3.org/2000/svg">
<path fill-rule="evenodd" clip-rule="evenodd" d="M0.910981 0.577973C1.06725 0.421747 1.27918 0.333984 1.50015 0.333984C1.72112 0.333984 1.93304 0.421747 2.08931 0.577973L7.92265 6.41131C8.07887 6.56758 8.16664 6.7795 8.16664 7.00047C8.16664 7.22144 8.07887 7.43337 7.92265 7.58964L2.08931 13.423C1.93215 13.5748 1.72164 13.6588 1.50315 13.6569C1.28465 13.655 1.07564 13.5673 0.921132 13.4128C0.766625 13.2583 0.678985 13.0493 0.677086 12.8308C0.675187 12.6123 0.759183 12.4018 0.910981 12.2446L6.15515 7.00047L0.910981 1.75631C0.754755 1.60003 0.666992 1.38811 0.666992 1.16714C0.666992 0.94617 0.754755 0.734246 0.910981 0.577973Z" fill="white"/>
</svg>
