<svg width="20" height="20" viewBox="0 0 20 20" fill="none" xmlns="http://www.w3.org/2000/svg">
<path d="M5.5 6.50037C5.89397 6.50037 6.28407 6.42277 6.64805 6.27201C7.01203 6.12124 7.34275 5.90026 7.62132 5.62169C7.8999 5.34311 8.12088 5.01239 8.27164 4.64842C8.4224 4.28444 8.5 3.89433 8.5 3.50037C8.5 3.1064 8.4224 2.71629 8.27164 2.35232C8.12088 1.98834 7.8999 1.65762 7.62132 1.37905C7.34275 1.10047 7.01203 0.879492 6.64805 0.728728C6.28407 0.577963 5.89397 0.500366 5.5 0.500366C4.70435 0.500366 3.94129 0.816437 3.37868 1.37905C2.81607 1.94166 2.5 2.70472 2.5 3.50037C2.5 4.29602 2.81607 5.05908 3.37868 5.62169C3.94129 6.1843 4.70435 6.50037 5.5 6.50037ZM14.5 6.50037C14.894 6.50037 15.2841 6.42277 15.6481 6.27201C16.012 6.12124 16.3427 5.90026 16.6213 5.62169C16.8999 5.34311 17.1209 5.01239 17.2716 4.64842C17.4224 4.28444 17.5 3.89433 17.5 3.50037C17.5 3.1064 17.4224 2.71629 17.2716 2.35232C17.1209 1.98834 16.8999 1.65762 16.6213 1.37905C16.3427 1.10047 16.012 0.879492 15.6481 0.728728C15.2841 0.577963 14.894 0.500366 14.5 0.500366C13.7044 0.500366 12.9413 0.816437 12.3787 1.37905C11.8161 1.94166 11.5 2.70472 11.5 3.50037C11.5 4.29602 11.8161 5.05908 12.3787 5.62169C12.9413 6.1843 13.7044 6.50037 14.5 6.50037ZM0 9.22337C0 8.9971 0.0445666 8.77305 0.131156 8.564C0.217744 8.35496 0.34466 8.16502 0.504655 8.00502C0.664651 7.84503 0.854593 7.71811 1.06364 7.63152C1.27268 7.54493 1.49673 7.50037 1.723 7.50037H6.535C6.18343 8.10819 5.99885 8.79819 6 9.50037C5.99933 10.068 6.11976 10.6292 6.35325 11.1465C6.58674 11.6638 6.92792 12.1254 7.354 12.5004H6.223C5.74667 12.5002 5.27862 12.625 4.86563 12.8623C4.45264 13.0997 4.10915 13.4412 3.8695 13.8529C2.2585 13.5369 1.2795 12.7514 0.7095 11.8689C5.96047e-08 10.7704 0 9.63537 0 9.43887V9.22337ZM13.777 12.5004C14.2533 12.5002 14.7214 12.625 15.1344 12.8623C15.5474 13.0997 15.8908 13.4412 16.1305 13.8529C17.7415 13.5369 18.7205 12.7514 19.2905 11.8689C20 10.7704 20 9.63537 20 9.43887V9.22387C20.0001 8.99756 19.9555 8.77345 19.869 8.56435C19.7824 8.35525 19.6555 8.16525 19.4955 8.0052C19.3355 7.84515 19.1456 7.71819 18.9365 7.63157C18.7274 7.54495 18.5033 7.50037 18.277 7.50037H13.465C13.8166 8.10819 14.0011 8.79819 14 9.50037C14.0007 10.068 13.8802 10.6292 13.6468 11.1465C13.4133 11.6638 13.0721 12.1254 12.646 12.5004H13.777ZM13 9.50037C13 10.296 12.6839 11.0591 12.1213 11.6217C11.5587 12.1843 10.7957 12.5004 10 12.5004C9.20435 12.5004 8.44129 12.1843 7.87868 11.6217C7.31607 11.0591 7 10.296 7 9.50037C7 8.70472 7.31607 7.94166 7.87868 7.37905C8.44129 6.81644 9.20435 6.50037 10 6.50037C10.7957 6.50037 11.5587 6.81644 12.1213 7.37905C12.6839 7.94166 13 8.70472 13 9.50037ZM4.5 15.2234C4.5 14.7664 4.68153 14.3281 5.00466 14.005C5.32778 13.6819 5.76603 13.5004 6.223 13.5004H13.777C14.234 13.5004 14.6722 13.6819 14.9953 14.005C15.3185 14.3281 15.5 14.7664 15.5 15.2234V15.4389C15.5 15.6359 15.5 16.7704 14.7905 17.8689C14.049 19.0169 12.6165 20.0004 10 20.0004C7.3835 20.0004 5.951 19.0169 5.2095 17.8689C4.5 16.7704 4.5 15.6354 4.5 15.4389V15.2234Z" fill="white"/>
</svg>
