<svg width="55" height="55" viewBox="0 0 55 55" fill="none" xmlns="http://www.w3.org/2000/svg">
<mask id="mask0_1_7012" style="mask-type:alpha" maskUnits="userSpaceOnUse" x="0" y="0" width="55" height="55">
<circle cx="27.194" cy="27.194" r="27.194" fill="url(#paint0_linear_1_7012)"/>
</mask>
<g mask="url(#mask0_1_7012)">
<circle cx="27.194" cy="27.194" r="27.194" fill="#514DFB"/>
</g>
<path d="M26 29.5C26.6875 29.5 27.2762 29.2554 27.7663 28.7663C28.2563 28.2771 28.5008 27.6883 28.5 27C28.4992 26.3117 28.2546 25.7233 27.7663 25.235C27.2779 24.7467 26.6892 24.5017 26 24.5C25.3108 24.4983 24.7225 24.7433 24.235 25.235C23.7475 25.7267 23.5025 26.315 23.5 27C23.4975 27.685 23.7425 28.2738 24.235 28.7663C24.7275 29.2588 25.3158 29.5033 26 29.5ZM21 34.5H31V33.7812C31 33.2812 30.8646 32.8229 30.5938 32.4063C30.3229 31.9896 29.9479 31.6771 29.4688 31.4688C28.9271 31.2396 28.3696 31.0625 27.7963 30.9375C27.2229 30.8125 26.6242 30.75 26 30.75C25.3758 30.75 24.7771 30.8125 24.2037 30.9375C23.6304 31.0625 23.0729 31.2396 22.5313 31.4688C22.0521 31.6771 21.6771 31.9896 21.4062 32.4063C21.1354 32.8229 21 33.2812 21 33.7812V34.5ZM33.5 39.5H18.5C17.8125 39.5 17.2242 39.2554 16.735 38.7663C16.2458 38.2771 16.0008 37.6883 16 37V17C16 16.3125 16.245 15.7242 16.735 15.235C17.225 14.7458 17.8133 14.5008 18.5 14.5H27.4688C27.8021 14.5 28.12 14.5625 28.4225 14.6875C28.725 14.8125 28.9904 14.9896 29.2188 15.2188L35.2812 21.2813C35.5104 21.5104 35.6875 21.7763 35.8125 22.0788C35.9375 22.3813 36 22.6988 36 23.0313V37C36 37.6875 35.7554 38.2763 35.2663 38.7663C34.7771 39.2563 34.1883 39.5008 33.5 39.5Z" fill="white"/>
<defs>
<linearGradient id="paint0_linear_1_7012" x1="17.4042" y1="48.9493" x2="48.4054" y2="8.15821" gradientUnits="userSpaceOnUse">
<stop stop-color="#FFBC9F"/>
<stop offset="1" stop-color="#FFA0A0"/>
</linearGradient>
</defs>
</svg>
