<svg width="19" height="20" viewBox="0 0 19 20" fill="none" xmlns="http://www.w3.org/2000/svg">
<path d="M7.29172 16.25C5.33922 16.25 3.75 14.6608 3.75 12.7083V4.16675H2.29172C1.02754 4.16675 0 5.19409 0 6.45831V17.7083C0 18.9725 1.02754 20 2.29172 20H12.7083C13.9725 20 15 18.9725 15 17.7083V16.25H7.29172Z" fill="white"/>
<path d="M18.3333 2.29172C18.3333 1.02586 17.3074 0 16.0417 0H7.29172C6.02586 0 5 1.02586 5 2.29172V12.7083C5 13.9741 6.02586 15 7.29172 15H16.0417C17.3074 15 18.3333 13.9741 18.3333 12.7083V2.29172Z" fill="white"/>
</svg>
