<svg width="20" height="20" viewBox="0 0 20 20" fill="none" xmlns="http://www.w3.org/2000/svg">
<path d="M11.7455 2.99643L9.81695 1.06784C9.75892 1.0098 9.69002 0.963755 9.61418 0.932344C9.53835 0.900933 9.45708 0.884766 9.375 0.884766C9.29292 0.884766 9.21165 0.900933 9.13582 0.932344C9.05998 0.963755 8.99108 1.0098 8.93305 1.06784L8.125 1.87588L10.9375 4.68838L11.7455 3.88034C11.8036 3.8223 11.8496 3.7534 11.881 3.67757C11.9124 3.60174 11.9286 3.52046 11.9286 3.43838C11.9286 3.3563 11.9124 3.27503 11.881 3.1992C11.8496 3.12337 11.8036 3.05447 11.7455 2.99643Z" fill="#F2995C"/>
<path d="M3.75 12.8125L2.8125 13.75H1.875L0.9375 15.9375L1.5625 16.5625L3.75 15.625V14.6875L4.6875 13.75L3.75 12.8125Z" fill="#A0745C"/>
<path d="M3.56584 12.3708L7.83755 8.09904C7.95475 7.98185 8.1137 7.91602 8.27943 7.91602C8.44516 7.91602 8.60411 7.98185 8.7213 8.09904L9.39982 8.77755C9.51701 8.89475 9.58284 9.0537 9.58284 9.21943C9.58284 9.38516 9.51701 9.54411 9.39982 9.66131L5.1281 13.933C5.01091 14.0502 4.85196 14.116 4.68623 14.116C4.52049 14.116 4.36155 14.0502 4.24435 13.933L3.56584 13.2545C3.44865 13.1373 3.38281 12.9784 3.38281 12.8126C3.38281 12.6469 3.44865 12.488 3.56584 12.3708Z" fill="#F2995C"/>
<path d="M7.5 19.375H1.71875C1.42867 19.375 1.15047 19.2598 0.945352 19.0546C0.740234 18.8495 0.625 18.5713 0.625 18.2812C0.625 17.9912 0.740234 17.713 0.945352 17.5079C1.15047 17.3027 1.42867 17.1875 1.71875 17.1875H2.5V17.8125H1.71875C1.59443 17.8125 1.4752 17.8619 1.38729 17.9498C1.29939 18.0377 1.25 18.1569 1.25 18.2812C1.25 18.4056 1.29939 18.5248 1.38729 18.6127C1.4752 18.7006 1.59443 18.75 1.71875 18.75H7.5V19.375Z" fill="#A0745C"/>
<path d="M11.7455 2.99566L9.81695 1.06707C9.77489 1.02511 9.72705 0.989374 9.67488 0.960938C10.2832 1.72552 10.5888 2.68723 10.5335 3.66271C10.4782 4.63819 10.0658 5.55919 9.375 6.25012L11.7455 3.87957C11.8036 3.82153 11.8496 3.75263 11.881 3.6768C11.9124 3.60097 11.9286 3.5197 11.9286 3.43762C11.9286 3.35554 11.9124 3.27426 11.881 3.19843C11.8496 3.1226 11.8036 3.0537 11.7455 2.99566Z" fill="black" fill-opacity="0.0823529"/>
<path d="M8.93209 1.06888L5.12847 4.87251C4.88439 5.11659 4.88439 5.51232 5.12847 5.75639L7.05707 7.685C7.30115 7.92908 7.69688 7.92908 7.94095 7.685L11.7446 3.88137C11.9887 3.6373 11.9887 3.24157 11.7446 2.99749L9.81598 1.06888C9.5719 0.824807 9.17617 0.824807 8.93209 1.06888Z" fill="#E2803D"/>
<path d="M12.278 1.65605L13.5279 0.40625L13.9697 0.848125L12.7199 2.09793L12.278 1.65605ZM12.9029 3.21852L14.7775 1.34383L15.2194 1.7857L13.3447 3.66039L12.9029 3.21852ZM13.2151 5.09332L15.0898 3.21863L15.5317 3.66051L13.657 5.5352L13.2151 5.09332ZM2.54574 4.84539L3.08137 4.52352L4.0198 6.08516L3.48418 6.40703L2.54574 4.84539ZM0.878906 6.86852L1.00145 6.25539L2.56457 6.56773L2.44207 7.18086L0.878906 6.86852ZM1.40535 8.79078L2.96699 7.85234L3.28887 8.38797L1.72723 9.32641L1.40535 8.79078Z" fill="#FFD168"/>
<path d="M4.90457 16.2298L5.10207 15.6367L6.03988 15.949L5.84238 16.5421L4.90457 16.2298ZM3.52637 17.7205L3.96824 17.2787L4.59312 17.9036L4.15125 18.3454L3.52637 17.7205ZM5.08875 17.4083L5.53062 16.9664L6.15551 17.5913L5.71363 18.0332L5.08875 17.4083Z" fill="#D6B4AA"/>
<path d="M18.4375 9.375H17.8125C17.8122 9.12645 17.7134 8.88815 17.5376 8.7124C17.3618 8.53664 17.1236 8.43778 16.875 8.4375V7.8125C17.2893 7.81297 17.6864 7.97773 17.9793 8.27066C18.2723 8.56358 18.437 8.96074 18.4375 9.375Z" fill="#FFE7B1"/>
<path d="M8.75 11.1975C8.75 11.0317 8.68415 10.8727 8.56695 10.7555L5.625 7.81359L5.35039 8.0882C5.17459 8.26401 5.07583 8.50246 5.07583 8.75109C5.07583 8.99972 5.17459 9.23817 5.35039 9.41398L5.3125 9.37609H4.94637C4.78062 9.37609 4.62166 9.44194 4.50445 9.55914L3.08707 10.9765C3.00002 11.0635 2.93096 11.1669 2.88385 11.2806C2.83674 11.3944 2.8125 11.5163 2.8125 11.6394V12.1128C2.81251 12.3614 2.91129 12.5999 3.08711 12.7757L4.63387 14.3225C4.74994 14.4385 4.88774 14.5306 5.03941 14.5934C5.19107 14.6563 5.35362 14.6886 5.51777 14.6886H6.25L10.9375 19.3761H15L8.75 13.1261V11.1975ZM16.433 11.9897C16.3158 11.8725 16.25 11.7135 16.25 11.5478V9.63496C16.25 9.46921 16.1842 9.31025 16.067 9.19304L13.793 6.91914C13.7056 6.83165 13.6016 6.76235 13.4872 6.71522C13.3728 6.66809 13.2503 6.64407 13.1265 6.64454C13.0028 6.64501 12.8804 6.66997 12.7664 6.71797C12.6524 6.76597 12.549 6.83606 12.4621 6.92421L10.956 8.45371L11.0669 8.56464C11.1846 8.68256 11.3267 8.77325 11.4832 8.83035L9.84375 10.4698C9.71943 10.5942 9.64959 10.7628 9.64959 10.9386C9.64959 11.1144 9.71943 11.283 9.84375 11.4073C9.96807 11.5317 10.1367 11.6015 10.3125 11.6015C10.4883 11.6015 10.6569 11.5317 10.7812 11.4073C10.6569 11.5317 10.5871 11.7003 10.5871 11.8761C10.5871 12.0519 10.6569 12.2205 10.7812 12.3448C10.9056 12.4692 11.0742 12.539 11.25 12.539C11.4258 12.539 11.5944 12.4692 11.7188 12.3448C11.5944 12.4692 11.5246 12.6378 11.5246 12.8136C11.5246 12.9894 11.5944 13.158 11.7188 13.2823C11.8431 13.4067 12.0117 13.4765 12.1875 13.4765C12.3633 13.4765 12.5319 13.4067 12.6562 13.2823L12.9688 12.9698C12.8444 13.0942 12.7746 13.2628 12.7746 13.4386C12.7746 13.6144 12.8444 13.783 12.9688 13.9073C13.0931 14.0317 13.2617 14.1015 13.4375 14.1015C13.6133 14.1015 13.7819 14.0317 13.9062 13.9073L19.375 19.3761V14.9316L16.433 11.9897Z" fill="#FCDCC8"/>
<path d="M5.79084 9.41379C5.6688 9.29176 5.47094 9.29176 5.3489 9.41379C5.22686 9.53583 5.22686 9.7337 5.3489 9.85574L6.43155 10.9384C6.55359 11.0604 6.75145 11.0604 6.87349 10.9384C6.99553 10.8163 6.99553 10.6185 6.87349 10.4964L5.79084 9.41379Z" fill="#EFC8B4"/>
<path d="M11.7455 2.99643L9.81686 1.06784C9.75882 1.0098 9.68992 0.963755 9.61409 0.932344C9.53826 0.900933 9.45698 0.884766 9.37491 0.884766C9.29283 0.884766 9.21155 0.900933 9.13572 0.932344C9.05989 0.963755 8.99099 1.0098 8.93295 1.06784L8.12491 1.87588L10.9374 4.68838L11.7455 3.88034C11.8035 3.8223 11.8495 3.7534 11.8809 3.67757C11.9124 3.60174 11.9285 3.52046 11.9285 3.43838C11.9285 3.3563 11.9124 3.27503 11.8809 3.1992C11.8495 3.12337 11.8035 3.05447 11.7455 2.99643ZM5.12936 5.75533L7.05795 7.68393C7.11599 7.74197 7.18489 7.78801 7.26072 7.81942C7.33655 7.85083 7.41783 7.867 7.49991 7.867C7.58198 7.867 7.66326 7.85083 7.73909 7.81942C7.81492 7.78801 7.88382 7.74197 7.94186 7.68393L8.74991 6.87588L5.93741 4.06338L5.12936 4.87143C5.07132 4.92947 5.02528 4.99837 4.99387 5.0742C4.96246 5.15003 4.94629 5.2313 4.94629 5.31338C4.94629 5.39546 4.96246 5.47674 4.99387 5.55257C5.02528 5.6284 5.07132 5.6973 5.12936 5.75533Z" fill="#F2995C"/>
<path d="M10.3125 5.3125L9.0625 6.5625L14.1161 11.6161C14.1982 11.6982 14.2956 11.7633 14.4029 11.8077C14.5101 11.8522 14.6251 11.875 14.7411 11.875C14.8572 11.875 14.9721 11.8522 15.0794 11.8077C15.1866 11.7633 15.2841 11.6982 15.3661 11.6161C15.4482 11.5341 15.5133 11.4366 15.5577 11.3294C15.6022 11.2221 15.625 11.1072 15.625 10.9911C15.625 10.8751 15.6022 10.7601 15.5577 10.6529C15.5133 10.5456 15.4482 10.4482 15.3661 10.3661L10.3125 5.3125Z" fill="#A0745C"/>
<path d="M12.0283 10.1563L10.7783 11.4062C10.5194 11.6651 10.5194 12.0849 10.7783 12.3437C11.0372 12.6026 11.4569 12.6026 11.7158 12.3437L12.9658 11.0938C13.2247 10.8349 13.2247 10.4151 12.9658 10.1562C12.7069 9.89737 12.2872 9.89737 12.0283 10.1563Z" fill="#F4D1BD"/>
<path d="M11.0918 9.21876L9.84181 10.4687C9.58292 10.7276 9.58291 11.1474 9.8418 11.4062C10.1007 11.6651 10.5204 11.6651 10.7793 11.4062L12.0293 10.1563C12.2882 9.89737 12.2882 9.47763 12.0293 9.21875C11.7704 8.95986 11.3507 8.95987 11.0918 9.21876Z" fill="#F4D1BD"/>
<path d="M13.9033 12.0313L12.9658 12.9687C12.7069 13.2276 12.7069 13.6474 12.9658 13.9062C13.2247 14.1651 13.6444 14.1651 13.9033 13.9062L14.8408 12.9688C15.0997 12.7099 15.0997 12.2901 14.8408 12.0313C14.5819 11.7724 14.1622 11.7724 13.9033 12.0313Z" fill="#F4D1BD"/>
<path d="M12.9658 11.0938L11.7158 12.3437C11.4569 12.6026 11.4569 13.0224 11.7158 13.2812C11.9747 13.5401 12.3944 13.5401 12.6533 13.2812L13.9033 12.0313C14.1622 11.7724 14.1622 11.3526 13.9033 11.0937C13.6444 10.8349 13.2247 10.8349 12.9658 11.0938Z" fill="#F4D1BD"/>
<path d="M12.5242 11.094L11.7161 11.9021C11.594 12.0241 11.594 12.222 11.7161 12.344C11.8381 12.4661 12.036 12.4661 12.158 12.344L12.9661 11.536C13.0881 11.4139 13.0881 11.2161 12.9661 11.094C12.8441 10.972 12.6462 10.972 12.5242 11.094Z" fill="#EABFAC"/>
<path d="M11.5867 10.1565L10.7786 10.9646C10.6565 11.0866 10.6565 11.2845 10.7786 11.4065C10.9006 11.5286 11.0985 11.5286 11.2205 11.4065L12.0286 10.5985C12.1506 10.4764 12.1506 10.2786 12.0286 10.1565C11.9066 10.0345 11.7087 10.0345 11.5867 10.1565Z" fill="#EABFAC"/>
<path d="M13.4617 12.0315L12.6536 12.8396C12.5315 12.9616 12.5315 13.1595 12.6536 13.2815C12.7756 13.4036 12.9735 13.4036 13.0955 13.2815L13.9036 12.4735C14.0256 12.3514 14.0256 12.1536 13.9036 12.0315C13.7816 11.9095 13.5837 11.9095 13.4617 12.0315Z" fill="#EABFAC"/>
<path d="M13.7931 6.91912C13.7056 6.83163 13.6017 6.76233 13.4873 6.71521C13.3729 6.66808 13.2503 6.64406 13.1266 6.64454C13.0029 6.64501 12.8805 6.66997 12.7665 6.71798C12.6524 6.76598 12.549 6.83608 12.4622 6.92423L10.9561 8.45373L11.067 8.56466C11.2818 8.77942 11.573 8.90007 11.8768 8.90007C12.1805 8.90007 12.4718 8.77942 12.6865 8.56466L13.1251 8.12611L14.0905 9.73513C14.1762 9.87789 14.2996 9.99423 14.4472 10.0713C14.5947 10.1484 14.7607 10.1832 14.9268 10.1719C15.0929 10.1607 15.2527 10.1037 15.3885 10.0074C15.5243 9.91111 15.6309 9.77917 15.6965 9.62615C15.7677 9.46009 15.7874 9.27651 15.7533 9.0991C15.7191 8.92169 15.6326 8.75858 15.5048 8.63084L13.7931 6.91912Z" fill="#FCDCC8"/>
<path d="M19.375 8.125C19.3746 7.79359 19.2428 7.47587 19.0085 7.24153C18.7741 7.00719 18.4564 6.87537 18.125 6.875V7.5C18.2907 7.50019 18.4496 7.56609 18.5667 7.68326C18.6839 7.80043 18.7498 7.9593 18.75 8.125H19.375Z" fill="#FFE7B1"/>
</svg>
