<svg width="24" height="22" viewBox="0 0 24 22" fill="none" xmlns="http://www.w3.org/2000/svg">
<path fillRule="evenodd" clipRule="evenodd" d="M13.1933 3.08987C15.7789 3.08987 17.8749 5.18588 17.8749 7.77151C17.8749 10.126 16.513 10.2211 16.0884 13.0639L15.7451 12.9114L14.6078 14.0488H14.3767V9.26884H15.0896C15.895 9.26884 16.5526 8.61132 16.5526 7.80592C16.5526 7.00056 15.895 6.34299 15.0896 6.34299C14.2843 6.34299 13.6267 7.00056 13.6267 7.80592V8.51884H12.7598V7.80592C12.7598 7.00056 12.1022 6.34299 11.2969 6.34299C10.4915 6.34299 9.83396 7.00056 9.83396 7.80592C9.83396 8.61127 10.4915 9.26884 11.2969 9.26884H12.0098V14.0488H10.3978C10.1726 10.2162 8.51157 10.3716 8.51157 7.77151C8.51171 5.18593 10.6077 3.08987 13.1933 3.08987ZM6.18943 11.0088C4.65024 11.0088 3.40247 12.2566 3.40247 13.7957C3.40247 15.3349 4.65024 16.5826 6.18943 16.5826C7.72861 16.5826 8.97633 15.3349 8.97633 13.7957C8.97638 12.2566 7.72861 11.0088 6.18943 11.0088ZM1.25836 21.9704H11.1204C11.1904 21.9707 11.2596 21.9553 11.3228 21.9252C11.3861 21.8952 11.4417 21.8514 11.4858 21.7969C11.5298 21.7425 11.561 21.6788 11.5771 21.6107C11.5932 21.5426 11.5938 21.4717 11.5789 21.4033C11.046 18.9162 8.83557 17.0514 6.18938 17.0514C3.54315 17.0514 1.33271 18.9162 0.799833 21.4033C0.78489 21.4717 0.785503 21.5426 0.801628 21.6107C0.817753 21.6788 0.848978 21.7425 0.892995 21.7969C0.937012 21.8514 0.992698 21.8952 1.05594 21.9252C1.11918 21.9553 1.18836 21.9707 1.25836 21.9704ZM22.4588 16.5399C22.3635 16.14 22.2051 15.7578 21.9895 15.4078L22.316 14.6726L21.4493 13.8059L20.7138 14.1325C20.3639 13.917 19.9819 13.7586 19.5821 13.6633L19.2932 12.9128H18.0674L17.7785 13.6633C17.3787 13.7586 16.9967 13.917 16.6468 14.1325L15.9113 13.8059L15.0446 14.6727L15.3712 15.4081C15.1556 15.758 14.9972 16.1401 14.9019 16.5399L14.1515 16.8287V18.0545L14.9018 18.3433C14.9971 18.7432 15.1555 19.1254 15.3711 19.4754L15.0446 20.2106L15.9113 21.0774L16.6468 20.7507C16.9967 20.9663 17.3787 21.1247 17.7785 21.2199L18.0674 21.9704H19.2931L19.5819 21.22C19.9819 21.1248 20.364 20.9664 20.714 20.7508L21.4492 21.0773L22.316 20.2105L21.9893 19.4751C22.2049 19.1252 22.3633 18.7432 22.4585 18.3434L23.209 18.0545V16.8287L22.4588 16.5399ZM18.6803 19.5794C17.4995 19.5794 16.5425 18.6224 16.5425 17.4416C16.5425 16.2609 17.4995 15.3039 18.6803 15.3039C19.861 15.3039 20.818 16.2609 20.818 17.4416C20.818 18.6224 19.861 19.5794 18.6803 19.5794ZM13.5683 1.50732C13.5683 1.60678 13.5288 1.70216 13.4585 1.77249C13.3882 1.84281 13.2928 1.88232 13.1933 1.88232C13.0939 1.88232 12.9985 1.84281 12.9282 1.77249C12.8579 1.70216 12.8183 1.60678 12.8183 1.50732V0.404541C12.8183 0.305085 12.8579 0.209702 12.9282 0.139376C12.9985 0.0690498 13.0939 0.029541 13.1933 0.029541C13.2928 0.029541 13.3882 0.0690498 13.4585 0.139376C13.5288 0.209702 13.5683 0.305085 13.5683 0.404541V1.50732ZM19.4967 5.36209C19.4109 5.41094 19.3093 5.42389 19.214 5.39811C19.1186 5.37233 19.0374 5.30992 18.9879 5.22448C18.9384 5.13904 18.9247 5.0375 18.9498 4.942C18.9748 4.84649 19.0367 4.76477 19.1217 4.71465L20.0768 4.16326C20.1626 4.11441 20.2642 4.10146 20.3595 4.12724C20.4548 4.15301 20.5361 4.21543 20.5856 4.30087C20.6351 4.38631 20.6488 4.48785 20.6237 4.58335C20.5986 4.67885 20.5368 4.76058 20.4518 4.8107L19.4967 5.36209ZM17.0481 2.64095C16.9979 2.72602 16.9162 2.78782 16.8207 2.81289C16.7252 2.83796 16.6237 2.82425 16.5382 2.77477C16.4528 2.72528 16.3904 2.64402 16.3646 2.54871C16.3388 2.45339 16.3518 2.35175 16.4006 2.26595L16.952 1.31092C17.0021 1.22585 17.0839 1.16404 17.1794 1.13897C17.2749 1.1139 17.3764 1.12761 17.4618 1.1771C17.5473 1.22658 17.6097 1.30784 17.6355 1.40316C17.6613 1.49847 17.6483 1.60011 17.5995 1.68592L17.0481 2.64095ZM7.26347 4.71456C7.34728 4.76492 7.408 4.84615 7.43257 4.94079C7.45715 5.03543 7.44363 5.13593 7.39491 5.22071C7.3462 5.30549 7.26617 5.36779 7.17203 5.39421C7.07789 5.42064 6.97714 5.40909 6.89143 5.36204L5.9364 4.81065C5.85259 4.76028 5.79187 4.67906 5.7673 4.58442C5.74272 4.48978 5.75624 4.38927 5.80496 4.30449C5.85367 4.21971 5.93369 4.15742 6.02783 4.131C6.12197 4.10457 6.22272 4.11612 6.30844 4.16317L7.26347 4.71456ZM9.98607 2.2674C10.034 2.35318 10.0463 2.45442 10.0201 2.54916C9.99392 2.64389 9.93144 2.72449 9.84622 2.77346C9.761 2.82243 9.6599 2.83582 9.56487 2.81073C9.46984 2.78564 9.38853 2.7241 9.33858 2.63945L8.78724 1.68446C8.73925 1.59868 8.72703 1.49744 8.75321 1.40271C8.77939 1.30797 8.84187 1.22737 8.92709 1.17841C9.01231 1.12944 9.1134 1.11604 9.20843 1.14113C9.30347 1.16622 9.38478 1.22776 9.43472 1.31242L9.98607 2.2674ZM13.6268 14.0488V9.26884H12.7599V14.0488H13.6268ZM12.0099 8.51884V7.80592C12.0099 7.41456 11.6883 7.09299 11.297 7.09299C10.9056 7.09299 10.5841 7.41456 10.5841 7.80592C10.5841 8.19728 10.9057 8.51884 11.297 8.51884H12.0099ZM14.3768 8.51884H15.0897C15.481 8.51884 15.8026 8.19728 15.8026 7.80592C15.8026 7.41456 15.481 7.09299 15.0897 7.09299C14.6984 7.09299 14.3768 7.41456 14.3768 7.80592V8.51884ZM11.9389 17.8419V17.8528C11.9389 18.2712 12.2813 18.6135 12.6997 18.6135H13.516L13.4015 18.5694V17.8419H11.9389ZM13.4015 16.3204V17.0919H11.9195C11.501 17.0919 11.1587 16.7496 11.1587 16.3312V16.3204L13.4015 16.3204ZM10.3979 14.7988H14.2799L14.5341 15.3712C14.5013 15.4369 14.47 15.5033 14.4404 15.5704H11.1586C10.7402 15.5704 10.3979 15.2281 10.3979 14.8097V14.7988H10.3979Z" fill="white"/>
</svg>
