<svg width="24" height="18" viewBox="0 0 24 18" fill="none" xmlns="http://www.w3.org/2000/svg">
<path d="M20.2076 6.50401L16.4156 8.85601L13.3916 4.68001C12.9596 4.96801 12.4796 5.11201 11.9516 5.11201C11.4716 5.11201 10.9436 4.96801 10.5116 4.68001L7.48763 8.80801L3.69562 6.45601C3.40762 6.98401 2.87962 7.32001 2.25562 7.41601L3.83963 14.04H19.9196L21.5036 7.41601C21.0236 7.36801 20.4956 6.98401 20.2076 6.50401ZM11.9516 13.608C11.0396 13.608 10.3196 12.6 10.3196 11.4C10.3196 10.2 11.0396 9.19201 11.9516 9.19201C12.8636 9.19201 13.5836 10.2 13.5836 11.4C13.5836 12.648 12.8636 13.608 11.9516 13.608ZM4.07963 14.568V16.248C4.07963 16.728 4.46362 17.16 4.99162 17.16H19.0556C19.5356 17.16 19.9676 16.776 19.9676 16.248V14.568H4.07963ZM21.9356 6.98401C21.0716 6.98401 20.3996 6.26401 20.3996 5.44801C20.3996 4.24801 21.7436 3.48001 22.7516 4.10401C24.0956 4.92001 23.5196 6.98401 21.9356 6.98401ZM3.59963 5.44801C3.59963 6.31201 2.92762 6.98401 2.06362 6.98401C-0.000375032 6.98401 -0.000375032 3.86401 2.06362 3.86401C2.92762 3.91201 3.59963 4.58401 3.59963 5.44801Z" fill="white"/>
<path d="M13.9201 2.76005C13.9201 5.30405 10.0801 5.30405 10.0801 2.76005C10.0801 0.216051 13.9201 0.216051 13.9201 2.76005ZM12.4321 9.86405C11.6641 9.24005 10.7041 10.2001 10.7041 11.4481C10.7041 12.2161 11.1361 13.1761 11.9041 13.1761C12.5281 13.1761 13.1041 12.3601 13.1041 11.4481C13.1041 10.7281 12.8641 10.1521 12.4321 9.86405ZM11.7601 10.2481C11.7601 10.2481 11.2321 10.5841 11.2321 11.6401V12.0241C11.2321 12.0721 11.1841 12.1201 11.1361 12.1681C11.0881 12.1681 11.0401 12.1201 11.0401 12.0721C10.8961 10.5841 11.6641 10.1041 11.6641 10.1041C11.7121 10.0561 11.8081 10.1041 11.8081 10.1521C11.8561 10.1521 11.8081 10.2481 11.7601 10.2481Z" fill="white"/>
</svg>
