<svg width="18" height="18" viewBox="0 0 18 18" fill="none" xmlns="http://www.w3.org/2000/svg">
<path d="M1 10.0005H7C7.55 10.0005 8 9.55049 8 9.00049V1.00049C8 0.450488 7.55 0.000488281 7 0.000488281H1C0.45 0.000488281 0 0.450488 0 1.00049V9.00049C0 9.55049 0.45 10.0005 1 10.0005ZM1 18.0005H7C7.55 18.0005 8 17.5505 8 17.0005V13.0005C8 12.4505 7.55 12.0005 7 12.0005H1C0.45 12.0005 0 12.4505 0 13.0005V17.0005C0 17.5505 0.45 18.0005 1 18.0005ZM11 18.0005H17C17.55 18.0005 18 17.5505 18 17.0005V9.00049C18 8.45049 17.55 8.00049 17 8.00049H11C10.45 8.00049 10 8.45049 10 9.00049V17.0005C10 17.5505 10.45 18.0005 11 18.0005ZM10 1.00049V5.00049C10 5.55049 10.45 6.00049 11 6.00049H17C17.55 6.00049 18 5.55049 18 5.00049V1.00049C18 0.450488 17.55 0.000488281 17 0.000488281H11C10.45 0.000488281 10 0.450488 10 1.00049Z" fill="white"/>
</svg>
