<svg width="22" height="22" viewBox="0 0 22 22" fill="none" xmlns="http://www.w3.org/2000/svg">
<path d="M14.3091 5.04091V14.3542C14.3091 14.7209 14.1991 15.0784 13.9974 15.3809L11.4949 19.1026C11.1008 19.6984 10.1199 20.1201 9.28577 19.8084C8.38743 19.5059 7.7916 18.4976 7.9841 17.5992L8.46077 14.6017C8.49743 14.3267 8.4241 14.0792 8.26827 13.8867C8.11243 13.7126 7.88327 13.6026 7.63577 13.6026H3.86827C3.1441 13.6026 2.52077 13.3092 2.1541 12.7959C1.80577 12.3009 1.7416 11.6592 1.97077 11.0084L4.22577 4.14258C4.50993 3.00591 5.74743 2.08008 6.97577 2.08008H10.5508C11.1649 2.08008 12.0266 2.29091 12.4208 2.68508L13.5941 3.59258C14.0433 3.94091 14.3091 4.47258 14.3091 5.04091Z" fill="white"/>
<path d="M17.2239 16.143H18.1681C19.5889 16.143 20.1664 15.593 20.1664 14.2364V5.02385C20.1664 3.66719 19.5889 3.11719 18.1681 3.11719H17.2239C15.8031 3.11719 15.2256 3.66719 15.2256 5.02385V14.2455C15.2256 15.593 15.8031 16.143 17.2239 16.143Z" fill="white"/>
</svg>
