<svg width="38" height="38" viewBox="0 0 38 38" fill="none" xmlns="http://www.w3.org/2000/svg">
<circle cx="19" cy="19" r="19" fill="white"/>
<g clip-path="url(#clip0_725_9944)">
<path fill-rule="evenodd" clip-rule="evenodd" d="M12.7143 11C12.2596 11 11.8236 11.1806 11.5021 11.5021C11.1806 11.8236 11 12.2596 11 12.7143V19.5714C11 20.0261 11.1806 20.4621 11.5021 20.7836C11.8236 21.1051 12.2596 21.2857 12.7143 21.2857H25.2857C25.7404 21.2857 26.1764 21.1051 26.4979 20.7836C26.8194 20.4621 27 20.0261 27 19.5714V12.7143C27 12.2596 26.8194 11.8236 26.4979 11.5021C26.1764 11.1806 25.7404 11 25.2857 11H12.7143ZM19.7143 12.6617C19.7143 12.4723 19.639 12.2906 19.5051 12.1566C19.3711 12.0227 19.1894 11.9474 19 11.9474C18.8106 11.9474 18.6289 12.0227 18.4949 12.1566C18.361 12.2906 18.2857 12.4723 18.2857 12.6617V13.1189C17.8744 13.1671 17.4935 13.3595 17.2107 13.6619C16.9278 13.9644 16.7613 14.3573 16.7408 14.7709C16.7202 15.1845 16.8469 15.592 17.0984 15.921C17.3499 16.25 17.7098 16.4793 18.1143 16.568L19.4823 16.8663C19.5924 16.8872 19.6906 16.9488 19.7574 17.0389C19.8241 17.129 19.8544 17.2409 19.8423 17.3523C19.8302 17.4638 19.7765 17.5666 19.692 17.6402C19.6075 17.7139 19.4983 17.753 19.3863 17.7497H18.6137C18.5213 17.75 18.4311 17.7216 18.3555 17.6684C18.2799 17.6151 18.2228 17.5397 18.192 17.4526C18.1245 17.28 17.9925 17.1405 17.824 17.0634C17.6556 16.9863 17.4637 16.9777 17.289 17.0394C17.1143 17.1011 16.9704 17.2282 16.8877 17.394C16.805 17.5599 16.7899 17.7513 16.8457 17.928C17.0674 18.5566 17.6149 19.0309 18.2857 19.1497V19.624C18.2857 19.8134 18.361 19.9951 18.4949 20.1291C18.6289 20.263 18.8106 20.3383 19 20.3383C19.1894 20.3383 19.3711 20.263 19.5051 20.1291C19.639 19.9951 19.7143 19.8134 19.7143 19.624V19.1486C20.1419 19.0728 20.5299 18.851 20.8122 18.521C21.0945 18.1911 21.2535 17.7733 21.2621 17.3392C21.2708 16.905 21.1285 16.4813 20.8595 16.1404C20.5906 15.7995 20.2117 15.5624 19.7874 15.4697L18.4194 15.1714C18.3415 15.1551 18.2724 15.1103 18.2256 15.0459C18.1787 14.9814 18.1576 14.9019 18.1661 14.8227C18.1746 14.7435 18.2123 14.6703 18.2718 14.6173C18.3313 14.5643 18.4083 14.5354 18.488 14.536H19.3863C19.4788 14.5354 19.5692 14.5637 19.6448 14.6169C19.7204 14.6702 19.7775 14.7458 19.808 14.8331C19.8369 14.9245 19.8838 15.0091 19.946 15.082C20.0083 15.1549 20.0845 15.2144 20.1703 15.2572C20.256 15.3 20.3495 15.3251 20.4451 15.331C20.5408 15.3369 20.6366 15.3235 20.727 15.2916C20.8173 15.2596 20.9003 15.2099 20.9711 15.1452C21.0418 15.0806 21.0988 15.0024 21.1386 14.9152C21.1785 14.8281 21.2004 14.7338 21.2031 14.6381C21.2058 14.5423 21.1892 14.4469 21.1543 14.3577C21.0439 14.0448 20.8524 13.7669 20.5994 13.5522C20.3464 13.3376 20.041 13.194 19.7143 13.136V12.6617ZM14.1429 15.2857C14.3702 15.2857 14.5882 15.376 14.7489 15.5368C14.9097 15.6975 15 15.9155 15 16.1429C15 16.3702 14.9097 16.5882 14.7489 16.7489C14.5882 16.9097 14.3702 17 14.1429 17C13.9155 17 13.6975 16.9097 13.5368 16.7489C13.376 16.5882 13.2857 16.3702 13.2857 16.1429C13.2857 15.9155 13.376 15.6975 13.5368 15.5368C13.6975 15.376 13.9155 15.2857 14.1429 15.2857ZM23.8571 15.2857C24.0845 15.2857 24.3025 15.376 24.4632 15.5368C24.624 15.6975 24.7143 15.9155 24.7143 16.1429C24.7143 16.3702 24.624 16.5882 24.4632 16.7489C24.3025 16.9097 24.0845 17 23.8571 17C23.6298 17 23.4118 16.9097 23.2511 16.7489C23.0903 16.5882 23 16.3702 23 16.1429C23 15.9155 23.0903 15.6975 23.2511 15.5368C23.4118 15.376 23.6298 15.2857 23.8571 15.2857ZM16.1429 22.2857C16.5371 22.2857 16.8571 22.6057 16.8571 23V25.2857C16.8571 25.4752 16.7819 25.6568 16.6479 25.7908C16.514 25.9247 16.3323 26 16.1429 26C15.9534 26 15.7717 25.9247 15.6378 25.7908C15.5038 25.6568 15.4286 25.4752 15.4286 25.2857V23C15.4286 22.6057 15.7486 22.2857 16.1429 22.2857ZM22.5714 23C22.5714 22.9062 22.553 22.8133 22.5171 22.7267C22.4812 22.64 22.4285 22.5612 22.3622 22.4949C22.2959 22.4286 22.2171 22.376 22.1305 22.3401C22.0438 22.3042 21.9509 22.2857 21.8571 22.2857C21.7633 22.2857 21.6705 22.3042 21.5838 22.3401C21.4971 22.376 21.4184 22.4286 21.3521 22.4949C21.2857 22.5612 21.2331 22.64 21.1972 22.7267C21.1613 22.8133 21.1429 22.9062 21.1429 23V25.2857C21.1429 25.3795 21.1613 25.4724 21.1972 25.5591C21.2331 25.6457 21.2857 25.7245 21.3521 25.7908C21.4184 25.8571 21.4971 25.9097 21.5838 25.9456C21.6705 25.9815 21.7633 26 21.8571 26C21.9509 26 22.0438 25.9815 22.1305 25.9456C22.2171 25.9097 22.2959 25.8571 22.3622 25.7908C22.4285 25.7245 22.4812 25.6457 22.5171 25.5591C22.553 25.4724 22.5714 25.3795 22.5714 25.2857V23ZM19.7143 23.8571C19.7143 23.6677 19.639 23.486 19.5051 23.3521C19.3711 23.2181 19.1894 23.1429 19 23.1429C18.8106 23.1429 18.6289 23.2181 18.4949 23.3521C18.361 23.486 18.2857 23.6677 18.2857 23.8571V26.1429C18.2857 26.3323 18.361 26.514 18.4949 26.6479C18.6289 26.7819 18.8106 26.8571 19 26.8571C19.1894 26.8571 19.3711 26.7819 19.5051 26.6479C19.639 26.514 19.7143 26.3323 19.7143 26.1429V23.8571Z" fill="#504DFB"/>
</g>
<defs>
<clipPath id="clip0_725_9944">
<rect width="16" height="16" fill="white" transform="translate(11 11)"/>
</clipPath>
</defs>
</svg>
