<svg width="18" height="18" viewBox="0 0 18 18" fill="none" xmlns="http://www.w3.org/2000/svg">
<path d="M16.1589 12.0456C15.9479 12.2565 15.6618 12.375 15.3635 12.375C15.0652 12.375 14.7791 12.2565 14.5681 12.0456L8.9994 6.47687L3.43065 12.0456C3.21847 12.2505 2.93429 12.3639 2.63932 12.3614C2.34435 12.3588 2.06218 12.2405 1.8536 12.0319C1.64502 11.8233 1.5267 11.5412 1.52414 11.2462C1.52157 10.9512 1.63497 10.667 1.8399 10.4549L8.20402 4.09074C8.41499 3.87984 8.70109 3.76136 8.9994 3.76136C9.29771 3.76136 9.5838 3.87984 9.79477 4.09074L16.1589 10.4549C16.3698 10.6658 16.4883 10.9519 16.4883 11.2502C16.4883 11.5486 16.3698 11.8346 16.1589 12.0456Z" fill="#949494"/>
</svg>
