<svg width="16" height="10" viewBox="0 0 16 10" fill="none" xmlns="http://www.w3.org/2000/svg">
<path d="M0.841104 0.954385C1.05207 0.74348 1.33817 0.625 1.63648 0.625C1.93479 0.625 2.22088 0.74348 2.43185 0.954385L8.0006 6.52313L13.5694 0.954385C13.7815 0.749457 14.0657 0.636063 14.3607 0.638626C14.6557 0.641189 14.9378 0.759505 15.1464 0.968089C15.355 1.17667 15.4733 1.45884 15.4759 1.75381C15.4784 2.04878 15.365 2.33296 15.1601 2.54513L8.79598 8.90926C8.58501 9.12016 8.29891 9.23864 8.0006 9.23864C7.70229 9.23864 7.4162 9.12016 7.20523 8.90926L0.841104 2.54513C0.630199 2.33417 0.511719 2.04807 0.511719 1.74976C0.511719 1.45145 0.630199 1.16535 0.841104 0.954385Z" fill="white"/>
</svg>
