<svg width="38" height="38" viewBox="0 0 38 38" fill="none" xmlns="http://www.w3.org/2000/svg">
<circle cx="19" cy="19" r="19" fill="white"/>
<path d="M10.2244 22.0266L9.00757 14.1177C8.98778 13.9882 9.007 13.8557 9.06278 13.7371C9.11856 13.6185 9.20837 13.5192 9.32079 13.4519C9.4332 13.3845 9.56312 13.3521 9.694 13.3588C9.82487 13.3656 9.95078 13.4111 10.0557 13.4897L13.8468 16.3326C13.9453 16.4066 14.0578 16.4596 14.1775 16.4885C14.2972 16.5175 14.4216 16.5217 14.543 16.5009C14.6644 16.4801 14.7802 16.4348 14.8835 16.3677C14.9868 16.3006 15.0753 16.2131 15.1436 16.1106L18.2999 11.3741C18.3769 11.259 18.481 11.1646 18.6031 11.0994C18.7252 11.0341 18.8615 11 19 11C19.1385 11 19.2748 11.0341 19.3969 11.0994C19.519 11.1646 19.6231 11.259 19.7001 11.3741L22.8564 16.108C22.9247 16.2104 23.0132 16.2979 23.1165 16.365C23.2198 16.4321 23.3356 16.4774 23.457 16.4982C23.5784 16.519 23.7028 16.5148 23.8225 16.4859C23.9422 16.4569 24.0547 16.4039 24.1532 16.33L27.9443 13.487C28.0492 13.4085 28.1751 13.3629 28.306 13.3562C28.4369 13.3494 28.5668 13.3818 28.6792 13.4492C28.7916 13.5165 28.8814 13.6158 28.9372 13.7344C28.993 13.853 29.0122 13.9855 28.9924 14.1151L27.7756 22.0239L10.2244 22.0266ZM10.2244 23.4894H27.777V25.4997C27.777 25.6199 27.7533 25.7389 27.7073 25.85C27.6613 25.961 27.5938 26.062 27.5088 26.147C27.4238 26.232 27.3229 26.2994 27.2118 26.3454C27.1008 26.3914 26.9817 26.4151 26.8615 26.4151H11.1398C11.0196 26.4151 10.9005 26.3914 10.7895 26.3454C10.6784 26.2994 10.5775 26.232 10.4925 26.147C10.3208 25.9753 10.2244 25.7424 10.2244 25.4997V23.4894Z" fill="#504DFB"/>
</svg>
