<svg width="40" height="40" viewBox="0 0 40 40" fill="none" xmlns="http://www.w3.org/2000/svg">
<g filter="url(#filter0_b_216_5409)">
<rect width="40" height="40" rx="10" fill="white" fill-opacity="0.1"/>
</g>
<g clip-path="url(#clip0_216_5409)">
<path d="M20.8961 9.58619C21.0012 9.58619 21.1021 9.54441 21.1765 9.47004C21.2509 9.39567 21.2926 9.2948 21.2926 9.18962V8.39657C21.2926 8.29139 21.2509 8.19052 21.1765 8.11615C21.1021 8.04178 21.0012 8 20.8961 8C20.7909 8 20.69 8.04178 20.6156 8.11615C20.5413 8.19052 20.4995 8.29139 20.4995 8.39657V9.18967C20.4995 9.24174 20.5098 9.29331 20.5297 9.34142C20.5496 9.38953 20.5788 9.43325 20.6156 9.47007C20.6525 9.50689 20.6962 9.5361 20.7443 9.55602C20.7924 9.57595 20.844 9.5862 20.8961 9.58619ZM23.2754 9.98276C23.3805 9.98276 23.4814 9.94098 23.5558 9.86661C23.6301 9.79224 23.6719 9.69137 23.6719 9.58619V8.7931C23.6719 8.68792 23.6301 8.58705 23.5558 8.51268C23.4814 8.43831 23.3805 8.39653 23.2754 8.39653C23.1702 8.39653 23.0693 8.43831 22.9949 8.51268C22.9206 8.58705 22.8788 8.68792 22.8788 8.7931V9.58619C22.8788 9.69137 22.9206 9.79223 22.9949 9.8666C23.0693 9.94096 23.1702 9.98275 23.2754 9.98276ZM18.5167 9.98276C18.6219 9.98276 18.7228 9.94098 18.7971 9.86661C18.8715 9.79224 18.9133 9.69137 18.9133 9.58619V8.7931C18.9133 8.68792 18.8715 8.58705 18.7971 8.51268C18.7228 8.43831 18.6219 8.39653 18.5167 8.39653C18.4116 8.39653 18.3107 8.43831 18.2363 8.51268C18.1619 8.58705 18.1202 8.68792 18.1202 8.7931V9.58619C18.1202 9.69137 18.1619 9.79224 18.2363 9.86661C18.3107 9.94098 18.4116 9.98276 18.5167 9.98276ZM23.453 14.7997C23.4731 14.7785 23.4791 14.7476 23.4685 14.7204C23.4637 14.7057 23.4542 14.6874 23.4364 14.6847L22.1384 14.4908C22.0037 14.4684 21.8764 14.4137 21.7674 14.3313C21.6585 14.2489 21.5712 14.1413 21.5131 14.0177L20.896 12.7586L20.8655 12.7856L20.2786 14.0189C20.2211 14.1409 20.1351 14.2474 20.0279 14.3293C19.9206 14.4111 19.7952 14.466 19.6623 14.4892L18.3537 14.6847C18.3383 14.6871 18.3287 14.7053 18.324 14.72C18.3188 14.7333 18.3176 14.7479 18.3203 14.7619C18.323 14.7759 18.3297 14.7889 18.3394 14.7993L19.2713 15.7427C19.3662 15.8411 19.4369 15.9601 19.4778 16.0905C19.5187 16.2208 19.5288 16.3589 19.5073 16.4938L19.3375 17.5173H22.4549L22.2839 16.4954C22.2621 16.3612 22.2716 16.2239 22.3119 16.0941C22.3521 15.9643 22.422 15.8456 22.5159 15.7475L23.453 14.7997ZM12.5684 26.638H16.534C17.629 26.638 18.5167 25.7503 18.5167 24.6552C18.5167 23.5601 17.629 22.6724 16.534 22.6724H12.5684C12.4633 22.6724 12.3624 22.7142 12.288 22.7886C12.2137 22.863 12.1719 22.9638 12.1719 23.069V26.2414C12.1719 26.3466 12.2137 26.4474 12.2881 26.5218C12.3624 26.5961 12.4633 26.6379 12.5684 26.638ZM16.534 23.4655C17.191 23.4655 17.7236 23.9982 17.7236 24.6552C17.7236 25.3122 17.191 25.8449 16.534 25.8449C15.8769 25.8449 15.3443 25.3122 15.3443 24.6552C15.3443 23.9982 15.8769 23.4655 16.534 23.4655Z" fill="white"/>
<path d="M16.5333 25.0519C16.7523 25.0519 16.9299 24.8744 16.9299 24.6554C16.9299 24.4363 16.7523 24.2588 16.5333 24.2588C16.3143 24.2588 16.1367 24.4363 16.1367 24.6554C16.1367 24.8744 16.3143 25.0519 16.5333 25.0519Z" fill="black"/>
<path d="M27.6373 17.5173C28.2943 17.5173 28.8269 16.9847 28.8269 16.3277C28.8269 15.6706 28.2943 15.138 27.6373 15.138H26.0344C26.0447 15.2704 26.0511 15.4029 26.0511 15.5346C26.0514 16.2149 25.9176 16.8887 25.6573 17.5173H27.6373ZM18.5336 17.5173L18.724 16.3673C18.7256 16.355 18.7245 16.3424 18.7209 16.3305C18.7173 16.3186 18.7112 16.3077 18.7029 16.2983L17.7742 15.3585C17.6618 15.2441 17.5832 15.1008 17.5473 14.9445C17.5113 14.7882 17.5193 14.625 17.5704 14.473C17.6174 14.3259 17.7043 14.1947 17.8214 14.094C17.9386 13.9933 18.0813 13.9271 18.2339 13.9028L19.5366 13.7081C19.5479 13.7025 19.5569 13.6931 19.5619 13.6815L20.1488 12.4467C20.2143 12.3035 20.3196 12.1821 20.452 12.097C20.5845 12.0119 20.7387 11.9666 20.8962 11.9666C21.0536 11.9666 21.2078 12.0119 21.3403 12.097C21.4728 12.1821 21.578 12.3035 21.6435 12.4467L22.2296 13.6783C22.2354 13.6931 22.2482 13.7041 22.2637 13.7077L23.5556 13.9008C23.7086 13.9249 23.8518 13.991 23.9694 14.0918C24.0869 14.1926 24.1742 14.324 24.2215 14.4714C24.2726 14.6234 24.2806 14.7865 24.2446 14.9428C24.2086 15.099 24.1301 15.2422 24.0176 15.3565L23.0853 16.3007C23.0781 16.3098 23.0729 16.3204 23.0699 16.3316C23.067 16.3429 23.0664 16.3547 23.0683 16.3662L23.2582 17.5162H24.7746C25.719 15.6809 25.2479 13.435 23.6456 12.134C22.0433 10.8329 19.7485 10.8329 18.1463 12.134C16.544 13.435 16.0729 15.6809 17.0172 17.5162L18.5336 17.5173ZM16.1349 17.5173C15.8743 16.8888 15.7403 16.215 15.7407 15.5346C15.7407 15.4029 15.747 15.2705 15.7574 15.138H14.1545C13.4975 15.138 12.9648 15.6706 12.9648 16.3277V17.9242C13.306 17.6617 13.7241 17.5188 14.1545 17.5173H16.1349ZM19.3097 24.6553C19.3079 26.1876 18.0661 27.4294 16.5338 27.4311H12.9648V29.8105C12.9648 30.4675 13.4975 31.0001 14.1545 31.0001H27.6373C28.2943 31.0001 28.8269 30.4675 28.8269 29.8105V17.9036C28.4853 18.1652 28.0676 18.3081 27.6373 18.3104H14.1545C13.4975 18.3104 12.9648 18.8431 12.9648 19.5001V21.8794H16.5338C18.0661 21.8811 19.3079 23.1229 19.3097 24.6553ZM14.9476 30.207H14.551C14.4459 30.207 14.345 30.1652 14.2706 30.0908C14.1962 30.0165 14.1545 29.9156 14.1545 29.8104C14.1545 29.7052 14.1962 29.6044 14.2706 29.53C14.345 29.4556 14.4459 29.4138 14.551 29.4138H14.9476C15.0528 29.4138 15.1537 29.4556 15.228 29.53C15.3024 29.6044 15.3442 29.7052 15.3442 29.8104C15.3442 29.9156 15.3024 30.0165 15.228 30.0908C15.1537 30.1652 15.0528 30.207 14.9476 30.207ZM16.9304 30.207H16.5338C16.4286 30.207 16.3278 30.1652 16.2534 30.0908C16.179 30.0165 16.1372 29.9156 16.1372 29.8104C16.1372 29.7052 16.179 29.6044 16.2534 29.53C16.3278 29.4556 16.4286 29.4138 16.5338 29.4138H16.9304C17.0355 29.4138 17.1364 29.4556 17.2108 29.53C17.2852 29.6044 17.3269 29.7052 17.3269 29.8104C17.3269 29.9156 17.2852 30.0165 17.2108 30.0908C17.1364 30.1652 17.0355 30.207 16.9304 30.207ZM18.9131 30.207H18.5166C18.4114 30.207 18.3105 30.1652 18.2361 30.0908C18.1618 30.0165 18.12 29.9156 18.12 29.8104C18.12 29.7052 18.1618 29.6044 18.2361 29.53C18.3105 29.4556 18.4114 29.4138 18.5166 29.4138H18.9131C19.0183 29.4138 19.1192 29.4556 19.1935 29.53C19.2679 29.6044 19.3097 29.7052 19.3097 29.8104C19.3097 29.9156 19.2679 30.0165 19.1935 30.0908C19.1192 30.1652 19.0183 30.207 18.9131 30.207ZM26.4476 19.1035H26.8442C26.9494 19.1035 27.0502 19.1453 27.1246 19.2197C27.199 19.294 27.2407 19.3949 27.2407 19.5001C27.2407 19.6053 27.199 19.7061 27.1246 19.7805C27.0502 19.8549 26.9494 19.8967 26.8442 19.8967H26.4476C26.3424 19.8967 26.2416 19.8549 26.1672 19.7805C26.0928 19.7061 26.051 19.6053 26.051 19.5001C26.051 19.3949 26.0928 19.294 26.1672 19.2197C26.2416 19.1453 26.3424 19.1035 26.4476 19.1035ZM26.4476 29.4139H26.8442C26.9494 29.4139 27.0502 29.4557 27.1246 29.53C27.199 29.6044 27.2407 29.7053 27.2407 29.8105C27.2407 29.9156 27.199 30.0165 27.1246 30.0909C27.0502 30.1653 26.9494 30.207 26.8442 30.207H26.4476C26.3424 30.207 26.2416 30.1653 26.1672 30.0909C26.0928 30.0165 26.051 29.9156 26.051 29.8105C26.051 29.7053 26.0928 29.6044 26.1672 29.53C26.2416 29.4557 26.3424 29.4139 26.4476 29.4139ZM24.4648 19.1035H24.8614C24.9666 19.1035 25.0675 19.1453 25.1418 19.2197C25.2162 19.294 25.258 19.3949 25.258 19.5001C25.258 19.6053 25.2162 19.7061 25.1418 19.7805C25.0675 19.8549 24.9666 19.8967 24.8614 19.8967H24.4648C24.3597 19.8967 24.2588 19.8549 24.1844 19.7805C24.1101 19.7061 24.0683 19.6053 24.0683 19.5001C24.0683 19.3949 24.1101 19.294 24.1844 19.2197C24.2588 19.1453 24.3597 19.1035 24.4648 19.1035ZM24.4648 29.4139H24.8614C24.9666 29.4139 25.0675 29.4557 25.1418 29.53C25.2162 29.6044 25.258 29.7053 25.258 29.8105C25.258 29.9156 25.2162 30.0165 25.1418 30.0909C25.0675 30.1653 24.9666 30.207 24.8614 30.207H24.4648C24.3597 30.207 24.2588 30.1653 24.1844 30.0909C24.1101 30.0165 24.0683 29.9156 24.0683 29.8105C24.0683 29.7053 24.1101 29.6044 24.1844 29.53C24.2588 29.4557 24.3597 29.4139 24.4648 29.4139ZM22.4821 19.1035H22.8787C22.9838 19.1035 23.0847 19.1453 23.1591 19.2197C23.2334 19.294 23.2752 19.3949 23.2752 19.5001C23.2752 19.6053 23.2334 19.7061 23.1591 19.7805C23.0847 19.8549 22.9838 19.8967 22.8787 19.8967H22.4821C22.3769 19.8967 22.276 19.8549 22.2017 19.7805C22.1273 19.7061 22.0855 19.6053 22.0855 19.5001C22.0855 19.3949 22.1273 19.294 22.2017 19.2197C22.276 19.1453 22.3769 19.1035 22.4821 19.1035ZM22.4821 29.4139H22.8787C22.9838 29.4139 23.0847 29.4557 23.1591 29.53C23.2334 29.6044 23.2752 29.7053 23.2752 29.8105C23.2752 29.9156 23.2334 30.0165 23.1591 30.0909C23.0847 30.1653 22.9838 30.207 22.8787 30.207H22.4821C22.3769 30.207 22.276 30.1653 22.2017 30.0909C22.1273 30.0165 22.0855 29.9156 22.0855 29.8105C22.0855 29.7053 22.1273 29.6044 22.2017 29.53C22.276 29.4557 22.3769 29.4139 22.4821 29.4139ZM20.4993 19.1035H20.8959C21.0011 19.1035 21.1019 19.1453 21.1763 19.2197C21.2507 19.294 21.2925 19.3949 21.2925 19.5001C21.2925 19.6053 21.2507 19.7061 21.1763 19.7805C21.1019 19.8549 21.0011 19.8967 20.8959 19.8967H20.4993C20.3941 19.8967 20.2933 19.8549 20.2189 19.7805C20.1445 19.7061 20.1027 19.6053 20.1027 19.5001C20.1027 19.3949 20.1445 19.294 20.2189 19.2197C20.2933 19.1453 20.3941 19.1035 20.4993 19.1035ZM20.4993 29.4139H20.8959C21.0011 29.4139 21.1019 29.4557 21.1763 29.53C21.2507 29.6044 21.2925 29.7053 21.2925 29.8105C21.2925 29.9156 21.2507 30.0165 21.1763 30.0909C21.1019 30.1653 21.0011 30.207 20.8959 30.207H20.4993C20.3941 30.207 20.2933 30.1653 20.2189 30.0909C20.1445 30.0165 20.1027 29.9156 20.1027 29.8105C20.1027 29.7053 20.1445 29.6044 20.2189 29.53C20.2933 29.4557 20.3941 29.4139 20.4993 29.4139ZM18.5166 19.1035H18.9131C19.0183 19.1035 19.1192 19.1453 19.1935 19.2197C19.2679 19.294 19.3097 19.3949 19.3097 19.5001C19.3097 19.6053 19.2679 19.7061 19.1935 19.7805C19.1192 19.8549 19.0183 19.8967 18.9131 19.8967H18.5166C18.4114 19.8967 18.3105 19.8549 18.2361 19.7805C18.1618 19.7061 18.12 19.6053 18.12 19.5001C18.12 19.3949 18.1618 19.294 18.2361 19.2197C18.3105 19.1453 18.4114 19.1035 18.5166 19.1035ZM14.9476 19.8967H14.551C14.4459 19.8967 14.345 19.8549 14.2706 19.7805C14.1962 19.7061 14.1545 19.6053 14.1545 19.5001C14.1545 19.3949 14.1962 19.294 14.2706 19.2197C14.345 19.1453 14.4459 19.1035 14.551 19.1035H14.9476C15.0528 19.1035 15.1537 19.1453 15.228 19.2197C15.3024 19.294 15.3442 19.3949 15.3442 19.5001C15.3442 19.6053 15.3024 19.7061 15.228 19.7805C15.1537 19.8549 15.0528 19.8967 14.9476 19.8967ZM16.1373 19.5001C16.1373 19.3949 16.1791 19.294 16.2534 19.2197C16.3278 19.1453 16.4287 19.1035 16.5338 19.1035H16.9304C17.0356 19.1035 17.1365 19.1453 17.2108 19.2197C17.2852 19.294 17.327 19.3949 17.327 19.5001C17.327 19.6053 17.2852 19.7061 17.2108 19.7805C17.1365 19.8549 17.0356 19.8967 16.9304 19.8967H16.5338C16.4287 19.8967 16.3278 19.8549 16.2534 19.7805C16.1791 19.7061 16.1373 19.6053 16.1373 19.5001Z" fill="white"/>
</g>
<defs>
<filter id="filter0_b_216_5409" x="-44" y="-44" width="128" height="128" filterUnits="userSpaceOnUse" color-interpolation-filters="sRGB">
<feFlood flood-opacity="0" result="BackgroundImageFix"/>
<feGaussianBlur in="BackgroundImageFix" stdDeviation="22"/>
<feComposite in2="SourceAlpha" operator="in" result="effect1_backgroundBlur_216_5409"/>
<feBlend mode="normal" in="SourceGraphic" in2="effect1_backgroundBlur_216_5409" result="shape"/>
</filter>
<clipPath id="clip0_216_5409">
<rect width="23" height="23" fill="white" transform="translate(9 8)"/>
</clipPath>
</defs>
</svg>
