<svg width="18" height="18" viewBox="0 0 18 18" fill="none" xmlns="http://www.w3.org/2000/svg">
<path d="M9.48 4.06425L1.7625 11.7818C1.47812 12.0667 1.2984 12.4393 1.2525 12.8393L0.945002 15.5392C0.924958 15.7291 0.945189 15.9211 1.00438 16.1026C1.06356 16.2841 1.16037 16.4511 1.28848 16.5927C1.4166 16.7342 1.57313 16.8472 1.74786 16.9241C1.92259 17.0011 2.11158 17.0403 2.3025 17.0392H2.46L5.16 16.7317C5.55833 16.6857 5.93019 16.509 6.2175 16.2292L13.935 8.50425L9.48 4.06425ZM16.545 3.41175L14.5875 1.45425C14.4237 1.28984 14.2291 1.15939 14.0148 1.07038C13.8006 0.981368 13.5708 0.935547 13.3388 0.935547C13.1067 0.935547 12.8769 0.981368 12.6627 1.07038C12.4484 1.15939 12.2538 1.28984 12.09 1.45425L10.275 3.26925L14.73 7.72425L16.545 5.90925C16.7094 5.7455 16.8399 5.55089 16.9289 5.3366C17.0179 5.1223 17.0637 4.89254 17.0637 4.6605C17.0637 4.42846 17.0179 4.1987 16.9289 3.9844C16.8399 3.77011 16.7094 3.5755 16.545 3.41175Z" fill="#484646"/>
</svg>
