<svg width="20" height="11" viewBox="0 0 20 11" fill="none" xmlns="http://www.w3.org/2000/svg">
<path d="M14.9789 0.0124989C14.2526 0.00770262 13.534 0.161541 12.8734 0.463267C12.2127 0.764993 11.6259 1.20733 11.1539 1.75937L10.4133 2.6125L12.0664 4.52187L13.0414 3.39687C13.2807 3.11755 13.578 2.89373 13.9126 2.74099C14.2472 2.58826 14.6111 2.51029 14.9789 2.5125C15.3089 2.50727 15.6366 2.56774 15.943 2.6904C16.2494 2.81307 16.5283 2.99546 16.7635 3.22696C16.9987 3.45847 17.1855 3.73446 17.313 4.03885C17.4405 4.34325 17.5061 4.66998 17.5061 5C17.5061 5.33002 17.4405 5.65675 17.313 5.96114C17.1855 6.26554 16.9987 6.54153 16.7635 6.77303C16.5283 7.00454 16.2494 7.18693 15.943 7.30959C15.6366 7.43225 15.3089 7.49273 14.9789 7.4875C14.6123 7.48992 14.2495 7.41233 13.916 7.26012C13.5824 7.10792 13.2861 6.88477 13.0477 6.60625C9.42703 2.42562 11.1473 4.41875 8.84766 1.75625C8.37505 1.20517 7.78803 0.763691 7.12746 0.462547C6.46688 0.161402 5.74862 0.00782404 5.02266 0.0124989C3.69989 0.0124989 2.4313 0.537966 1.49596 1.4733C0.560624 2.40864 0.0351563 3.67723 0.0351562 5C0.0351563 6.32277 0.560624 7.59136 1.49596 8.52669C2.4313 9.46203 3.69989 9.9875 5.02266 9.9875C5.74894 9.9923 6.46752 9.83846 7.12819 9.53673C7.78886 9.23501 8.37568 8.79267 8.84766 8.24062L9.58828 7.3875L7.93516 5.47812L6.96016 6.60312C6.72086 6.88245 6.42355 7.10627 6.08895 7.259C5.75434 7.41174 5.39047 7.48971 5.02266 7.4875C4.69268 7.49273 4.36495 7.43225 4.05857 7.30959C3.75219 7.18693 3.47328 7.00454 3.23807 6.77303C3.00287 6.54153 2.81608 6.26554 2.68858 5.96114C2.56108 5.65675 2.49541 5.33002 2.49541 5C2.49541 4.66998 2.56108 4.34325 2.68858 4.03885C2.81608 3.73446 3.00287 3.45847 3.23807 3.22696C3.47328 2.99546 3.75219 2.81307 4.05857 2.6904C4.36495 2.56774 4.69268 2.50727 5.02266 2.5125C5.38929 2.51007 5.75203 2.58767 6.08559 2.73988C6.41914 2.89208 6.71547 3.11523 6.95391 3.39375C10.5745 7.57437 8.85422 5.58125 11.1539 8.24375C11.6958 8.88929 12.3919 9.38768 13.1776 9.69276C13.9633 9.99785 14.8133 10.0998 15.6488 9.98911C16.4844 9.87844 17.2786 9.55876 17.9578 9.05965C18.6369 8.56054 19.1792 7.89814 19.5344 7.13377C19.8896 6.36941 20.0462 5.52778 19.9898 4.68681C19.9333 3.84584 19.6656 3.03271 19.2114 2.3227C18.7572 1.61268 18.1312 1.02874 17.3913 0.624918C16.6515 0.221098 15.8218 0.0104585 14.9789 0.0124989Z" fill="#504DFB"/>
</svg>
