<svg width="22" height="22" viewBox="0 0 22 22" fill="none" xmlns="http://www.w3.org/2000/svg">
<path d="M19.4788 8.38786C17.3613 5.06036 14.263 3.14453 10.9997 3.14453C9.36801 3.14453 7.78217 3.6212 6.33384 4.51036C4.88551 5.4087 3.58384 6.71953 2.52051 8.38786C1.60384 9.82703 1.60384 12.1645 2.52051 13.6037C4.63801 16.9404 7.73634 18.847 10.9997 18.847C12.6313 18.847 14.2172 18.3704 15.6655 17.4812C17.1138 16.5829 18.4155 15.272 19.4788 13.6037C20.3955 12.1737 20.3955 9.82703 19.4788 8.38786ZM10.9997 14.7037C8.94634 14.7037 7.29634 13.0445 7.29634 11.0004C7.29634 8.9562 8.94634 7.29703 10.9997 7.29703C13.053 7.29703 14.703 8.9562 14.703 11.0004C14.703 13.0445 13.053 14.7037 10.9997 14.7037Z" fill="white"/>
<path d="M11.0002 8.37891C9.56103 8.37891 8.3877 9.55224 8.3877 11.0006C8.3877 12.4397 9.56103 13.6131 11.0002 13.6131C12.4394 13.6131 13.6219 12.4397 13.6219 11.0006C13.6219 9.56141 12.4394 8.37891 11.0002 8.37891Z" fill="white"/>
</svg>
