<svg width="55" height="55" viewBox="0 0 55 55" fill="none" xmlns="http://www.w3.org/2000/svg">
<mask id="mask0_1_7004" style="mask-type:alpha" maskUnits="userSpaceOnUse" x="0" y="0" width="55" height="55">
<circle cx="27.194" cy="27.194" r="27.194" fill="url(#paint0_linear_1_7004)"/>
</mask>
<g mask="url(#mask0_1_7004)">
<circle cx="27.0964" cy="27.194" r="27.194" fill="#514DFB"/>
</g>
<path d="M37.1267 21.1828C36.8676 20.6414 36.5026 20.1574 36.0533 19.7594L32.5533 16.5861C31.783 15.88 30.8048 15.442 29.765 15.3378H22.5783C21.8055 15.305 21.0338 15.4263 20.3083 15.6945C19.5828 15.9628 18.9178 16.3726 18.3522 16.9003C17.7865 17.4279 17.3315 18.0628 17.0135 18.768C16.6955 19.4731 16.521 20.2345 16.5 21.0078V33.0244C16.5413 34.1905 16.9313 35.3175 17.6197 36.2596C18.3081 37.2017 19.2632 37.9158 20.3617 38.3094C21.0761 38.5796 21.8388 38.6988 22.6017 38.6594H31.4217C32.1946 38.6925 32.9664 38.5715 33.6921 38.3033C34.4177 38.0352 35.0828 37.6253 35.6485 37.0976C36.2142 36.5699 36.6693 35.9349 36.9871 35.2296C37.305 34.5243 37.4793 33.7628 37.5 32.9894V22.9911C37.5056 22.3686 37.3783 21.7521 37.1267 21.1828ZM21.96 20.7161H25.7633C26.0728 20.7161 26.3695 20.839 26.5883 21.0578C26.8071 21.2766 26.93 21.5733 26.93 21.8828C26.93 22.1922 26.8071 22.4889 26.5883 22.7077C26.3695 22.9265 26.0728 23.0494 25.7633 23.0494H21.96C21.6506 23.0494 21.3538 22.9265 21.135 22.7077C20.9162 22.4889 20.7933 22.1922 20.7933 21.8828C20.7933 21.5733 20.9162 21.2766 21.135 21.0578C21.3538 20.839 21.6506 20.7161 21.96 20.7161ZM32.11 33.2111H21.96C21.6506 33.2111 21.3538 33.0882 21.135 32.8694C20.9162 32.6506 20.7933 32.3538 20.7933 32.0444C20.7933 31.735 20.9162 31.4383 21.135 31.2195C21.3538 31.0007 21.6506 30.8778 21.96 30.8778H32.11C32.3881 30.9174 32.6426 31.056 32.8266 31.2682C33.0107 31.4804 33.1121 31.7519 33.1121 32.0328C33.1121 32.3137 33.0107 32.5851 32.8266 32.7973C32.6426 33.0095 32.3881 33.1481 32.11 33.1878V33.2111ZM32.11 28.1361H21.96C21.6506 28.1361 21.3538 28.0132 21.135 27.7944C20.9162 27.5756 20.7933 27.2788 20.7933 26.9694C20.7933 26.66 20.9162 26.3633 21.135 26.1445C21.3538 25.9257 21.6506 25.8028 21.96 25.8028H32.11C32.4194 25.8028 32.7162 25.9257 32.935 26.1445C33.1537 26.3633 33.2767 26.66 33.2767 26.9694C33.2767 27.2788 33.1537 27.5756 32.935 27.7944C32.7162 28.0132 32.4194 28.1361 32.11 28.1361ZM31.7367 21.6378C31.5702 21.6393 31.4051 21.6078 31.2509 21.5452C31.0967 21.4826 30.9564 21.39 30.8382 21.2729C30.7199 21.1557 30.6261 21.0163 30.562 20.8626C30.498 20.709 30.465 20.5442 30.465 20.3778V17.2861C31.235 17.4728 34.2333 20.5528 34.8867 21.0661C35.0799 21.2289 35.2454 21.4219 35.3767 21.6378H31.7367Z" fill="white"/>
<defs>
<linearGradient id="paint0_linear_1_7004" x1="17.4042" y1="48.9493" x2="48.4054" y2="8.15821" gradientUnits="userSpaceOnUse">
<stop stop-color="#9FCBFF"/>
<stop offset="1" stop-color="#9FE2FF"/>
</linearGradient>
</defs>
</svg>
