<svg width="20" height="20" viewBox="0 0 20 20" fill="none" xmlns="http://www.w3.org/2000/svg">
<path d="M4.89853 7.79688C3.12119 6.00001 3.13681 3.10157 4.93369 1.32422C5.79697 0.472662 6.95712 5.62458e-06 8.16416 5.62458e-06H8.18759C10.6954 -0.00390063 12.7345 2.02735 12.7384 4.53907V4.57813C12.7579 7.08594 10.7423 9.14063 8.23056 9.16016H8.16416C6.93759 9.16016 5.76181 8.67188 4.89853 7.79688ZM15.6681 18.8164C15.1017 19.5195 14.2384 19.9297 13.2345 19.9688C12.6446 19.9922 12.0118 20.0039 11.2462 20.0039C10.7227 20.0039 10.1876 20 9.67587 19.9961C9.28525 19.9922 8.88681 19.9883 8.48837 19.9883V19.9961H8.11337C7.63291 19.9961 7.15244 19.9961 6.67197 20C6.1915 20.0039 5.71103 20.0039 5.23056 20.0039C4.55478 20.0039 3.99228 20 3.46884 19.9961C2.21884 19.9805 1.23447 19.5625 0.629 18.7852C0.0235311 18.0078 -0.148344 16.9492 0.140719 15.7305C0.543062 14.0313 1.57431 12.4766 3.04697 11.3555C4.51181 10.2383 6.3165 9.625 8.12509 9.625C8.20322 9.625 8.28134 9.62501 8.35556 9.62891C12.3009 9.74219 15.6368 12.4922 16.2892 16.1719C16.461 17.1602 16.2423 18.1016 15.6681 18.8164ZM16.5079 10.7227C15.8243 10.7227 15.2657 10.168 15.2657 9.48047V8.47657H14.2579C13.5743 8.46485 13.0274 7.89844 13.0392 7.21485C13.0509 6.54688 13.5899 6.00782 14.2579 5.9961H15.2657V4.98829C15.2774 4.30469 15.8438 3.75782 16.5274 3.76954C17.1954 3.78126 17.7345 4.32032 17.7462 4.98829V5.9961H18.754C19.4376 5.98438 20.004 6.53126 20.0157 7.21485C20.0274 7.89844 19.4806 8.46485 18.797 8.47657H17.7462V9.48438C17.7501 10.168 17.1954 10.7227 16.5079 10.7227Z" fill="#504DFB"/>
</svg>
