<svg width="26" height="26" viewBox="0 0 26 26" fill="none" xmlns="http://www.w3.org/2000/svg">
<path d="M19.4722 2.16669H7.0769C5.77562 2.16669 4.52763 2.68362 3.60749 3.60377C2.68734 4.52391 2.17041 5.7719 2.17041 7.07318V19.4685C2.16553 19.4854 2.16553 19.5033 2.17041 19.5202C2.18401 20.8125 2.70694 22.0472 3.62562 22.9562C4.54429 23.8653 5.78452 24.3751 7.0769 24.375H19.4722C20.7593 24.3724 21.9938 23.8643 22.9097 22.96C23.8256 22.0557 24.3494 20.8278 24.3684 19.5408V7.07318C24.3684 5.77368 23.8529 4.52726 22.935 3.60741C22.0171 2.68756 20.7717 2.16942 19.4722 2.16669ZM22.8293 17.4026L18.5116 12.4652C18.2373 12.1731 17.906 11.9403 17.5383 11.7812C17.1705 11.6221 16.7741 11.5401 16.3734 11.5401C15.9727 11.5401 15.5763 11.6221 15.2085 11.7812C14.8408 11.9403 14.5095 12.1731 14.2352 12.4652L11.2707 15.8532L10.2997 14.6757C10.0321 14.3547 9.69729 14.0965 9.31887 13.9193C8.94045 13.7421 8.5277 13.6502 8.10985 13.6502C7.69199 13.6502 7.27924 13.7421 6.90082 13.9193C6.5224 14.0965 6.18756 14.3547 5.92 14.6757L3.71983 17.3303V7.07318C3.72255 6.18367 4.07712 5.33136 4.7061 4.70238C5.33508 4.0734 6.18739 3.71883 7.0769 3.71611H19.4722C20.3618 3.71883 21.2141 4.0734 21.8431 4.70238C22.472 5.33136 22.8266 6.18367 22.8293 7.07318V17.4026Z" fill="white"/>
<path d="M8.10959 10.172C9.25055 10.172 10.1755 9.24707 10.1755 8.10611C10.1755 6.96515 9.25055 6.04022 8.10959 6.04022C6.96863 6.04022 6.0437 6.96515 6.0437 8.10611C6.0437 9.24707 6.96863 10.172 8.10959 10.172Z" fill="white"/>
</svg>
