<svg width="80" height="80" viewBox="0 0 80 80" fill="none" xmlns="http://www.w3.org/2000/svg">
<circle cx="40" cy="40" r="40" fill="#514DFB"/>
<path d="M51.6422 36.7015C51.6422 38.009 50.5364 39.0688 49.1723 39.0688C47.8099 39.0688 46.7041 38.0073 46.7041 36.7015C46.7041 35.394 47.8099 34.3359 49.1723 34.3359C50.5347 34.3359 51.6422 35.394 51.6422 36.7015Z" fill="white"/>
<path fill-rule="evenodd" clip-rule="evenodd" d="M50.8004 28.6605C48.9249 28.4199 46.5293 28.4199 43.5055 28.4199H36.7362C33.7106 28.4199 31.315 28.4199 29.4413 28.6605C27.5127 28.91 25.9487 29.4337 24.7172 30.6139C23.4858 31.7958 22.9391 33.2926 22.679 35.1433C22.4277 36.9374 22.4277 39.234 22.4277 42.1339V42.3108C22.4277 45.2107 22.4277 47.5073 22.679 49.3049C22.9391 51.1538 23.4858 52.6506 24.7172 53.8308C25.9487 55.0127 27.5127 55.5364 29.4413 55.7841C31.3168 56.0283 33.7124 56.0283 36.7362 56.0283H43.5055C46.5311 56.0283 48.9267 56.0283 50.8004 55.7859C52.729 55.5382 54.293 55.0144 55.5245 53.8325C56.7559 52.6524 57.3026 51.1556 57.5627 49.3066C57.814 47.509 57.814 45.2125 57.814 42.3126V42.1356C57.814 39.234 57.814 36.9392 57.5627 35.1415C57.3026 33.2926 56.7559 31.7958 55.5245 30.6139C54.293 29.4337 52.729 28.91 50.8004 28.6605ZM29.7704 31.0067C28.1143 31.219 27.1606 31.6206 26.4618 32.2876C25.7664 32.9564 25.3489 33.8694 25.1259 35.4565C24.949 36.7304 24.9083 38.3228 24.8995 40.4035L25.731 39.7046C27.7215 38.0361 30.7187 38.1317 32.5871 39.9222L39.6467 46.6898C39.9966 47.0198 40.4481 47.2211 40.9273 47.261C41.4066 47.3008 41.8851 47.1768 42.2847 46.9092L42.7766 46.5784C43.9304 45.8068 45.3044 45.4325 46.6901 45.5123C48.0759 45.5921 49.3978 46.1217 50.4554 47.0207L54.7141 50.6973C54.8875 50.2302 55.0202 49.6711 55.1158 48.9899C55.3422 47.3692 55.3458 45.2319 55.3458 42.2241C55.3458 39.2163 55.3422 37.0789 55.1158 35.4565C54.8928 33.8694 54.4753 32.9564 53.7782 32.2894C53.0828 31.6206 52.1274 31.2207 50.4713 31.0067C48.7799 30.789 46.5505 30.7855 43.4118 30.7855H36.8299C33.6912 30.7855 31.4618 30.789 29.7704 31.0067Z" fill="white"/>
<path d="M49.1188 23.4915C47.5972 23.2969 45.6615 23.2969 43.2464 23.2969H37.7793C35.3659 23.2969 33.4285 23.2969 31.9069 23.4915C30.3322 23.695 29.0194 24.1249 27.9773 25.1193C27.4021 25.6713 26.9635 26.3498 26.6963 27.1009C27.588 26.694 28.5965 26.4533 29.7289 26.3047C31.6468 26.057 34.0991 26.057 37.1954 26.057H44.1205C47.2168 26.057 49.6673 26.057 51.587 26.3047C52.5742 26.4339 53.4695 26.6338 54.2745 26.9523C54.0051 26.2598 53.5872 25.6347 53.0502 25.121C52.0081 24.1249 50.6952 23.695 49.1188 23.4933" fill="white"/>
</svg>
