<svg width="20" height="20" viewBox="0 0 20 20" fill="none" xmlns="http://www.w3.org/2000/svg">
<path d="M0.625 8.125V13.7814C0.625 15.49 2.01004 16.875 3.71859 16.875C4.53907 16.875 5.32593 16.5491 5.90609 15.9689L8.85723 13.0178C9.18875 12.6863 9.375 12.2366 9.375 11.7678V8.125H0.625ZM19.375 8.125V13.7814C19.375 15.49 17.99 16.875 16.2814 16.875C15.4609 16.875 14.6741 16.5491 14.0939 15.9689L11.1428 13.0178C10.8113 12.6863 10.625 12.2366 10.625 11.7678V8.125H19.375Z" fill="#A5C3DC"/>
<path d="M15 3.75H5C2.58375 3.75 0.625 5.70875 0.625 8.125V12.9734C0.625 14.4378 1.81219 15.625 3.27664 15.625C3.9799 15.625 4.65435 15.3456 5.15164 14.8484L6.98223 13.0178L6.98676 13.0132C7.30695 12.6907 7.73629 12.5 8.19082 12.5H11.8092C12.2637 12.5 12.6931 12.6907 13.0133 13.0132L13.0178 13.0178L14.8484 14.8484C15.0946 15.0946 15.3869 15.2899 15.7087 15.4232C16.0304 15.5564 16.3752 15.625 16.7234 15.625C18.1879 15.625 19.375 14.4378 19.375 12.9734V8.125C19.375 5.70875 17.4163 3.75 15 3.75Z" fill="#D7E6F0"/>
<path d="M11.4245 5.625H8.57547C8.44429 5.625 8.31644 5.58373 8.21003 5.50703C8.10361 5.43034 8.02402 5.3221 7.98254 5.19766L7.5 3.75H12.5L12.0175 5.19766C11.976 5.3221 11.8964 5.43034 11.79 5.50703C11.6836 5.58373 11.5557 5.625 11.4245 5.625Z" fill="#A5C3DC"/>
<path d="M7.5 11.875C8.36294 11.875 9.0625 11.1754 9.0625 10.3125C9.0625 9.44956 8.36294 8.75 7.5 8.75C6.63706 8.75 5.9375 9.44956 5.9375 10.3125C5.9375 11.1754 6.63706 11.875 7.5 11.875Z" fill="#A5C3DC"/>
<path d="M8.4375 9.84375H7.96875V9.375C7.96875 9.29212 7.93583 9.21263 7.87722 9.15403C7.81862 9.09542 7.73913 9.0625 7.65625 9.0625H7.34375C7.26087 9.0625 7.18138 9.09542 7.12278 9.15403C7.06417 9.21263 7.03125 9.29212 7.03125 9.375V9.84375H6.5625C6.47962 9.84375 6.40013 9.87667 6.34153 9.93528C6.28292 9.99388 6.25 10.0734 6.25 10.1562V10.4688C6.25 10.5516 6.28292 10.6311 6.34153 10.6897C6.40013 10.7483 6.47962 10.7812 6.5625 10.7812H7.03125V11.25C7.03125 11.3329 7.06417 11.4124 7.12278 11.471C7.18138 11.5296 7.26087 11.5625 7.34375 11.5625H7.65625C7.73913 11.5625 7.81862 11.5296 7.87722 11.471C7.93583 11.4124 7.96875 11.3329 7.96875 11.25V10.7812H8.4375C8.52038 10.7812 8.59987 10.7483 8.65847 10.6897C8.71708 10.6311 8.75 10.5516 8.75 10.4688V10.1562C8.75 10.0734 8.71708 9.99388 8.65847 9.93528C8.59987 9.87667 8.52038 9.84375 8.4375 9.84375Z" fill="#555A6E"/>
<path d="M12.5 11.875C13.3629 11.875 14.0625 11.1754 14.0625 10.3125C14.0625 9.44956 13.3629 8.75 12.5 8.75C11.6371 8.75 10.9375 9.44956 10.9375 10.3125C10.9375 11.1754 11.6371 11.875 12.5 11.875Z" fill="#463C4B"/>
<path d="M12.5 11.25C13.0178 11.25 13.4375 10.8303 13.4375 10.3125C13.4375 9.79473 13.0178 9.375 12.5 9.375C11.9822 9.375 11.5625 9.79473 11.5625 10.3125C11.5625 10.8303 11.9822 11.25 12.5 11.25Z" fill="#555A6E"/>
<path d="M4.375 8.95898C5.23794 8.95898 5.9375 8.25943 5.9375 7.39648C5.9375 6.53354 5.23794 5.83398 4.375 5.83398C3.51206 5.83398 2.8125 6.53354 2.8125 7.39648C2.8125 8.25943 3.51206 8.95898 4.375 8.95898Z" fill="#463C4B"/>
<path d="M4.375 8.33398C4.89277 8.33398 5.3125 7.91425 5.3125 7.39648C5.3125 6.87872 4.89277 6.45898 4.375 6.45898C3.85723 6.45898 3.4375 6.87872 3.4375 7.39648C3.4375 7.91425 3.85723 8.33398 4.375 8.33398Z" fill="#555A6E"/>
<path d="M15.625 6.66602C15.9702 6.66602 16.25 6.38619 16.25 6.04102C16.25 5.69584 15.9702 5.41602 15.625 5.41602C15.2798 5.41602 15 5.69584 15 6.04102C15 6.38619 15.2798 6.66602 15.625 6.66602Z" fill="#00D2D2"/>
<path d="M15.625 9.16602C15.9702 9.16602 16.25 8.88619 16.25 8.54102C16.25 8.19584 15.9702 7.91602 15.625 7.91602C15.2798 7.91602 15 8.19584 15 8.54102C15 8.88619 15.2798 9.16602 15.625 9.16602Z" fill="#00D2D2"/>
<path d="M14.375 7.91602C14.7202 7.91602 15 7.63619 15 7.29102C15 6.94584 14.7202 6.66602 14.375 6.66602C14.0298 6.66602 13.75 6.94584 13.75 7.29102C13.75 7.63619 14.0298 7.91602 14.375 7.91602Z" fill="#FF6E91"/>
<path d="M16.875 7.91602C17.2202 7.91602 17.5 7.63619 17.5 7.29102C17.5 6.94584 17.2202 6.66602 16.875 6.66602C16.5298 6.66602 16.25 6.94584 16.25 7.29102C16.25 7.63619 16.5298 7.91602 16.875 7.91602Z" fill="#FF6E91"/>
<path d="M8.75 7.8125C9.09518 7.8125 9.375 7.53268 9.375 7.1875C9.375 6.84232 9.09518 6.5625 8.75 6.5625C8.40482 6.5625 8.125 6.84232 8.125 7.1875C8.125 7.53268 8.40482 7.8125 8.75 7.8125Z" fill="#A5C3DC"/>
<path d="M11.25 7.8125C11.5952 7.8125 11.875 7.53268 11.875 7.1875C11.875 6.84232 11.5952 6.5625 11.25 6.5625C10.9048 6.5625 10.625 6.84232 10.625 7.1875C10.625 7.53268 10.9048 7.8125 11.25 7.8125Z" fill="#A5C3DC"/>
<path d="M6.875 3.125H5.625C5.2798 3.125 5 3.4048 5 3.75H7.5C7.5 3.4048 7.2202 3.125 6.875 3.125ZM14.375 3.125H13.125C12.7798 3.125 12.5 3.4048 12.5 3.75H15C15 3.4048 14.7202 3.125 14.375 3.125Z" fill="#555A6E"/>
</svg>
