<svg width="40" height="40" viewBox="0 0 40 40" fill="none" xmlns="http://www.w3.org/2000/svg">
<circle cx="20" cy="20" r="20" fill="#514DFB"/>
<path d="M15.8398 12.8336C15.8398 10.4642 17.7611 8.54297 20.1308 8.54297C22.5005 8.54297 24.4214 10.4639 24.4214 12.8336V19.8675C24.4214 22.2372 22.5005 24.1581 20.1308 24.1581C17.7611 24.1581 15.8398 22.2372 15.8398 19.8675V12.8336Z" fill="white"/>
<path d="M13.9325 19.6811C13.9325 19.4678 13.8477 19.2633 13.6969 19.1125C13.5461 18.9617 13.3416 18.877 13.1283 18.877C12.9151 18.877 12.7105 18.9617 12.5597 19.1125C12.4089 19.2633 12.3242 19.4678 12.3242 19.6811V19.802C12.3242 23.8313 15.3957 27.143 19.325 27.5238V30.143L15.9088 30.1356C15.6955 30.1352 15.4908 30.2195 15.3397 30.37C15.1886 30.5206 15.1035 30.7249 15.1031 30.9382C15.1027 31.1515 15.187 31.3562 15.3375 31.5072C15.488 31.6583 15.6924 31.7435 15.9057 31.7439L24.2562 31.7618C24.4694 31.7622 24.6741 31.6779 24.8252 31.5274C24.9763 31.3769 25.0614 31.1725 25.0618 30.9592C25.0623 30.746 24.9779 30.5413 24.8274 30.3902C24.6769 30.2391 24.4725 30.154 24.2593 30.1536L20.9333 30.1464V27.5142C24.8178 27.0905 27.8407 23.7991 27.8407 19.802V19.6814C27.8407 19.4681 27.756 19.2636 27.6052 19.1128C27.4544 18.962 27.2499 18.8773 27.0366 18.8773C26.8233 18.8773 26.6188 18.962 26.468 19.1128C26.3172 19.2636 26.2325 19.4681 26.2325 19.6814V19.802C26.2325 23.1985 23.479 25.952 20.0825 25.952C16.686 25.952 13.9325 23.1985 13.9325 19.802V19.6811Z" fill="white"/>
</svg>
