<svg width="30" height="30" viewBox="0 0 30 30" fill="none" xmlns="http://www.w3.org/2000/svg">
<circle cx="15" cy="15" r="15" transform="matrix(-1 0 0 1 30 0)" fill="#209576" fill-opacity="0.12"/>
<path d="M9.16745 21.2491C9.32578 21.2491 9.48411 21.1907 9.60911 21.0657L21.2758 9.39906C21.5174 9.15739 21.5174 8.75739 21.2758 8.51572C21.0341 8.27406 20.6341 8.27406 20.3924 8.51572L8.72578 20.1824C8.48411 20.4241 8.48411 20.8241 8.72578 21.0657C8.85078 21.1907 9.00911 21.2491 9.16745 21.2491Z" fill="#209576"/>
<path d="M20.834 18.1399C21.1757 18.1399 21.459 17.8565 21.459 17.5149V8.95654C21.459 8.61488 21.1757 8.33154 20.834 8.33154H12.2756C11.934 8.33154 11.6506 8.61488 11.6506 8.95654C11.6506 9.29821 11.934 9.58154 12.2756 9.58154H20.209V17.5149C20.209 17.8565 20.4923 18.1399 20.834 18.1399Z" fill="#209576"/>
</svg>
