<svg width="39" height="38" viewBox="0 0 39 38" fill="none" xmlns="http://www.w3.org/2000/svg">
<ellipse cx="19.1056" cy="19" rx="19.1056" ry="19" fill="white"/>
<g clip-path="url(#clip0_725_9989)">
<path d="M13.7178 21.2204C14.1864 21.6367 14.7182 21.976 15.2932 22.2255L18.2993 20.3378C18.6057 20.1473 18.9675 20.0658 19.326 20.1064C19.6845 20.1471 20.0188 20.3074 20.2749 20.5616L21.2857 21.5724C22.8008 20.4554 23.7507 18.6683 23.7507 16.7288C23.7507 13.4089 21.0498 10.708 17.7298 10.708C14.4099 10.708 11.709 13.4089 11.709 16.7288C11.7091 17.5767 11.8881 18.415 12.2343 19.1889C12.5804 19.9629 13.0859 20.6551 13.7178 21.2204ZM17.999 17.2601H17.4607C17.0844 17.2606 16.7217 17.12 16.4441 16.8661C16.1665 16.6121 15.9942 16.2633 15.9613 15.8885C15.9284 15.5138 16.0372 15.1403 16.2663 14.8418C16.4953 14.5434 16.828 14.3417 17.1986 14.2766V13.7184C17.1986 13.5775 17.2545 13.4424 17.3542 13.3428C17.4538 13.2431 17.5889 13.1872 17.7298 13.1872C17.8707 13.1872 18.0058 13.2431 18.1055 13.3428C18.2051 13.4424 18.2611 13.5775 18.2611 13.7184V14.2497H18.9694C19.1103 14.2497 19.2454 14.3056 19.3451 14.4053C19.4447 14.5049 19.5007 14.64 19.5007 14.7809C19.5007 14.9218 19.4447 15.0569 19.3451 15.1566C19.2454 15.2562 19.1103 15.3122 18.9694 15.3122H17.4607C17.3442 15.3122 17.2325 15.3584 17.1501 15.4408C17.0678 15.5232 17.0215 15.6349 17.0215 15.7513C17.0215 16.0007 17.2184 16.1976 17.4607 16.1976H17.999C18.3752 16.1971 18.7379 16.3377 19.0155 16.5916C19.2931 16.8456 19.4654 17.1944 19.4983 17.5691C19.5313 17.9439 19.4224 18.3174 19.1934 18.6159C18.9643 18.9143 18.6316 19.116 18.2611 19.1811V19.7385C18.2611 19.8794 18.2051 20.0146 18.1055 20.1142C18.0058 20.2138 17.8707 20.2698 17.7298 20.2698C17.5889 20.2698 17.4538 20.2138 17.3542 20.1142C17.2545 20.0146 17.1986 19.8794 17.1986 19.7385V19.208H16.4902C16.3493 19.208 16.2142 19.152 16.1146 19.0524C16.015 18.9528 15.959 18.8177 15.959 18.6768C15.959 18.5359 16.015 18.4007 16.1146 18.3011C16.2142 18.2015 16.3493 18.1455 16.4902 18.1455H17.999C18.1155 18.1455 18.2272 18.0992 18.3095 18.0169C18.3919 17.9345 18.4382 17.8228 18.4382 17.7063C18.4388 17.6482 18.4279 17.5904 18.4062 17.5364C18.3844 17.4825 18.3522 17.4333 18.3114 17.3918C18.2706 17.3504 18.222 17.3174 18.1684 17.2948C18.1147 17.2722 18.0572 17.2604 17.999 17.2601Z" fill="#504DFB"/>
<path d="M27.292 18.5H24.4586C24.3186 18.5 24.1816 18.5416 24.0652 18.6194C23.9487 18.6973 23.858 18.8079 23.8044 18.9373C23.7508 19.0667 23.7367 19.2091 23.764 19.3465C23.7914 19.4839 23.8588 19.6101 23.9578 19.7091L24.8737 20.625L21.9795 23.5193L19.6469 21.1867C19.534 21.0739 19.3864 21.0025 19.2278 20.9842C19.0693 20.9658 18.9092 21.0015 18.7735 21.0854L11.336 25.6896C11.1821 25.791 11.0738 25.9485 11.0342 26.1285C10.9945 26.3086 11.0266 26.497 11.1236 26.6537C11.2206 26.8105 11.3749 26.9232 11.5537 26.968C11.7325 27.0129 11.9217 26.9862 12.0812 26.8938L19.0413 22.585L21.478 25.0216C21.5437 25.0875 21.6217 25.1397 21.7077 25.1753C21.7936 25.211 21.8857 25.2293 21.9787 25.2293C22.0718 25.2293 22.1639 25.211 22.2498 25.1753C22.3358 25.1397 22.4138 25.0875 22.4795 25.0216L25.8753 21.6266L26.7912 22.5425C26.8902 22.6415 27.0164 22.7089 27.1538 22.7362C27.2912 22.7636 27.4336 22.7495 27.563 22.6959C27.6924 22.6423 27.803 22.5516 27.8809 22.4351C27.9587 22.3187 28.0003 22.1817 28.0003 22.0417V19.2083C28.0003 19.0205 27.9257 18.8403 27.7928 18.7075C27.66 18.5746 27.4798 18.5 27.292 18.5Z" fill="#504DFB"/>
</g>
<defs>
<clipPath id="clip0_725_9989">
<rect width="17" height="17" fill="white" transform="translate(11 10)"/>
</clipPath>
</defs>
</svg>
