<svg width="19" height="19" viewBox="0 0 19 19" fill="none" xmlns="http://www.w3.org/2000/svg">
<path d="M9.29427 12.1686C10.5657 12.1686 11.5964 11.1379 11.5964 9.86654C11.5964 8.59513 10.5657 7.56445 9.29427 7.56445C8.02287 7.56445 6.99219 8.59513 6.99219 9.86654C6.99219 11.1379 8.02287 12.1686 9.29427 12.1686Z" fill="white"/>
<path d="M16.4896 5.26107H13.5041C13.3962 5.26107 13.2624 5.19129 13.158 5.08122L12.1768 3.5417C11.7775 2.95898 11.5977 2.95898 10.9502 2.95898H7.64095C6.99349 2.95898 6.77767 2.95898 6.41545 3.54206L5.43311 5.08122C5.35326 5.16827 5.24103 5.26107 5.12305 5.26107V4.68555C5.12305 4.60923 5.09273 4.53604 5.03876 4.48207C4.9848 4.4281 4.91161 4.39779 4.83529 4.39779H3.39648C3.32017 4.39779 3.24697 4.4281 3.19301 4.48207C3.13904 4.53604 3.10872 4.60923 3.10872 4.68555V5.26107H2.10156C1.87261 5.26107 1.65303 5.35202 1.49113 5.51392C1.32923 5.67581 1.23828 5.89539 1.23828 6.12435V14.7572C1.23828 14.9861 1.32923 15.2057 1.49113 15.3676C1.65303 15.5295 1.87261 15.6204 2.10156 15.6204H16.4896C16.7185 15.6204 16.9381 15.5295 17.1 15.3676C17.2619 15.2057 17.3529 14.9861 17.3529 14.7572V6.12435C17.3529 5.89539 17.2619 5.67581 17.1 5.51392C16.9381 5.35202 16.7185 5.26107 16.4896 5.26107ZM9.4578 13.3148C8.76179 13.3475 8.07218 13.1688 7.47957 12.8024C6.88695 12.4359 6.41907 11.8987 6.1374 11.2614C5.85572 10.6241 5.77343 9.91649 5.90133 9.23156C6.02924 8.54662 6.36136 7.91641 6.85405 7.42371C7.34674 6.93102 7.97696 6.5989 8.66189 6.47099C9.34683 6.34309 10.0544 6.42538 10.6917 6.70706C11.329 6.98873 11.8662 7.45662 12.2327 8.04923C12.5992 8.64184 12.7778 9.33145 12.7451 10.0275C12.7039 10.886 12.3443 11.6984 11.7365 12.3062C11.1287 12.914 10.3163 13.2735 9.4578 13.3148Z" fill="white"/>
</svg>
