<svg width="34" height="34" viewBox="0 0 34 34" fill="none" xmlns="http://www.w3.org/2000/svg">
<path d="M32.998 16.7539C33.1368 25.5891 26.0813 32.8591 17.2461 32.998C8.41094 33.1368 1.14085 26.0939 1.00201 17.2587C0.863176 8.41094 7.9187 1.14085 16.7539 1.00201C25.5891 0.863176 32.8591 7.9187 32.998 16.7539Z" fill="#FF4B3A" stroke="#242425" stroke-width="1.5"/>
<path d="M24.9418 11.4906C23.9755 10.5356 22.6717 10 21.3131 10C19.9545 10 18.6507 10.5356 17.6844 11.4906L17.1385 12.0238L16.602 11.4906C15.6258 10.5986 14.3432 10.1175 13.0212 10.1473C11.6992 10.1771 10.4396 10.7156 9.5046 11.6506C8.56957 12.5856 8.03111 13.8452 8.00131 15.1672C7.9715 16.4892 8.45263 17.7718 9.34458 18.748L16.804 26.2264C16.8931 26.3143 17.0133 26.3635 17.1385 26.3635C17.2636 26.3635 17.3838 26.3143 17.4729 26.2264L24.9418 18.7575C25.8997 17.7908 26.4371 16.4849 26.4371 15.124C26.4371 13.7631 25.8997 12.4573 24.9418 11.4906Z" fill="white"/>
</svg>
