<svg width="22" height="22" viewBox="0 0 22 22" fill="none" xmlns="http://www.w3.org/2000/svg">
<path d="M7.69043 16.9492V7.63583C7.69043 7.26916 7.80043 6.91166 8.0021 6.60916L10.5046 2.8875C10.8988 2.29166 11.8796 1.87 12.7138 2.18166C13.6121 2.48416 14.2079 3.4925 14.0154 4.39083L13.5388 7.38833C13.5021 7.66333 13.5754 7.91083 13.7313 8.10333C13.8871 8.2775 14.1163 8.3875 14.3638 8.3875H18.1313C18.8554 8.3875 19.4788 8.68083 19.8454 9.19416C20.1938 9.68916 20.2579 10.3308 20.0288 10.9817L17.7738 17.8475C17.4896 18.9842 16.2521 19.91 15.0238 19.91H11.4488C10.8346 19.91 9.97293 19.6992 9.57876 19.305L8.40543 18.3975C7.95626 18.0583 7.69043 17.5175 7.69043 16.9492Z" fill="#504DFB"/>
<path d="M4.77551 5.84766H3.83134C2.41051 5.84766 1.83301 6.39766 1.83301 7.75432V16.976C1.83301 18.3327 2.41051 18.8827 3.83134 18.8827H4.77551C6.19634 18.8827 6.77384 18.3327 6.77384 16.976V7.75432C6.77384 6.39766 6.19634 5.84766 4.77551 5.84766Z" fill="#504DFB"/>
</svg>
