<svg width="20" height="20" viewBox="0 0 20 20" fill="none" xmlns="http://www.w3.org/2000/svg">
<path d="M10.765 13.8245L7.70487 16.8847L7.7048 16.8847L7.70473 16.8848C6.43929 18.1503 4.38014 18.1504 3.11455 16.8848C2.50145 16.2717 2.16389 15.4566 2.16389 14.5897C2.16389 13.7228 2.50145 12.9078 3.11434 12.2947L3.11455 12.2945L6.17465 9.23432C6.59711 8.81179 6.59711 8.1267 6.17457 7.70424C5.75211 7.28178 5.06703 7.28178 4.64449 7.70424L1.5844 10.7644L1.58375 10.7651C0.562466 11.7868 0 13.145 0 14.5897C0 16.0346 0.562682 17.3931 1.58447 18.4149C2.63915 19.4695 4.02439 19.9968 5.40971 19.9968C6.79503 19.9968 8.18035 19.4695 9.23489 18.4149L9.23496 18.4148L12.2951 15.3546C12.7175 14.9321 12.7175 14.247 12.295 13.8245C11.8726 13.402 11.1876 13.402 10.765 13.8245ZM20 5.40908C20 3.96411 19.4372 2.60562 18.4155 1.58383C16.3062 -0.525377 12.8742 -0.525305 10.765 1.58383L10.7648 1.5842L7.70473 4.64415C7.2822 5.06661 7.2822 5.75177 7.70473 6.17423C7.80508 6.27486 7.92434 6.35467 8.05564 6.40906C8.18694 6.46345 8.32769 6.49135 8.46981 6.49117C8.74664 6.49117 9.02362 6.3855 9.23481 6.17423L12.2948 3.11428L12.2952 3.11392C13.5606 1.84848 15.6198 1.84841 16.8854 3.11392C17.4984 3.72702 17.8361 4.54215 17.8361 5.40908C17.8361 6.27593 17.4985 7.09092 16.8856 7.70402L16.8854 7.70424L13.8253 10.7644C13.4028 11.1869 13.4028 11.872 13.8254 12.2945C13.9257 12.3951 14.0449 12.4749 14.1762 12.5293C14.3075 12.5837 14.4483 12.6116 14.5904 12.6114C14.8673 12.6114 15.1442 12.5058 15.3554 12.2945L18.4155 9.23432L18.4162 9.2336C19.4375 8.21196 20 6.85369 20 5.40908Z" fill="white"/>
<path d="M6.17432 13.8247C6.27467 13.9253 6.39392 14.0051 6.5252 14.0595C6.65648 14.1139 6.79722 14.1418 6.93933 14.1416C7.21623 14.1416 7.49314 14.036 7.70441 13.8247L13.8247 7.70435C14.2473 7.28189 14.2473 6.5968 13.8247 6.17427C13.4023 5.75181 12.7172 5.75181 12.2947 6.17427L6.17432 12.2945C5.75179 12.7171 5.75179 13.4022 6.17432 13.8247Z" fill="white"/>
</svg>
