<svg width="55" height="55" viewBox="0 0 55 55" fill="none" xmlns="http://www.w3.org/2000/svg">
<mask id="mask0_1_6972" style="mask-type:alpha" maskUnits="userSpaceOnUse" x="0" y="0" width="55" height="55">
<circle cx="27.194" cy="27.194" r="27.194" fill="url(#paint0_linear_1_6972)"/>
</mask>
<g mask="url(#mask0_1_6972)">
<circle cx="27.194" cy="27.194" r="27.194" fill="#514DFB"/>
</g>
<path d="M25.1406 34.7C25.3211 34.9789 25.6383 35.1648 25.9992 35.1648C26.3602 35.1648 26.6773 34.9789 26.8633 34.7L32.8898 25.3922C33.6992 24.1398 34.1695 22.7617 34.1695 21.1648C34.1641 16.5492 30.5383 13 25.9992 13C21.4602 13 17.8344 16.5492 17.8344 21.1648C17.8344 22.7617 18.3047 24.1398 19.1141 25.3922L25.1406 34.7ZM25.9992 16.5C28.575 16.5 30.6641 18.5891 30.6641 21.1648C30.6641 23.7406 28.575 25.8297 25.9992 25.8297C23.4234 25.8297 21.3344 23.7406 21.3344 21.1648C21.3344 18.5891 23.4234 16.5 25.9992 16.5ZM31.982 30.6914L25.9992 38.6648L20.0164 30.6914C17.9711 31.7633 16.6641 33.3656 16.6641 35.1648C16.6641 38.3859 20.8422 41 25.9992 41C31.1563 41 35.3344 38.3859 35.3344 35.1648C35.3344 33.3656 34.0273 31.7633 31.982 30.6914Z" fill="white"/>
<defs>
<linearGradient id="paint0_linear_1_6972" x1="17.4042" y1="48.9493" x2="48.4054" y2="8.15821" gradientUnits="userSpaceOnUse">
<stop stop-color="#5DDA5B"/>
<stop offset="1" stop-color="#ADEE7A"/>
</linearGradient>
</defs>
</svg>
