<svg width="38" height="38" viewBox="0 0 38 38" fill="none" xmlns="http://www.w3.org/2000/svg">
<circle cx="19" cy="19" r="19" fill="white"/>
<path d="M25.9686 9.15625C26.2374 9.15625 26.4955 9.20584 26.7327 9.29569L19.2102 14.8897C19.0862 14.982 18.9357 15.0319 18.7811 15.0319C18.6265 15.0319 18.4761 14.982 18.352 14.8897L10.8296 9.29569C11.0668 9.20584 11.3248 9.15625 11.5936 9.15625H25.9686Z" fill="#504DFB"/>
<path d="M9.4375 11.3127C9.4375 10.9289 9.53812 10.5688 9.71278 10.2568L17.4947 16.0428C17.8666 16.3193 18.3178 16.4687 18.7812 16.4687C19.2447 16.4687 19.6959 16.3193 20.0678 16.0428L27.8497 10.2568C28.0244 10.5688 28.125 10.9289 28.125 11.3127V17.113C27.1978 16.5775 26.1395 16.3115 25.0693 16.345C23.9991 16.3785 22.9596 16.7102 22.0677 17.3026C21.1758 17.8951 20.4671 18.7248 20.0213 19.6983C19.5755 20.6718 19.4104 21.7504 19.5446 22.8127H11.5938C11.0219 22.8127 10.4734 22.5855 10.0691 22.1811C9.66468 21.7768 9.4375 21.2283 9.4375 20.6564V11.3127Z" fill="#504DFB"/>
<path fill-rule="evenodd" clip-rule="evenodd" d="M28.125 19.9375V20.7784C28.9623 21.0746 29.5625 21.8738 29.5625 22.8125V25.6875C29.5625 26.2594 29.3353 26.8078 28.9309 27.2122C28.5266 27.6166 27.9781 27.8438 27.4062 27.8438H23.0938C22.5219 27.8438 21.9734 27.6166 21.5691 27.2122C21.1647 26.8078 20.9375 26.2594 20.9375 25.6875V22.8125C20.9375 21.8738 21.5377 21.0753 22.375 20.7784V19.9375C22.375 19.175 22.6779 18.4437 23.2171 17.9046C23.7562 17.3654 24.4875 17.0625 25.25 17.0625C26.0125 17.0625 26.7438 17.3654 27.2829 17.9046C27.8221 18.4437 28.125 19.175 28.125 19.9375ZM26.6875 19.9375V20.6562H23.8125V19.9375C23.8125 19.5563 23.964 19.1906 24.2335 18.921C24.5031 18.6515 24.8688 18.5 25.25 18.5C25.6312 18.5 25.9969 18.6515 26.2665 18.921C26.536 19.1906 26.6875 19.5563 26.6875 19.9375Z" fill="#504DFB"/>
</svg>
