<svg width="22" height="20" viewBox="0 0 22 20" fill="none" xmlns="http://www.w3.org/2000/svg">
<path d="M12 20.0004C17.523 20.0004 22 15.5234 22 10.0004C22 4.47737 17.523 0.000369029 12 0.000369029C10.4473 -0.000797432 8.91581 0.360142 7.52707 1.05451C6.13833 1.74888 4.93066 2.75754 4 4.00037H6.71C7.86477 2.98213 9.28882 2.31873 10.8113 2.08977C12.3337 1.86081 13.8899 2.07602 15.2931 2.70958C16.6963 3.34314 17.8869 4.36813 18.7219 5.66156C19.557 6.95498 20.0011 8.4619 20.001 10.0015C20.0009 11.5411 19.5565 13.0479 18.7212 14.3412C17.8859 15.6345 16.6952 16.6593 15.2919 17.2926C13.8886 17.9259 12.3324 18.1409 10.81 17.9117C9.28754 17.6824 7.8636 17.0188 6.709 16.0004H3.999C4.92976 17.2433 6.13759 18.2521 7.52652 18.9465C8.91544 19.6408 10.4472 20.0017 12 20.0004ZM5 14.0004V11.0004H13V9.00037H5V6.00037L-1.90735e-06 10.0004L5 14.0004Z" fill="white"/>
</svg>
