<svg width="25" height="24" viewBox="0 0 25 24" fill="none" xmlns="http://www.w3.org/2000/svg">
<path d="M17.6689 2H7.66895C4.90895 2 2.66895 4.23 2.66895 6.98V12.96V13.96C2.66895 16.71 4.90895 18.94 7.66895 18.94H9.16895C9.43895 18.94 9.79895 19.12 9.96895 19.34L11.4689 21.33C12.1289 22.21 13.2089 22.21 13.8689 21.33L15.3689 19.34C15.5589 19.09 15.8589 18.94 16.1689 18.94H17.6689C20.4289 18.94 22.6689 16.71 22.6689 13.96V6.98C22.6689 4.23 20.4289 2 17.6689 2ZM13.6689 13.75H7.66895C7.25895 13.75 6.91895 13.41 6.91895 13C6.91895 12.59 7.25895 12.25 7.66895 12.25H13.6689C14.0789 12.25 14.4189 12.59 14.4189 13C14.4189 13.41 14.0789 13.75 13.6689 13.75ZM17.6689 8.75H7.66895C7.25895 8.75 6.91895 8.41 6.91895 8C6.91895 7.59 7.25895 7.25 7.66895 7.25H17.6689C18.0789 7.25 18.4189 7.59 18.4189 8C18.4189 8.41 18.0789 8.75 17.6689 8.75Z" fill="white"/>
</svg>
