<svg width="20" height="20" viewBox="0 0 20 20" fill="none" xmlns="http://www.w3.org/2000/svg">
<path d="M19.3103 9.31034H18.6207V8.62069C18.6207 8.52924 18.5844 8.44153 18.5197 8.37686C18.455 8.31219 18.3673 8.27586 18.2759 8.27586C18.2759 3.70517 14.5707 0 10 0C5.42931 0 1.72414 3.70517 1.72414 8.27586C1.63268 8.27586 1.54498 8.31219 1.48031 8.37686C1.41564 8.44153 1.37931 8.52924 1.37931 8.62069V9.31034H0.689655C0.506747 9.31034 0.331331 9.38301 0.201995 9.51234C0.0726599 9.64168 0 9.81709 0 10L0 14.1379C0 14.3208 0.0726599 14.4963 0.201995 14.6256C0.331331 14.7549 0.506747 14.8276 0.689655 14.8276H1.37931V15.5172C1.37931 15.6087 1.41564 15.6964 1.48031 15.7611C1.54498 15.8257 1.63268 15.8621 1.72414 15.8621H3.44828C3.63118 15.8621 3.8066 15.7894 3.93594 15.6601C4.06527 15.5307 4.13793 15.3553 4.13793 15.1724V8.96552C4.13793 8.78261 4.06527 8.60719 3.93594 8.47786C3.8066 8.34852 3.63118 8.27586 3.44828 8.27586H3.10345C3.10345 4.4669 6.19103 1.37931 10 1.37931C13.809 1.37931 16.8966 4.4669 16.8966 8.27586H16.5517C16.3688 8.27586 16.1934 8.34852 16.0641 8.47786C15.9347 8.60719 15.8621 8.78261 15.8621 8.96552V15.1724C15.8621 15.3553 15.9347 15.5307 16.0641 15.6601C16.1934 15.7894 16.3688 15.8621 16.5517 15.8621H18.2759C18.3673 15.8621 18.455 15.8257 18.5197 15.7611C18.5844 15.6964 18.6207 15.6087 18.6207 15.5172V14.8276H19.3103C19.4933 14.8276 19.6687 14.7549 19.798 14.6256C19.9273 14.4963 20 14.3208 20 14.1379V10C20 9.81709 19.9273 9.64168 19.798 9.51234C19.6687 9.38301 19.4933 9.31034 19.3103 9.31034Z" fill="#95A5A5"/>
<path d="M12.193 6.77285C11.759 6.33938 11.2063 6.04424 10.6046 5.92472C10.003 5.8052 9.37941 5.86665 8.81266 6.10132C8.24592 6.33599 7.76143 6.73334 7.42038 7.2432C7.07933 7.75306 6.89702 8.35255 6.89648 8.96595V13.7935C6.89609 14.4971 7.13474 15.1798 7.57331 15.7299C8.01188 16.28 8.62435 16.6648 9.31028 16.8211V18.6211H7.58614C7.40323 18.6211 7.22782 18.6938 7.09848 18.8231C6.96914 18.9525 6.89648 19.1279 6.89648 19.3108V19.6556C6.89648 19.7471 6.93281 19.8348 6.99748 19.8994C7.06215 19.9641 7.14986 20.0004 7.24131 20.0004H12.7586C12.85 20.0004 12.9377 19.9641 13.0024 19.8994C13.0671 19.8348 13.1034 19.7471 13.1034 19.6556V19.3108C13.1034 19.1279 13.0307 18.9525 12.9014 18.8231C12.7721 18.6938 12.5966 18.6211 12.4137 18.6211H10.6896V16.8211C11.3755 16.6648 11.988 16.28 12.4266 15.7299C12.8651 15.1798 13.1038 14.4971 13.1034 13.7935V8.96595C13.1027 8.14315 12.7752 7.3543 12.193 6.77285Z" fill="#BDC3C7"/>
<path d="M4.13753 8.96505V15.1719C4.13753 15.3549 4.06487 15.5303 3.93553 15.6596C3.8062 15.7889 3.63078 15.8616 3.44787 15.8616H1.72373C1.63228 15.8616 1.54457 15.8253 1.4799 15.7606C1.41524 15.6959 1.37891 15.6082 1.37891 15.5168V8.62022C1.37891 8.52876 1.41524 8.44106 1.4799 8.37639C1.54457 8.31172 1.63228 8.27539 1.72373 8.27539H3.44787C3.63078 8.27539 3.8062 8.34805 3.93553 8.47739C4.06487 8.60672 4.13753 8.78214 4.13753 8.96505Z" fill="#3B97D3"/>
<path d="M1.37931 9.31055V14.8278H0.689655C0.506747 14.8278 0.331331 14.7551 0.201995 14.6258C0.0726599 14.4965 0 14.321 0 14.1381V10.0002C0 9.81729 0.0726599 9.64188 0.201995 9.51254C0.331331 9.38321 0.506747 9.31055 0.689655 9.31055H1.37931Z" fill="#2980BA"/>
<path d="M18.6209 8.62022V15.5168C18.6209 15.6082 18.5846 15.6959 18.5199 15.7606C18.4553 15.8253 18.3676 15.8616 18.2761 15.8616H16.552C16.3691 15.8616 16.1936 15.7889 16.0643 15.6596C15.935 15.5303 15.8623 15.3549 15.8623 15.1719V8.96505C15.8623 8.78214 15.935 8.60672 16.0643 8.47739C16.1936 8.34805 16.3691 8.27539 16.552 8.27539H18.2761C18.3676 8.27539 18.4553 8.31172 18.5199 8.37639C18.5846 8.44106 18.6209 8.52876 18.6209 8.62022Z" fill="#3B97D3"/>
<path d="M20.0004 10.0002V14.1381C20.0004 14.321 19.9277 14.4965 19.7984 14.6258C19.6691 14.7551 19.4937 14.8278 19.3107 14.8278H18.6211V9.31055H19.3107C19.4937 9.31055 19.6691 9.38321 19.7984 9.51254C19.9277 9.64188 20.0004 9.81729 20.0004 10.0002Z" fill="#2980BA"/>
<path d="M14.4996 5.56118C14.4489 5.56126 14.3988 5.55018 14.353 5.52873C14.3071 5.50727 14.2665 5.47597 14.234 5.43704C13.7162 4.81709 13.0686 4.31839 12.3369 3.97619C11.6052 3.63399 10.8073 3.45662 9.99956 3.45662C9.1918 3.45662 8.39389 3.63399 7.6622 3.97619C6.93051 4.31839 6.28289 4.81709 5.76507 5.43704C5.70654 5.50746 5.62244 5.55175 5.53125 5.56015C5.44007 5.56856 5.34929 5.5404 5.27887 5.48187C5.20845 5.42334 5.16416 5.33923 5.15576 5.24805C5.14735 5.15687 5.17551 5.06608 5.23404 4.99566C5.81657 4.29761 6.54533 3.73606 7.36881 3.35071C8.19229 2.96536 9.09037 2.76562 9.99956 2.76562C10.9087 2.76562 11.8068 2.96536 12.6303 3.35071C13.4538 3.73606 14.1825 4.29761 14.7651 4.99566C14.807 5.04605 14.8338 5.10737 14.8421 5.17241C14.8505 5.23746 14.8401 5.30354 14.8123 5.3629C14.7844 5.42227 14.7402 5.47245 14.6848 5.50757C14.6294 5.54269 14.5651 5.56129 14.4996 5.56118Z" fill="#FAC176"/>
<path d="M13.5485 6.57637C13.4958 6.57625 13.4439 6.56406 13.3967 6.54075C13.3495 6.51744 13.3082 6.48362 13.2761 6.44189C12.8895 5.94094 12.3932 5.53533 11.8253 5.25625C11.2574 4.97716 10.633 4.83204 10.0002 4.83204C9.36746 4.83204 8.74311 4.97716 8.1752 5.25625C7.6073 5.53533 7.11096 5.94094 6.72437 6.44189C6.66654 6.50792 6.58571 6.54942 6.49835 6.55792C6.41099 6.56643 6.32367 6.5413 6.2542 6.48765C6.18473 6.43401 6.13832 6.35589 6.12445 6.26922C6.11058 6.18255 6.13028 6.09385 6.17954 6.0212C6.6306 5.43719 7.20954 4.96435 7.87188 4.63902C8.53421 4.31369 9.26231 4.14453 10.0002 4.14453C10.7382 4.14453 11.4662 4.31369 12.1286 4.63902C12.7909 4.96435 13.3699 5.43719 13.8209 6.0212C13.8602 6.07218 13.8844 6.13312 13.8908 6.19714C13.8972 6.26115 13.8856 6.32569 13.8572 6.38345C13.8289 6.4412 13.785 6.48988 13.7304 6.52397C13.6759 6.55807 13.6128 6.57622 13.5485 6.57637Z" fill="#F18D46"/>
<path d="M13.1034 13.4492V13.794C13.1038 14.4976 12.8651 15.1804 12.4266 15.7304C11.988 16.2805 11.3755 16.6653 10.6896 16.8216C10.2354 16.9228 9.76448 16.9228 9.31028 16.8216C8.62435 16.6653 8.01188 16.2805 7.57331 15.7304C7.13474 15.1804 6.89609 14.4976 6.89648 13.794V13.4492H13.1034Z" fill="#3B97D3"/>
<path d="M13.1034 19.3107V19.6556C13.1034 19.747 13.0671 19.8347 13.0024 19.8994C12.9377 19.9641 12.85 20.0004 12.7586 20.0004H7.24131C7.14986 20.0004 7.06215 19.9641 6.99748 19.8994C6.93281 19.8347 6.89648 19.747 6.89648 19.6556V19.3107C6.89648 19.1278 6.96914 18.9524 7.09848 18.8231C7.22782 18.6938 7.40323 18.6211 7.58614 18.6211H12.4137C12.5966 18.6211 12.7721 18.6938 12.9014 18.8231C13.0307 18.9524 13.1034 19.1278 13.1034 19.3107Z" fill="#2980BA"/>
<path d="M9.31028 9.30967C9.31028 9.40113 9.27395 9.48883 9.20928 9.5535C9.14461 9.61817 9.0569 9.6545 8.96545 9.6545H6.89648V8.96484H8.96545C9.0569 8.96484 9.14461 9.00117 9.20928 9.06584C9.27395 9.13051 9.31028 9.21822 9.31028 9.30967ZM9.31028 10.689C9.31028 10.7804 9.27395 10.8681 9.20928 10.9328C9.14461 10.9975 9.0569 11.0338 8.96545 11.0338H6.89648V10.3442H8.96545C9.0569 10.3442 9.14461 10.3805 9.20928 10.4452C9.27395 10.5098 9.31028 10.5975 9.31028 10.689ZM9.31028 12.0683C9.31028 12.1597 9.27395 12.2475 9.20928 12.3121C9.14461 12.3768 9.0569 12.4131 8.96545 12.4131H6.89648V11.7235H8.96545C9.0569 11.7235 9.14461 11.7598 9.20928 11.8245C9.27395 11.8891 9.31028 11.9768 9.31028 12.0683ZM13.1034 8.96484V9.6545H11.0344C10.943 9.6545 10.8553 9.61817 10.7906 9.5535C10.7259 9.48883 10.6896 9.40113 10.6896 9.30967C10.6896 9.21822 10.7259 9.13051 10.7906 9.06584C10.8553 9.00117 10.943 8.96484 11.0344 8.96484H13.1034ZM13.1034 10.3442V11.0338H11.0344C10.943 11.0338 10.8553 10.9975 10.7906 10.9328C10.7259 10.8681 10.6896 10.7804 10.6896 10.689C10.6896 10.5975 10.7259 10.5098 10.7906 10.4452C10.8553 10.3805 10.943 10.3442 11.0344 10.3442H13.1034ZM13.1034 11.7235V12.4131H11.0344C10.943 12.4131 10.8553 12.3768 10.7906 12.3121C10.7259 12.2475 10.6896 12.1597 10.6896 12.0683C10.6896 11.9768 10.7259 11.8891 10.7906 11.8245C10.8553 11.7598 10.943 11.7235 11.0344 11.7235H13.1034Z" fill="#7F8C8D"/>
</svg>
