<svg width="23" height="23" viewBox="0 0 23 23" fill="none" xmlns="http://www.w3.org/2000/svg">
<g clip-path="url(#clip0_218_8953)">
<path d="M9.80572 9.80471C10.6751 8.93544 11.8452 8.43356 13.0742 8.40288C14.3032 8.3722 15.497 8.81507 16.4086 9.63988L16.5821 9.80471L19.2923 12.5158C20.1749 13.4001 20.6773 14.5941 20.6924 15.8434C20.7074 17.0926 20.2339 18.2984 19.3728 19.2036C18.5117 20.1088 17.3311 20.6419 16.0826 20.6893C14.8341 20.7366 13.6165 20.2945 12.6893 19.457L12.5168 19.2922L10.4833 17.2586C10.3114 17.0862 10.2116 16.8548 10.2042 16.6114C10.1967 16.368 10.2822 16.1309 10.4433 15.9483C10.6043 15.7657 10.8288 15.6512 11.0712 15.6281C11.3136 15.605 11.5556 15.6751 11.7483 15.824L11.8383 15.9035L13.8719 17.9371C14.3991 18.4674 15.1121 18.7714 15.8596 18.7847C16.6072 18.798 17.3305 18.5195 17.8762 18.0084C18.4219 17.4972 18.747 16.7936 18.7825 16.0468C18.818 15.2999 18.5612 14.5686 18.0666 14.008L17.9372 13.8709L15.227 11.1608C14.96 10.8937 14.6431 10.6819 14.2942 10.5374C13.9454 10.3929 13.5715 10.3185 13.1939 10.3185C12.8163 10.3185 12.4424 10.3929 12.0936 10.5374C11.7447 10.6819 11.4278 10.8937 11.1608 11.1608C10.981 11.3405 10.7371 11.4414 10.4829 11.4413C10.2287 11.4412 9.98494 11.3401 9.80524 11.1603C9.62555 10.9805 9.52465 10.7366 9.52474 10.4824C9.52483 10.2282 9.6259 9.98441 9.80572 9.80471ZM3.70689 3.70588C4.57622 2.83661 5.74641 2.33473 6.97541 2.30405C8.20441 2.27336 9.39818 2.71623 10.3098 3.54105L10.4833 3.70588L12.5159 5.74042C12.6878 5.91288 12.7876 6.1443 12.795 6.38767C12.8024 6.63103 12.7169 6.86811 12.5559 7.05073C12.3949 7.23336 12.1704 7.34784 11.928 7.37093C11.6856 7.39402 11.4435 7.32398 11.2509 7.17505L11.1608 7.09551L9.12818 5.06288C8.60011 4.53825 7.88914 4.23888 7.14485 4.22776C6.40056 4.21665 5.68096 4.49464 5.13745 5.00326C4.59395 5.51188 4.2689 6.21148 4.23069 6.95488C4.19248 7.69827 4.4441 8.42751 4.9326 8.98917L5.06197 9.12717L7.7731 11.8383C8.31224 12.3773 9.04338 12.6801 9.80572 12.6801C10.5681 12.6801 11.2992 12.3773 11.8383 11.8383C11.9273 11.7493 12.033 11.6786 12.1492 11.6304C12.2655 11.5822 12.3902 11.5574 12.516 11.5573C12.6419 11.5573 12.7666 11.582 12.8829 11.6301C12.9992 11.6783 13.1049 11.7488 13.1939 11.8378C13.2829 11.9268 13.3536 12.0324 13.4018 12.1487C13.45 12.265 13.4749 12.3896 13.4749 12.5155C13.4749 12.6414 13.4502 12.766 13.4021 12.8823C13.3539 12.9986 13.2834 13.1043 13.1944 13.1934C12.3251 14.0627 11.1549 14.5645 9.92587 14.5952C8.69687 14.6259 7.5031 14.183 6.59147 13.3582L6.41706 13.1934L3.70689 10.4823C2.80859 9.58369 2.30396 8.36513 2.30396 7.09455C2.30396 5.82397 2.80859 4.60445 3.70689 3.70588Z" fill="white"/>
</g>
<defs>
<clipPath id="clip0_218_8953">
<rect width="23" height="23" fill="white"/>
</clipPath>
</defs>
</svg>
