<svg width="24" height="24" viewBox="0 0 24 24" fill="none" xmlns="http://www.w3.org/2000/svg">
<path d="M1.87396 0.749756C1.57633 0.751246 1.29131 0.870141 1.08085 1.0806C0.870385 1.29106 0.75149 1.57608 0.75 1.87372V5.24984H23.2504V1.87372C23.249 1.57608 23.1301 1.29106 22.9196 1.0806C22.7091 0.870141 22.4241 0.751246 22.1265 0.749756H1.87396ZM3.37493 2.25073C3.99148 2.25073 4.50173 2.75672 4.50173 3.37327C4.50024 3.67179 4.38109 3.95768 4.17014 4.1689C3.95919 4.38011 3.67345 4.49962 3.37493 4.50148C3.07668 4.49962 2.79124 4.38002 2.58074 4.16872C2.37024 3.95742 2.25172 3.67153 2.25097 3.37327C2.25097 2.75672 2.75697 2.25073 3.37493 2.25073ZM6.37547 2.25073C6.99201 2.25073 7.49942 2.75672 7.49942 3.37327C7.49831 3.67142 7.37967 3.95709 7.16925 4.16831C6.95883 4.37953 6.6736 4.49925 6.37547 4.50148C6.07721 4.49962 5.79177 4.38002 5.58127 4.16872C5.37077 3.95742 5.25225 3.67153 5.25151 3.37327C5.25151 2.75672 5.75892 2.25073 6.37547 2.25073ZM9.376 2.25073C9.99254 2.25073 10.5 2.75672 10.5 3.37327C10.4988 3.67142 10.3802 3.95709 10.1698 4.16831C9.95936 4.37953 9.67413 4.49925 9.376 4.50148C9.07748 4.49962 8.79174 4.38011 8.58079 4.1689C8.36984 3.95768 8.25069 3.67179 8.2492 3.37327C8.2492 2.75672 8.75945 2.25073 9.376 2.25073ZM13.8562 2.25073H21.3767C21.5836 2.25073 21.7495 2.41798 21.7509 2.62349V4.12447C21.7511 4.17379 21.7415 4.22267 21.7228 4.26831C21.7041 4.31395 21.6766 4.35546 21.6419 4.39047C21.6071 4.42548 21.5658 4.4533 21.5203 4.47235C21.4748 4.4914 21.426 4.5013 21.3767 4.50148H13.8761C13.7767 4.50073 13.6817 4.46064 13.6118 4.38997C13.542 4.31931 13.5029 4.22384 13.5033 4.12447V2.62208C13.5033 2.42932 13.6479 2.26774 13.8577 2.24931L13.8562 2.25073ZM0.751417 5.99962V22.1262C0.751417 22.7428 1.25883 23.2502 1.87538 23.2502H22.1293C22.4268 23.2487 22.7117 23.1298 22.9219 22.9193C23.1322 22.7088 23.2507 22.4237 23.2519 22.1262V5.99962H0.751417ZM12.0023 7.49918C15.7257 7.49918 18.7518 10.5281 18.7518 14.2514C18.7518 17.9748 15.7257 20.9994 12.0023 20.9994C8.27897 20.9994 5.25292 17.9748 5.25292 14.2514C5.25292 10.5281 8.27755 7.49776 12.0009 7.49776L12.0023 7.49918ZM12.0023 8.25038C11.2143 8.25019 10.434 8.40524 9.70595 8.70667C8.97787 9.00809 8.31631 9.44999 7.75904 10.0071C7.20177 10.5643 6.75972 11.2257 6.45812 11.9537C6.15652 12.6817 6.00128 13.462 6.00128 14.25C6.00128 15.038 6.15652 15.8183 6.45812 16.5463C6.75972 17.2743 7.20177 17.9358 7.75904 18.4929C8.31631 19.0501 8.97787 19.492 9.70595 19.7934C10.434 20.0948 11.2143 20.2499 12.0023 20.2497C13.5936 20.2497 15.1196 19.6176 16.2447 18.4924C17.3699 17.3673 18.002 15.8412 18.002 14.25C18.0022 13.4619 17.8471 12.6815 17.5456 11.9533C17.2441 11.2251 16.802 10.5635 16.2447 10.0062C15.6875 9.44893 15.0258 9.0069 14.2977 8.70538C13.5695 8.40387 12.7891 8.24877 12.0009 8.24896L12.0023 8.25038ZM12.0023 9.00015C14.8966 9.00015 17.2508 11.3558 17.2508 14.2514C17.2508 17.1471 14.898 19.4985 12.0023 19.4985C10.6105 19.4977 9.2757 18.9449 8.29096 17.9612C7.30621 16.9775 6.7519 15.6433 6.74965 14.2514C6.75152 12.8593 7.30538 11.5247 8.28978 10.5403C9.27418 9.55589 10.6088 9.00203 12.0009 9.00015H12.0023ZM12.0023 9.74993C10.8092 9.75143 9.66529 10.226 8.82146 11.0695C7.97763 11.9131 7.50272 13.0569 7.50084 14.25C7.50234 15.4432 7.97718 16.587 8.82113 17.4304C9.66508 18.2738 10.8092 18.7479 12.0023 18.7487C14.4827 18.7487 16.501 16.7318 16.501 14.25C16.501 11.7682 14.4813 9.75135 12.0009 9.75135L12.0023 9.74993ZM11.9967 10.494C12.0467 10.4935 12.0962 10.5029 12.1425 10.5218C12.1888 10.5407 12.2308 10.5687 12.2661 10.6041C12.3013 10.6395 12.3292 10.6816 12.3479 10.728C12.3666 10.7743 12.3759 10.8239 12.3751 10.8739V11.6775C13.02 11.8462 13.5033 12.4287 13.5033 13.1232C13.5033 13.2228 13.4638 13.3184 13.3933 13.3888C13.3229 13.4593 13.2273 13.4988 13.1277 13.4988C13.0281 13.4988 12.9326 13.4593 12.8621 13.3888C12.7917 13.3184 12.7521 13.2228 12.7521 13.1232C12.7527 13.0245 12.7336 12.9266 12.6961 12.8353C12.6585 12.744 12.6032 12.661 12.5333 12.5913C12.4634 12.5215 12.3803 12.4664 12.289 12.429C12.1976 12.3916 12.0997 12.3727 12.0009 12.3734C11.5828 12.3734 11.2526 12.7051 11.2526 13.1246C11.2526 13.5442 11.5828 13.8744 12.0023 13.8744C12.8258 13.8744 13.5033 14.5505 13.5033 15.3754C13.5033 16.0699 13.02 16.6538 12.3751 16.8211V17.6262C12.3751 18.1251 11.6253 18.1251 11.6253 17.6262V16.8211C11.305 16.7375 11.0212 16.5504 10.8179 16.2891C10.6147 16.0277 10.5034 15.7065 10.5014 15.3754C10.5014 15.2758 10.5409 15.1802 10.6114 15.1098C10.6818 15.0394 10.7774 14.9998 10.877 14.9998C10.9766 14.9998 11.0721 15.0394 11.1426 15.1098C11.213 15.1802 11.2526 15.2758 11.2526 15.3754C11.2526 15.7935 11.5828 16.1252 12.0023 16.1252C12.4205 16.1252 12.7535 15.7935 12.7535 15.374C12.7541 15.2752 12.7351 15.1774 12.6975 15.0861C12.6599 14.9947 12.6046 14.9118 12.5347 14.842C12.4648 14.7723 12.3818 14.7171 12.2904 14.6797C12.199 14.6423 12.1011 14.6234 12.0023 14.6242C11.6047 14.6231 11.2237 14.4648 10.9422 14.1839C10.6608 13.903 10.5018 13.5223 10.5 13.1246C10.5 12.4301 10.9819 11.8476 11.6239 11.6789V10.8739C11.6234 10.8246 11.6325 10.7756 11.6509 10.7298C11.6692 10.684 11.6964 10.6423 11.7309 10.6071C11.7654 10.5718 11.8065 10.5436 11.8518 10.5243C11.8972 10.5049 11.9474 10.4946 11.9967 10.494Z" fill="white"/>
</svg>
