<svg width="20" height="20" viewBox="0 0 20 20" fill="none" xmlns="http://www.w3.org/2000/svg">
<path d="M6.1 12.7507C6.33333 13.5507 6.696 14.1967 7.188 14.6887C7.68 15.1807 8.31734 15.5181 9.1 15.7007V16.1257C9.1 16.3591 9.18767 16.5634 9.363 16.7387C9.53833 16.9141 9.74234 17.0014 9.975 17.0007C10.2083 17.0007 10.4127 16.9134 10.588 16.7387C10.7633 16.5641 10.8507 16.3597 10.85 16.1257V15.7507C11.6833 15.6007 12.4 15.2757 13 14.7757C13.6 14.2757 13.9 13.5341 13.9 12.5507C13.9 11.8507 13.7 11.2091 13.3 10.6257C12.9 10.0424 12.1 9.53407 10.9 9.10073C9.9 8.7674 9.20833 8.47573 8.825 8.22573C8.44167 7.97573 8.25 7.63407 8.25 7.20073C8.25 6.7674 8.40434 6.42573 8.713 6.17573C9.02167 5.92573 9.46733 5.80073 10.05 5.80073C10.5833 5.80073 11 5.92973 11.3 6.18773C11.6 6.44573 11.8167 6.76673 11.95 7.15073L13.55 6.50073C13.3667 5.9174 13.0293 5.40907 12.538 4.97573C12.0467 4.5424 11.5007 4.30073 10.9 4.25073V3.87573C10.9 3.6424 10.8127 3.4384 10.638 3.26373C10.4633 3.08907 10.259 3.0014 10.025 3.00073C9.79167 3.00073 9.58767 3.0884 9.413 3.26373C9.23833 3.43907 9.15067 3.64307 9.15 3.87573V4.25073C8.31667 4.43407 7.66667 4.80073 7.2 5.35073C6.73333 5.90073 6.5 6.5174 6.5 7.20073C6.5 7.98407 6.72933 8.6174 7.188 9.10073C7.64667 9.58407 8.36733 10.0007 9.35 10.3507C10.4 10.7341 11.1293 11.0757 11.538 11.3757C11.9467 11.6757 12.1507 12.0674 12.15 12.5507C12.15 13.1007 11.9543 13.5051 11.563 13.7637C11.1717 14.0224 10.7007 14.1514 10.15 14.1507C9.6 14.1507 9.11233 13.9801 8.687 13.6387C8.26167 13.2974 7.94933 12.7847 7.75 12.1007L6.1 12.7507ZM10 20.0007C8.61667 20.0007 7.31667 19.7381 6.1 19.2127C4.88333 18.6874 3.825 17.9751 2.925 17.0757C2.025 16.1757 1.31267 15.1174 0.788 13.9007C0.263333 12.6841 0.000666667 11.3841 0 10.0007C0 8.6174 0.262667 7.3174 0.788 6.10073C1.31333 4.88407 2.02567 3.82573 2.925 2.92573C3.825 2.02573 4.88333 1.3134 6.1 0.788733C7.31667 0.264066 8.61667 0.00139909 10 0.000732422C11.3833 0.000732422 12.6833 0.263399 13.9 0.788733C15.1167 1.31407 16.175 2.0264 17.075 2.92573C17.975 3.82573 18.6877 4.88407 19.213 6.10073C19.7383 7.3174 20.0007 8.6174 20 10.0007C20 11.3841 19.7373 12.6841 19.212 13.9007C18.6867 15.1174 17.9743 16.1757 17.075 17.0757C16.175 17.9757 15.1167 18.6884 13.9 19.2137C12.6833 19.7391 11.3833 20.0014 10 20.0007Z" fill="white"/>
</svg>
