<svg width="20" height="20" viewBox="0 0 20 20" fill="none" xmlns="http://www.w3.org/2000/svg">
<path d="M19.1364 0.655312C18.8484 0.431312 18.4644 0.351312 18.1044 0.439312L6.89639 3.26331C6.36039 3.39931 5.98439 3.87131 5.98439 4.42331V12.8233C5.47239 12.6553 4.92839 12.5673 4.39239 12.5673C2.41639 12.5673 0.400391 14.5433 0.400391 16.4793C0.400391 18.5033 2.45639 19.5913 4.39239 19.5913C6.36839 19.5913 8.38439 17.6153 8.38439 15.6793V5.35931L17.2004 3.13531V10.2633C16.6884 10.0953 16.1444 10.0073 15.6084 10.0073C13.6324 10.0073 11.6164 11.9833 11.6164 13.9193C11.6164 15.9433 13.6724 17.0313 15.6084 17.0313C17.5844 17.0313 19.6004 15.0553 19.6004 13.1193V1.59931C19.6004 1.23131 19.4324 0.879312 19.1364 0.655312Z" fill="#B3DBF4"/>
</svg>
