<svg width="24" height="24" viewBox="0 0 24 24" fill="none" xmlns="http://www.w3.org/2000/svg">
<g clip-path="url(#clip0_200_13796)">
<path d="M18.8547 0.860993C18.8547 0.535333 18.6661 0.226813 18.3747 0.0896936C18.0662 -0.0645664 17.7234 -0.0131464 17.4663 0.192533L9.8733 6.24295L18.8547 15.2243V0.860993ZM23.7464 22.5362L1.46442 0.254237C1.13019 -0.0799923 0.586855 -0.0799923 0.252625 0.254237C-0.0816043 0.588467 -0.0816043 1.1318 0.252625 1.46603L5.64487 6.85999H5.14266C4.61132 6.85999 4.14854 7.09995 3.84002 7.47703C3.58293 7.76841 3.42867 8.16263 3.42867 8.57399V15.43C3.42867 16.3727 4.19997 17.144 5.14266 17.144H9.11914L17.4663 23.8114C17.6206 23.9314 17.8091 24 17.9977 24C18.1176 24 18.2548 23.9657 18.3747 23.9143C18.6661 23.7772 18.8547 23.4686 18.8547 23.143V20.0698L22.5329 23.748C22.7009 23.916 22.9203 24 23.1397 24C23.359 24 23.5784 23.916 23.7464 23.7497C24.0806 23.4138 24.0806 22.8722 23.7464 22.5362Z" fill="white"/>
</g>
<defs>
<clipPath id="clip0_200_13796">
<rect width="24" height="24" fill="white"/>
</clipPath>
</defs>
</svg>
