<svg width="40" height="40" viewBox="0 0 40 40" fill="none" xmlns="http://www.w3.org/2000/svg">
<g filter="url(#filter0_b_216_5450)">
<rect width="40" height="40" rx="10" fill="white" fill-opacity="0.1"/>
</g>
<path d="M23.1 28.4002C22.9221 29.0868 22.5211 29.6949 21.9602 30.1289C21.3993 30.563 20.7101 30.7986 20.0008 30.7986C19.2915 30.7986 18.6023 30.563 18.0414 30.1289C17.4805 29.6949 17.0796 29.0868 16.9016 28.4002H23.1ZM28.6692 25.465C27.9624 25.1558 26.8008 24.1398 26.8008 20.8002V17.2002C26.8008 14.0762 24.5612 11.4786 21.6008 10.9166L21.2008 10.8406V10.4002C21.2008 10.0819 21.0744 9.77671 20.8493 9.55167C20.6243 9.32662 20.3191 9.2002 20.0008 9.2002C19.6825 9.2002 19.3773 9.32662 19.1523 9.55167C18.9272 9.77671 18.8008 10.0819 18.8008 10.4002V10.8406L18.4008 10.9166C15.4404 11.4786 13.2008 14.0762 13.2008 17.2002V20.8002C13.2008 24.1398 12.0392 25.1558 11.3324 25.465C11.1731 25.5361 11.0379 25.6521 10.9435 25.7988C10.8491 25.9455 10.7995 26.1165 10.8008 26.291C10.8008 26.4104 10.8243 26.5286 10.87 26.6389C10.9157 26.7492 10.9827 26.8495 11.0671 26.9339C11.1515 27.0183 11.2518 27.0853 11.3621 27.131C11.4724 27.1767 11.5906 27.2002 11.71 27.2002H28.2912C28.5324 27.2002 28.7637 27.1044 28.9342 26.9339C29.1048 26.7634 29.2007 26.5322 29.2008 26.291C29.2008 25.9346 28.996 25.6078 28.6692 25.465Z" fill="white"/>
<defs>
<filter id="filter0_b_216_5450" x="-44" y="-44" width="128" height="128" filterUnits="userSpaceOnUse" color-interpolation-filters="sRGB">
<feFlood flood-opacity="0" result="BackgroundImageFix"/>
<feGaussianBlur in="BackgroundImageFix" stdDeviation="22"/>
<feComposite in2="SourceAlpha" operator="in" result="effect1_backgroundBlur_216_5450"/>
<feBlend mode="normal" in="SourceGraphic" in2="effect1_backgroundBlur_216_5450" result="shape"/>
</filter>
</defs>
</svg>
