<svg width="18" height="22" viewBox="0 0 18 22" fill="none" xmlns="http://www.w3.org/2000/svg">
<path d="M0.371359 14.9991C0.449171 14.9054 0.525576 14.8116 0.600576 14.7212C1.63183 13.4738 2.25573 12.721 2.25573 9.18993C2.25573 7.36181 2.69308 5.86181 3.55511 4.73681C4.19073 3.90571 5.04995 3.27524 6.18245 2.80931C6.19702 2.8012 6.21004 2.79057 6.22089 2.7779C6.62823 1.41384 7.74292 0.500244 9.00011 0.500244C10.2573 0.500244 11.3715 1.41384 11.7789 2.77649C11.7897 2.78869 11.8026 2.79899 11.8168 2.80696C14.4596 3.89493 15.744 5.98228 15.744 9.18853C15.744 12.721 16.367 13.4738 17.3992 14.7198C17.4742 14.8102 17.5506 14.9021 17.6284 14.9977C17.8294 15.2401 17.9567 15.5351 17.9954 15.8476C18.034 16.1601 17.9823 16.4771 17.8464 16.7612C17.5571 17.3706 16.9407 17.7488 16.2371 17.7488H1.75792C1.05761 17.7488 0.445419 17.371 0.155264 16.7645C0.0187492 16.4803 -0.0334511 16.163 0.00484848 15.8502C0.043148 15.5373 0.170343 15.242 0.371359 14.9991ZM9.00011 21.5002C8.32275 21.4997 7.65816 21.3158 7.07684 20.9681C6.49552 20.6205 6.01914 20.1219 5.69823 19.5254C5.68311 19.4968 5.67565 19.4648 5.67656 19.4325C5.67746 19.4001 5.68672 19.3686 5.70342 19.3409C5.72012 19.3132 5.7437 19.2903 5.77187 19.2744C5.80003 19.2585 5.83183 19.2502 5.86417 19.2502H12.1351C12.1675 19.2501 12.1993 19.2584 12.2276 19.2743C12.2558 19.2901 12.2794 19.313 12.2962 19.3407C12.313 19.3684 12.3223 19.4 12.3232 19.4324C12.3241 19.4647 12.3166 19.4968 12.3015 19.5254C11.9806 20.1218 11.5043 20.6203 10.9231 20.968C10.3419 21.3157 9.67739 21.4996 9.00011 21.5002Z" fill="white"/>
</svg>
