<svg width="40" height="40" viewBox="0 0 40 40" fill="none" xmlns="http://www.w3.org/2000/svg">
<g filter="url(#filter0_b_216_10158)">
<rect width="40" height="40" rx="10" fill="white" fill-opacity="0.1"/>
</g>
<path d="M12.9311 12.2856C12.0786 12.2856 11.261 12.6243 10.6582 13.2271C10.0554 13.8299 9.7168 14.6474 9.7168 15.4999V16.1428H30.2848V15.4999C30.2848 14.6474 29.9462 13.8299 29.3434 13.2271C28.7406 12.6243 27.923 12.2856 27.0705 12.2856H12.9311ZM9.7168 24.4999V17.4285H30.2848V24.4999C30.2848 25.3524 29.9462 26.17 29.3434 26.7728C28.7406 27.3756 27.923 27.7142 27.0705 27.7142H12.9319C12.0795 27.7142 11.2619 27.3756 10.6591 26.7728C10.0563 26.17 9.71765 25.3524 9.71765 24.4999M23.6419 22.1428C23.4714 22.1428 23.3079 22.2105 23.1874 22.3311C23.0668 22.4516 22.9991 22.6151 22.9991 22.7856C22.9991 22.9561 23.0668 23.1197 23.1874 23.2402C23.3079 23.3608 23.4714 23.4285 23.6419 23.4285H26.6419C26.8124 23.4285 26.976 23.3608 27.0965 23.2402C27.2171 23.1197 27.2848 22.9561 27.2848 22.7856C27.2848 22.6151 27.2171 22.4516 27.0965 22.3311C26.976 22.2105 26.8124 22.1428 26.6419 22.1428H23.6419Z" fill="white"/>
<defs>
<filter id="filter0_b_216_10158" x="-44" y="-44" width="128" height="128" filterUnits="userSpaceOnUse" color-interpolation-filters="sRGB">
<feFlood flood-opacity="0" result="BackgroundImageFix"/>
<feGaussianBlur in="BackgroundImageFix" stdDeviation="22"/>
<feComposite in2="SourceAlpha" operator="in" result="effect1_backgroundBlur_216_10158"/>
<feBlend mode="normal" in="SourceGraphic" in2="effect1_backgroundBlur_216_10158" result="shape"/>
</filter>
</defs>
</svg>
