<svg width="40" height="40" viewBox="0 0 40 40" fill="none" xmlns="http://www.w3.org/2000/svg">
<g filter="url(#filter0_b_216_5440)">
<rect width="40" height="40" rx="10" fill="white" fill-opacity="0.1"/>
</g>
<path d="M30.3178 11.4246H11.6831C10.9219 11.4255 10.1921 11.7283 9.65393 12.2666C9.11576 12.805 8.81315 13.5348 8.8125 14.296V25.7035C8.81315 26.4647 9.11576 27.1946 9.65393 27.7329C10.1921 28.2712 10.9219 28.574 11.6831 28.5749H30.3178C31.0788 28.5738 31.8084 28.2709 32.3464 27.7326C32.8844 27.1943 33.1869 26.4646 33.1875 25.7035V14.2944C33.1866 13.5335 32.884 12.804 32.3461 12.2658C31.8081 11.7277 31.0787 11.4257 30.3178 11.4246ZM10.4375 16.064H31.5625V17.2421H10.4375V16.064ZM11.6831 13.0496H30.3178C31.0636 13.0456 31.6275 13.7053 31.5625 14.439H10.4375C10.3733 13.7053 10.9348 13.0456 11.6831 13.0496ZM30.3178 26.9499H11.6831C11.3526 26.9497 11.0358 26.8183 10.8023 26.5845C10.5687 26.3508 10.4375 26.0339 10.4375 25.7035V18.8671H31.5625V25.7035C31.5625 26.3901 31.0035 26.9491 30.3178 26.9491V26.9499Z" fill="white"/>
<path d="M16.14 21.0879H12.6503C11.5891 21.092 11.5867 22.7088 12.6503 22.7129H16.14C17.2019 22.7088 17.2035 21.092 16.14 21.0879ZM16.14 23.5839H12.6503C11.5891 23.588 11.5867 25.2048 12.6503 25.2089H16.14C17.2019 25.2048 17.2035 23.588 16.14 23.5839Z" fill="white"/>
<defs>
<filter id="filter0_b_216_5440" x="-44" y="-44" width="128" height="128" filterUnits="userSpaceOnUse" color-interpolation-filters="sRGB">
<feFlood flood-opacity="0" result="BackgroundImageFix"/>
<feGaussianBlur in="BackgroundImageFix" stdDeviation="22"/>
<feComposite in2="SourceAlpha" operator="in" result="effect1_backgroundBlur_216_5440"/>
<feBlend mode="normal" in="SourceGraphic" in2="effect1_backgroundBlur_216_5440" result="shape"/>
</filter>
</defs>
</svg>
