<svg width="40" height="40" viewBox="0 0 40 40" fill="none" xmlns="http://www.w3.org/2000/svg">
<g filter="url(#filter0_b_216_5419)">
<rect width="40" height="40" rx="10" fill="white" fill-opacity="0.1"/>
</g>
<path d="M30.8014 10.8748V11.8332C30.8014 12.7532 30.0443 13.5103 29.1243 13.5103H11.8743C10.9543 13.5103 10.1973 12.7532 10.1973 11.8332V10.8748C10.1973 9.95484 10.9543 9.19775 11.8743 9.19775H29.1243C30.0443 9.19775 30.8014 9.95484 30.8014 10.8748ZM28.8848 14.9478V26.2082C28.8848 28.1919 27.2748 29.8019 25.291 29.8019H15.7077C13.7239 29.8019 12.1139 28.1919 12.1139 26.2082V14.9478H28.8848ZM23.4031 23.3044C23.2678 23.1708 23.0853 23.0958 22.8952 23.0958C22.705 23.0958 22.5225 23.1708 22.3873 23.3044L21.2181 24.4736V18.5415C21.2181 18.1486 20.8923 17.8228 20.4993 17.8228C20.1064 17.8228 19.7806 18.1486 19.7806 18.5415V24.4736L18.6114 23.3044C18.3335 23.0265 17.8735 23.0265 17.5956 23.3044C17.3177 23.5823 17.3177 24.0423 17.5956 24.3203L19.9914 26.7161C20.1352 26.8598 20.3173 26.9269 20.4993 26.9269C20.6814 26.9269 20.8635 26.8598 21.0073 26.7161L23.4031 24.3203C23.681 24.0423 23.681 23.5823 23.4031 23.3044Z" fill="white"/>
<defs>
<filter id="filter0_b_216_5419" x="-44" y="-44" width="128" height="128" filterUnits="userSpaceOnUse" color-interpolation-filters="sRGB">
<feFlood flood-opacity="0" result="BackgroundImageFix"/>
<feGaussianBlur in="BackgroundImageFix" stdDeviation="22"/>
<feComposite in2="SourceAlpha" operator="in" result="effect1_backgroundBlur_216_5419"/>
<feBlend mode="normal" in="SourceGraphic" in2="effect1_backgroundBlur_216_5419" result="shape"/>
</filter>
</defs>
</svg>
