<svg width="14" height="14" viewBox="0 0 14 14" fill="none" xmlns="http://www.w3.org/2000/svg">
<path d="M0.25 10.9374V13.7499H3.0625L11.3575 5.45488L8.545 2.64238L0.25 10.9374ZM13.5325 3.27988C13.602 3.21049 13.6572 3.12808 13.6948 3.03735C13.7325 2.94662 13.7518 2.84936 13.7518 2.75113C13.7518 2.6529 13.7325 2.55564 13.6948 2.46491C13.6572 2.37418 13.602 2.29177 13.5325 2.22238L11.7775 0.46738C11.7081 0.397852 11.6257 0.342692 11.535 0.305055C11.4442 0.267419 11.347 0.248047 11.2488 0.248047C11.1505 0.248047 11.0533 0.267419 10.9625 0.305055C10.8718 0.342692 10.7894 0.397852 10.72 0.46738L9.3475 1.83988L12.16 4.65238L13.5325 3.27988Z" fill="white"/>
</svg>
