<svg width="40" height="40" viewBox="0 0 40 40" fill="none" xmlns="http://www.w3.org/2000/svg">
<g filter="url(#filter0_b_216_10539)">
<rect width="40" height="40" rx="10" fill="white" fill-opacity="0.1"/>
</g>
<path d="M21.9321 19.7107L21.9342 19.7086C22.1263 19.4994 22.2429 19.2249 22.2429 18.9231C22.2429 18.4016 21.8965 17.9591 21.423 17.8116H21.422V14.5334C21.422 14.4424 21.3859 14.3552 21.3215 14.2908C21.2572 14.2265 21.17 14.1904 21.079 14.1904C20.988 14.1904 20.9007 14.2265 20.8364 14.2908C20.7721 14.3552 20.7359 14.4424 20.7359 14.5334V17.8119C20.4699 17.8941 20.2422 18.069 20.0942 18.3048C19.9461 18.5406 19.8876 18.8217 19.9293 19.097C19.9709 19.3723 20.11 19.6236 20.3211 19.805C20.5323 19.9865 20.8016 20.0862 21.08 20.086C21.1692 20.086 21.255 20.0757 21.3373 20.0551L21.3387 20.0548L22.3266 21.7529C22.3492 21.7918 22.3793 21.826 22.415 21.8533C22.4508 21.8806 22.4916 21.9006 22.5352 21.9122C22.5787 21.9237 22.6241 21.9266 22.6687 21.9205C22.7133 21.9145 22.7563 21.8997 22.7952 21.8771C22.8342 21.8544 22.8684 21.8243 22.8957 21.7885C22.9231 21.7526 22.9431 21.7117 22.9546 21.6681C22.9661 21.6246 22.969 21.5791 22.9629 21.5345C22.9569 21.4898 22.9421 21.4467 22.9194 21.4078L21.9321 19.7107ZM21.079 13.5695C21.17 13.5695 21.2572 13.5333 21.3215 13.469C21.3859 13.4046 21.422 13.3174 21.422 13.2264V12.7825C21.422 12.6915 21.3859 12.6043 21.3215 12.5399C21.2572 12.4756 21.17 12.4395 21.079 12.4395C20.988 12.4395 20.9007 12.4756 20.8364 12.5399C20.7721 12.6043 20.7359 12.6915 20.7359 12.7825V13.2267C20.7359 13.3177 20.7721 13.405 20.8364 13.4693C20.9007 13.5337 20.988 13.5695 21.079 13.5695ZM26.4316 18.9224C26.4316 19.0134 26.4677 19.1006 26.532 19.1649C26.5964 19.2293 26.6836 19.2654 26.7746 19.2654H27.2185C27.3095 19.2654 27.3967 19.2293 27.4611 19.1649C27.5254 19.1006 27.5616 19.0134 27.5616 18.9224C27.5616 18.8314 27.5254 18.7441 27.4611 18.6798C27.3967 18.6155 27.3095 18.5793 27.2185 18.5793H26.7746C26.6836 18.5793 26.5964 18.6155 26.532 18.6798C26.4677 18.7441 26.4316 18.8314 26.4316 18.9224ZM15.383 18.5793H14.9388C14.8478 18.5793 14.7605 18.6155 14.6962 18.6798C14.6318 18.7441 14.5957 18.8314 14.5957 18.9224C14.5957 19.0134 14.6318 19.1006 14.6962 19.1649C14.7605 19.2293 14.8478 19.2654 14.9388 19.2654H15.383C15.474 19.2654 15.5612 19.2293 15.6256 19.1649C15.6899 19.1006 15.726 19.0134 15.726 18.9224C15.726 18.8314 15.6899 18.7441 15.6256 18.6798C15.5612 18.6155 15.474 18.5793 15.383 18.5793ZM24.3352 13.3166C24.2962 13.2939 24.2532 13.2792 24.2086 13.2731C24.1639 13.2671 24.1185 13.2699 24.075 13.2815C24.0314 13.293 23.9905 13.313 23.9547 13.3404C23.9189 13.3677 23.8888 13.4018 23.8662 13.4408L23.6433 13.825C23.6193 13.864 23.6033 13.9074 23.5964 13.9527C23.5895 13.9979 23.5916 14.0441 23.6028 14.0885C23.614 14.1329 23.6339 14.1746 23.6615 14.2111C23.689 14.2477 23.7236 14.2784 23.7632 14.3014C23.8028 14.3244 23.8466 14.3392 23.892 14.345C23.9374 14.3508 23.9835 14.3475 24.0276 14.3352C24.0717 14.3229 24.1129 14.3019 24.1488 14.2734C24.1846 14.2449 24.2144 14.2096 24.2364 14.1694L24.4594 13.7852C24.505 13.7066 24.5175 13.6131 24.4942 13.5252C24.4709 13.4374 24.4137 13.3623 24.3352 13.3166ZM26.2158 22.3031C26.2945 22.3488 26.3881 22.3613 26.476 22.338C26.564 22.3146 26.639 22.2573 26.6847 22.1786C26.7304 22.0999 26.7429 22.0063 26.7196 21.9183C26.6962 21.8304 26.6389 21.7553 26.5602 21.7096L26.176 21.4867C26.0973 21.441 26.0037 21.4284 25.9157 21.4518C25.8278 21.4752 25.7527 21.5325 25.707 21.6112C25.6614 21.6899 25.6488 21.7835 25.6722 21.8715C25.6955 21.9594 25.7529 22.0345 25.8316 22.0801L26.2158 22.3031ZM16.326 15.7646L15.9418 15.5416C15.8631 15.4959 15.7695 15.4833 15.6815 15.5067C15.5935 15.53 15.5184 15.5873 15.4727 15.666C15.427 15.7447 15.4144 15.8383 15.4377 15.9263C15.461 16.0143 15.5184 16.0894 15.5971 16.1351L15.9813 16.3581C16.06 16.4039 16.1536 16.4165 16.2416 16.3932C16.3296 16.3699 16.4048 16.3126 16.4506 16.2339C16.4963 16.1552 16.509 16.0616 16.4857 15.9735C16.4624 15.8855 16.4047 15.8104 16.326 15.7646ZM18.2917 13.4412C18.246 13.3625 18.171 13.3051 18.083 13.2818C17.9951 13.2584 17.9015 13.271 17.8228 13.3166C17.7441 13.3623 17.6867 13.4374 17.6634 13.5253C17.64 13.6133 17.6526 13.7069 17.6982 13.7856L17.9205 14.1694C17.9662 14.2481 18.0413 14.3055 18.1292 14.3288C18.2172 14.3522 18.3108 14.3396 18.3895 14.294C18.4682 14.2483 18.5255 14.1732 18.5489 14.0853C18.5722 13.9973 18.5597 13.9037 18.514 13.825L18.2917 13.4412ZM24.236 23.675C24.2134 23.636 24.1833 23.602 24.1475 23.5747C24.1117 23.5474 24.0709 23.5274 24.0273 23.5159C23.9838 23.5044 23.9384 23.5015 23.8938 23.5075C23.8492 23.5136 23.8062 23.5283 23.7673 23.551C23.7283 23.5736 23.6943 23.6037 23.667 23.6395C23.6397 23.6753 23.6197 23.7161 23.6082 23.7597C23.5967 23.8032 23.5938 23.8486 23.5998 23.8932C23.6059 23.9378 23.6206 23.9808 23.6433 24.0197L23.8662 24.4039C23.8889 24.4429 23.919 24.477 23.9548 24.5043C23.9906 24.5316 24.0314 24.5516 24.075 24.5632C24.1185 24.5747 24.1639 24.5775 24.2086 24.5715C24.2532 24.5655 24.2962 24.5508 24.3352 24.5281C24.3741 24.5055 24.4082 24.4754 24.4356 24.4396C24.4629 24.4038 24.4829 24.3629 24.4944 24.3194C24.5059 24.2758 24.5088 24.2304 24.5028 24.1858C24.4967 24.1411 24.482 24.0981 24.4594 24.0592L24.236 23.675ZM26.0041 16.4044C26.0624 16.4044 26.1218 16.3897 26.1756 16.3581L26.5602 16.1351C26.6389 16.0894 26.6962 16.0144 26.7196 15.9264C26.7429 15.8385 26.7304 15.7449 26.6847 15.6662C26.639 15.5875 26.564 15.5301 26.476 15.5068C26.3881 15.4834 26.2945 15.496 26.2158 15.5416L25.8316 15.7646C25.7663 15.8025 25.7153 15.8609 25.6865 15.9307C25.6578 16.0005 25.6528 16.0778 25.6725 16.1507C25.6921 16.2236 25.7353 16.2879 25.7952 16.3338C25.8552 16.3797 25.9286 16.4045 26.0041 16.4044Z" fill="white"/>
<path d="M11.201 29.7905C11.3342 30.0318 11.5301 30.2328 11.768 30.3722C12.0058 30.5117 12.2769 30.5845 12.5526 30.5829H22.055C22.6245 30.5829 23.1322 30.2844 23.41 29.787C23.6879 29.2896 23.6742 28.703 23.3757 28.2193L23.0121 27.6292C27.091 26.7408 30 23.1559 30 18.9227C30 14.0034 26.0001 10 21.0807 10C16.1614 10 12.1581 14.0034 12.1581 18.9227C12.1581 20.7854 12.7207 22.559 13.791 24.0615L11.2318 28.2193C10.9334 28.703 10.9231 29.293 11.201 29.7905ZM17.3038 26.8094C17.1151 26.8094 16.9607 26.655 16.9607 26.4663V23.4612C16.9607 23.2691 17.1151 23.1182 17.3038 23.1182C17.4925 23.1182 17.6468 23.2691 17.6468 23.4612V26.4663C17.6468 26.655 17.4925 26.8094 17.3038 26.8094ZM17.6468 28.0512V28.1747C17.6468 28.3634 17.4925 28.5177 17.3038 28.5177C17.1151 28.5177 16.9607 28.3634 16.9607 28.1747V28.0512C16.9607 27.8625 17.1151 27.7081 17.3038 27.7081C17.4925 27.7081 17.6468 27.8625 17.6468 28.0512ZM18.6245 20.4973C18.4865 20.271 18.2924 20.0843 18.061 19.9551C17.8296 19.8258 17.5688 19.7586 17.3038 19.7597C16.7618 19.7597 16.2678 20.0342 15.9831 20.4973L14.9951 22.1027C14.4805 21.1285 14.2095 20.0376 14.2095 18.9227C14.2095 15.1354 17.2935 12.0514 21.0807 12.0514C24.868 12.0514 27.9486 15.1354 27.9486 18.9227C27.9486 22.4012 25.2865 25.3617 21.8526 25.7459L18.6245 20.4973ZM12.8442 18.9227C12.8442 14.3807 16.5388 10.6861 21.0807 10.6861C25.6193 10.6861 29.3139 14.3807 29.3139 18.9227C29.3139 22.9089 26.5181 26.2742 22.6313 27.0083L22.2471 26.384C25.8697 25.818 28.6347 22.6413 28.6347 18.9227C28.6347 14.7546 25.2454 11.3653 21.0807 11.3653C16.9127 11.3653 13.5234 14.7546 13.5234 18.9227C13.5234 20.288 13.887 21.6156 14.5834 22.7751L14.182 23.4235C13.3038 22.089 12.8442 20.5453 12.8442 18.9227Z" fill="white"/>
<defs>
<filter id="filter0_b_216_10539" x="-44" y="-44" width="128" height="128" filterUnits="userSpaceOnUse" color-interpolation-filters="sRGB">
<feFlood flood-opacity="0" result="BackgroundImageFix"/>
<feGaussianBlur in="BackgroundImageFix" stdDeviation="22"/>
<feComposite in2="SourceAlpha" operator="in" result="effect1_backgroundBlur_216_10539"/>
<feBlend mode="normal" in="SourceGraphic" in2="effect1_backgroundBlur_216_10539" result="shape"/>
</filter>
</defs>
</svg>
