<svg width="20" height="18" viewBox="0 0 20 18" fill="none" xmlns="http://www.w3.org/2000/svg">
<path d="M3.94906 4.72363V1.86598C3.94906 1.62395 3.75285 1.42773 3.51082 1.42773H2.05055C1.80852 1.42773 1.6123 1.62395 1.6123 1.86598V4.72363" fill="#E5E9EA"/>
<path d="M2.67352 4.72363V1.42773H2.05055C1.80852 1.42773 1.6123 1.62395 1.6123 1.86598V4.72363" fill="#D1D1D1"/>
<path d="M20 5.24496V15.9368C20 16.6698 19.4057 17.2641 18.6727 17.2641H1.32734C0.594297 17.2641 0 16.6698 0 15.9368V5.24496C0 4.51191 0.594297 3.91762 1.32734 3.91762H3.95195C4.51727 3.91762 5.02094 3.55965 5.20625 3.02539L5.69074 1.62703C5.78112 1.36634 5.95048 1.14029 6.17528 0.980312C6.40007 0.82033 6.66913 0.734367 6.94504 0.734375H14.6878C15.2531 0.734375 15.7563 1.09273 15.9416 1.62703L16.4265 3.02539C16.5169 3.28597 16.6862 3.51193 16.9109 3.67183C17.1356 3.83174 17.4046 3.91765 17.6804 3.91762H18.6726C19.4057 3.91762 20 4.51191 20 5.24496Z" fill="#FCB65F"/>
<path d="M2.36816 17.2641H1.32734C0.594297 17.2641 0 16.6698 0 15.9368V5.24496C0 4.51191 0.594297 3.91762 1.32734 3.91762H2.2857V3.92008C1.59102 3.96293 1.04082 4.53969 1.04082 5.24496V15.9368C1.04082 16.6699 1.63512 17.2641 2.36816 17.2641ZM7.98582 0.734375C7.70991 0.734373 7.44086 0.820338 7.21606 0.980319C6.99127 1.1403 6.82191 1.36635 6.73152 1.62703L6.24703 3.02539C6.06172 3.55969 5.55805 3.91762 4.99273 3.91762H4.10211V3.90906C4.60496 3.85191 5.03762 3.51191 5.20617 3.02539L5.69066 1.62703C5.78104 1.36634 5.9504 1.14029 6.1752 0.980312C6.39999 0.82033 6.66905 0.734367 6.94496 0.734375H7.98582Z" fill="#E29A4B"/>
<path d="M20 7.5293V15.9362C20 16.6693 19.4057 17.2636 18.6727 17.2636H1.32734C0.594297 17.2636 0 16.6693 0 15.9362V7.5293H20Z" fill="#53BCE9"/>
<path d="M2.36816 17.2636H1.32734C0.594297 17.2636 0 16.6693 0 15.9362V7.5293H1.04082V15.9362C1.04082 16.6693 1.63512 17.2636 2.36816 17.2636Z" fill="#36A6CE"/>
<path d="M9.99992 16.0194C13.0542 16.0194 15.5301 13.5434 15.5301 10.4892C15.5301 7.43494 13.0542 4.95898 9.99992 4.95898C6.94568 4.95898 4.46973 7.43494 4.46973 10.4892C4.46973 13.5434 6.94568 16.0194 9.99992 16.0194Z" fill="#E5E9EA"/>
<path d="M13.9106 10.4884C13.9106 11.6398 13.4131 12.6749 12.6208 13.3908C11.9274 14.0173 11.009 14.3989 10.0004 14.3989C8.99227 14.3989 8.07348 14.0173 7.38004 13.3908C6.58781 12.6753 6.08984 11.6398 6.08984 10.4883C6.08984 9.33687 6.58781 8.30137 7.38004 7.58629C8.07352 6.95934 8.99227 6.57812 10.0004 6.57812C11.009 6.57812 11.9274 6.95977 12.6208 7.58629C13.4131 8.30184 13.9106 9.33691 13.9106 10.4884Z" fill="#566368"/>
<path d="M12.7649 7.72321C13.5791 8.53739 13.9592 9.62114 13.9052 10.6876C12.8388 10.7415 11.755 10.3614 10.9408 9.54727C10.1267 8.73309 9.74654 7.64934 9.8008 6.58321C10.8669 6.52895 11.9507 6.90907 12.7649 7.72321ZM9.05908 11.4291C9.87326 12.2432 10.2534 13.327 10.1994 14.3934C9.13322 14.4477 8.04888 14.0676 7.23474 13.2534C6.42056 12.4392 6.04044 11.3549 6.09498 10.289C7.16115 10.2347 8.2449 10.6148 9.05908 11.4291Z" fill="#6F7B7F"/>
<path d="M9.99969 14.7064C7.67473 14.7064 5.7832 12.8149 5.7832 10.4899C5.7832 8.16496 7.67473 6.27344 9.99969 6.27344C12.3246 6.27344 14.2162 8.16492 14.2162 10.4899C14.2162 12.8149 12.3246 14.7064 9.99969 14.7064ZM9.99969 6.88566C8.0123 6.88566 6.39543 8.50254 6.39543 10.4899C6.39543 12.4773 8.0123 14.0942 9.99969 14.0942C11.9871 14.0942 13.6039 12.4773 13.6039 10.4899C13.6039 8.50254 11.9871 6.88566 9.99969 6.88566Z" fill="#435054"/>
<path d="M9.99941 8.91992C9.13387 8.91992 8.42969 9.6241 8.42969 10.4897C8.42969 11.3553 9.13387 12.0594 9.99941 12.0594C10.865 12.0594 11.5691 11.3552 11.5691 10.4897C11.5691 9.62414 10.865 8.91992 9.99941 8.91992Z" fill="#435054"/>
<path d="M11.9867 3.61141H14.3923C14.7086 3.61141 14.965 3.35504 14.965 3.03875V2.40859C14.965 2.09234 14.7086 1.83594 14.3923 1.83594H11.9867C11.6705 1.83594 11.4141 2.0923 11.4141 2.40859V3.03875C11.4141 3.355 11.6705 3.61141 11.9867 3.61141Z" fill="#E5E9EA"/>
<path d="M14.3918 3.91695H11.9862C11.5016 3.91695 11.1074 3.52273 11.1074 3.03816V2.40809C11.1074 1.92352 11.5016 1.5293 11.9862 1.5293H14.3918C14.8764 1.5293 15.2706 1.92352 15.2706 2.40809V3.0382C15.2705 3.52277 14.8763 3.91695 14.3918 3.91695ZM11.9862 2.14152C11.9155 2.1416 11.8478 2.1697 11.7978 2.21967C11.7479 2.26963 11.7198 2.33738 11.7197 2.40805V3.03816C11.7198 3.10883 11.7479 3.17658 11.7978 3.22654C11.8478 3.27651 11.9155 3.30462 11.9862 3.30469H14.3918C14.4625 3.30462 14.5302 3.27651 14.5802 3.22654C14.6301 3.17658 14.6582 3.10883 14.6583 3.03816V2.40809C14.6582 2.33742 14.6301 2.26967 14.5802 2.21971C14.5302 2.16974 14.4625 2.14163 14.3918 2.14156L11.9862 2.14152Z" fill="#E29A4B"/>
<path d="M3.80227 16.1319C4.41362 16.1319 4.90922 15.6363 4.90922 15.0249C4.90922 14.4136 4.41362 13.918 3.80227 13.918C3.19091 13.918 2.69531 14.4136 2.69531 15.0249C2.69531 15.6363 3.19091 16.1319 3.80227 16.1319Z" fill="#566368"/>
</svg>
