<svg width="24" height="24" viewBox="0 0 24 24" fill="none" xmlns="http://www.w3.org/2000/svg">
<path d="M19.7209 2.99994H4.19435C3.53746 2.99994 3 3.53994 3 4.19994V6.59995C3 7.25995 3.53746 7.79996 4.19435 7.79996H19.7209C20.3778 7.79996 20.9153 7.25995 20.9153 6.59995V4.19994C20.9153 3.53994 20.3778 2.99994 19.7209 2.99994ZM12.2562 6.59995V4.19994H19.7209V6.59995H12.2562Z" fill="white"/>
<path d="M19.7209 9.59979H4.19435C3.53746 9.59979 3 10.1398 3 10.7998V13.1998C3 13.8598 3.53746 14.3998 4.19435 14.3998H19.7209C20.3778 14.3998 20.9153 13.8598 20.9153 13.1998V10.7998C20.9153 10.1398 20.3778 9.59979 19.7209 9.59979ZM9.56893 13.1998V10.7998H19.7209V13.1998H9.56893Z" fill="white"/>
<path d="M19.7209 16.2H4.19435C3.53746 16.2 3 16.74 3 17.4V19.8C3 20.46 3.53746 21 4.19435 21H19.7209C20.3778 21 20.9153 20.46 20.9153 19.8V17.4C20.9153 16.74 20.3778 16.2 19.7209 16.2ZM14.9435 19.8V17.4H19.7209V19.8H14.9435Z" fill="white"/>
</svg>
