<svg width="49" height="49" viewBox="0 0 49 49" fill="none" xmlns="http://www.w3.org/2000/svg">
<rect width="48.3218" height="48.3218" rx="24.1609" fill="#514DFB"/>
<path d="M32.6773 14.5908H15.0874C14.3433 14.5908 13.7344 15.2026 13.7344 15.9503V18.6692C13.7344 19.4169 14.3433 20.0287 15.0874 20.0287H32.6773C33.4215 20.0287 34.0304 19.4169 34.0304 18.6692V15.9503C34.0304 15.2026 33.4215 14.5908 32.6773 14.5908ZM24.2207 18.6692V15.9503H32.6773V18.6692H24.2207Z" fill="white"/>
<path d="M32.6773 22.0674H15.0874C14.3433 22.0674 13.7344 22.6791 13.7344 23.4269V26.1458C13.7344 26.8935 14.3433 27.5053 15.0874 27.5053H32.6773C33.4215 27.5053 34.0304 26.8935 34.0304 26.1458V23.4269C34.0304 22.6791 33.4215 22.0674 32.6773 22.0674ZM21.1763 26.1458V23.4269H32.6773V26.1458H21.1763Z" fill="white"/>
<path d="M32.6773 29.5449H15.0874C14.3433 29.5449 13.7344 30.1567 13.7344 30.9044V33.6233C13.7344 34.3711 14.3433 34.9828 15.0874 34.9828H32.6773C33.4215 34.9828 34.0304 34.3711 34.0304 33.6233V30.9044C34.0304 30.1567 33.4215 29.5449 32.6773 29.5449ZM27.2651 33.6233V30.9044H32.6773V33.6233H27.2651Z" fill="white"/>
</svg>
