<svg width="16" height="22" viewBox="0 0 16 22" fill="none" xmlns="http://www.w3.org/2000/svg">
<path d="M13.9084 9.68V6.0236C13.9084 2.7016 11.2068 0 7.8892 0C4.5672 0 1.8612 2.7016 1.8612 6.0236V9.68H5.1832V6.0236C5.1832 4.5364 6.3976 3.322 7.8892 3.322C9.3764 3.322 10.5908 4.5364 10.5908 6.0236V9.68H13.9084ZM0 11.9988V20.5612C0 21.3576 0.6468 22 1.4388 22H14.3352C15.1272 22 15.774 21.3576 15.774 20.5612V11.9988C15.774 11.2024 15.1272 10.56 14.3352 10.56H1.4388C0.6468 10.56 0 11.2024 0 11.9988ZM4.72032 16.2879C4.80283 16.2054 4.91473 16.1591 5.0314 16.1591C5.14807 16.1591 5.25997 16.2054 5.34248 16.2879L6.72232 17.6673L10.4315 13.9581C10.4721 13.9161 10.5207 13.8826 10.5744 13.8596C10.6281 13.8366 10.6859 13.8245 10.7443 13.824C10.8027 13.8236 10.8606 13.8347 10.9147 13.8569C10.9687 13.8791 11.0178 13.9118 11.0591 13.9531C11.1004 13.9945 11.1331 14.0436 11.1551 14.0977C11.1772 14.1518 11.1883 14.2097 11.1878 14.2682C11.1872 14.3266 11.175 14.3843 11.1519 14.438C11.1288 14.4916 11.0953 14.5402 11.0532 14.5807L7.0334 18.6006C6.99263 18.6416 6.94416 18.6741 6.89078 18.6963C6.83739 18.7185 6.78014 18.7299 6.72232 18.7299C6.6645 18.7299 6.60725 18.7185 6.55386 18.6963C6.50048 18.6741 6.45201 18.6416 6.41124 18.6006L4.72032 16.9101C4.63783 16.8276 4.59149 16.7157 4.59149 16.599C4.59149 16.4823 4.63783 16.3704 4.72032 16.2879Z" fill="white"/>
</svg>
