<svg width="30" height="30" viewBox="0 0 30 30" fill="none" xmlns="http://www.w3.org/2000/svg">
<path d="M10.8398 7.83359C10.8398 5.46421 12.7611 3.54297 15.1308 3.54297C17.5005 3.54297 19.4214 5.4639 19.4214 7.83359V14.8675C19.4214 17.2372 17.5005 19.1581 15.1308 19.1581C12.7611 19.1581 10.8398 17.2372 10.8398 14.8675V7.83359Z" fill="#F72828"/>
<path d="M8.93247 14.6811C8.93247 14.4678 8.84775 14.2633 8.69694 14.1125C8.54614 13.9617 8.34161 13.877 8.12834 13.877C7.91508 13.877 7.71054 13.9617 7.55974 14.1125C7.40894 14.2633 7.32422 14.4678 7.32422 14.6811V14.802C7.32422 18.8313 10.3957 22.143 14.325 22.5238V25.143L10.9088 25.1356C10.6955 25.1352 10.4908 25.2195 10.3397 25.37C10.1886 25.5206 10.1035 25.7249 10.1031 25.9382C10.1027 26.1515 10.187 26.3562 10.3375 26.5072C10.488 26.6583 10.6924 26.7435 10.9057 26.7439L19.2562 26.7618C19.4694 26.7622 19.6741 26.6779 19.8252 26.5274C19.9763 26.3769 20.0614 26.1725 20.0618 25.9592C20.0623 25.746 19.9779 25.5413 19.8274 25.3902C19.6769 25.2391 19.4725 25.154 19.2593 25.1536L15.9333 25.1464V22.5142C19.8178 22.0905 22.8407 18.7991 22.8407 14.802V14.6814C22.8407 14.4681 22.756 14.2636 22.6052 14.1128C22.4544 13.962 22.2499 13.8773 22.0366 13.8773C21.8233 13.8773 21.6188 13.962 21.468 14.1128C21.3172 14.2636 21.2325 14.4681 21.2325 14.6814V14.802C21.2325 18.1985 18.479 20.952 15.0825 20.952C11.686 20.952 8.93247 18.1985 8.93247 14.802V14.6811Z" fill="#F72828"/>
</svg>
