<svg width="24" height="24" viewBox="0 0 24 24" fill="none" xmlns="http://www.w3.org/2000/svg">
<path d="M20.8275 1.52437C20.7341 1.46189 18.5149 0 16.2188 0C14.3511 0 12.9826 0.760125 11.6588 1.49484C10.4379 2.17256 9.2843 2.8125 7.78125 2.8125C6.35475 2.8125 4.88789 2.0692 4.26562 1.71258V0H2.85938V24H4.26562V14.5482C5.14598 14.9746 6.444 15.4688 7.78125 15.4688C9.64894 15.4688 11.0174 14.7086 12.3412 13.9739C13.5621 13.2962 14.7157 12.6562 16.2188 12.6562C18.083 12.6562 20.0289 13.932 20.0482 13.9451L21.1406 14.6695V1.73311L20.8275 1.52437Z" fill="white"/>
</svg>
