<svg width="24" height="24" viewBox="0 0 24 24" fill="none" xmlns="http://www.w3.org/2000/svg">
<g clip-path="url(#clip0_200_13788)">
<path d="M12 0C5.3832 0 0 5.3832 0 12C0 18.6168 5.3832 24 12 24C18.6168 24 24 18.6168 24 12C24 5.3832 18.6169 0 12 0ZM12 21.8182C6.58625 21.8182 2.18182 17.4138 2.18182 12C2.18182 6.58618 6.58625 2.18182 12 2.18182C17.4137 2.18182 21.8182 6.58625 21.8182 12C21.8182 17.4137 17.4137 21.8182 12 21.8182Z" fill="white"/>
<path d="M11.9996 13.0786C11.9996 13.0786 11.9997 13.0786 11.9996 13.0786C10.3096 13.0786 8.72059 13.7368 7.52561 14.9318C7.09957 15.3578 7.09957 16.0486 7.52561 16.4746C7.73863 16.6876 8.01782 16.7942 8.29702 16.7942C8.57622 16.7942 8.85542 16.6876 9.06837 16.4746C9.85135 15.6916 10.8924 15.2605 11.9996 15.2605C13.1069 15.2605 14.1479 15.6917 14.9309 16.4746C15.3569 16.9006 16.0476 16.9006 16.4737 16.4746C16.8997 16.0486 16.8997 15.3579 16.4737 14.9318C15.2786 13.7368 13.6898 13.0786 11.9996 13.0786ZM8.37353 10.7017C8.64481 10.4311 8.79972 10.0558 8.79972 9.6733C8.79972 9.29075 8.64481 8.91548 8.37353 8.64486C8.10299 8.37439 7.72772 8.21875 7.34517 8.21875C6.9619 8.21875 6.58735 8.37439 6.31681 8.64486C6.04626 8.91548 5.89062 9.29075 5.89062 9.6733C5.89062 10.0558 6.04626 10.4311 6.31681 10.7017C6.58735 10.9722 6.96262 11.1278 7.34517 11.1278C7.72772 11.1278 8.10299 10.9722 8.37353 10.7017ZM16.6543 8.21875C16.271 8.21875 15.8964 8.37439 15.6259 8.64486C15.3546 8.91548 15.1997 9.29075 15.1997 9.6733C15.1997 10.0558 15.3546 10.4311 15.6259 10.7017C15.8964 10.9722 16.2717 11.1278 16.6543 11.1278C17.0368 11.1278 17.4121 10.9721 17.6826 10.7017C17.9539 10.4311 18.1088 10.0558 18.1088 9.6733C18.1088 9.29075 17.9539 8.91548 17.6826 8.64486C17.4121 8.37439 17.0368 8.21875 16.6543 8.21875Z" fill="white"/>
</g>
<defs>
<clipPath id="clip0_200_13788">
<rect width="24" height="24" fill="white"/>
</clipPath>
</defs>
</svg>
