<svg width="24" height="24" viewBox="0 0 24 24" fill="none" xmlns="http://www.w3.org/2000/svg">
<path d="M11.51 21.5575C5.97074 21.5575 1.46094 17.0477 1.46094 11.5085C1.46094 5.96928 5.97074 1.45947 11.51 1.45947C17.0492 1.45947 21.559 5.96928 21.559 11.5085C21.559 17.0477 17.0492 21.5575 11.51 21.5575ZM11.51 2.93006C6.77466 2.93006 2.93153 6.783 2.93153 11.5085C2.93153 16.234 6.77466 20.0869 11.51 20.0869C16.2453 20.0869 20.0884 16.234 20.0884 11.5085C20.0884 6.783 16.2453 2.93006 11.51 2.93006Z" fill="white"/>
<path d="M21.803 22.5383C21.6167 22.5383 21.4305 22.4697 21.2834 22.3226L19.3226 20.3618C19.0383 20.0775 19.0383 19.6069 19.3226 19.3226C19.6069 19.0383 20.0775 19.0383 20.3618 19.3226L22.3226 21.2834C22.6069 21.5677 22.6069 22.0383 22.3226 22.3226C22.1756 22.4697 21.9893 22.5383 21.803 22.5383Z" fill="white"/>
</svg>
