<svg width="20" height="24" viewBox="0 0 20 24" fill="none" xmlns="http://www.w3.org/2000/svg">
<path fillRule="evenodd" clipRule="evenodd" d="M0.763277 3.54764C0.518355 7.91081 0.378433 12.2929 1.51384 15.9346C2.64306 19.5566 5.06814 22.4873 9.99939 24C14.9306 22.4873 17.3557 19.5566 18.4849 15.9346C19.6203 12.2929 19.4804 7.91081 19.2355 3.54764L9.99939 0L0.763277 3.54764ZM5.74956 14.6813V9.98527C5.75013 9.63674 5.88884 9.30265 6.13529 9.05621C6.38174 8.80977 6.71583 8.67107 7.06436 8.67052H7.20967V7.4265C7.21269 6.68857 7.50796 5.9819 8.03082 5.46117C8.55369 4.94044 9.26157 4.64808 9.9995 4.64808C10.7374 4.64808 11.4453 4.94044 11.9682 5.46117C12.4911 5.9819 12.7863 6.68857 12.7893 7.4265V8.67052H12.9347C13.2832 8.67107 13.6173 8.80977 13.8637 9.05621C14.1102 9.30265 14.2489 9.63674 14.2494 9.98527V14.6813C14.2489 15.0298 14.1102 15.3639 13.8637 15.6103C13.6173 15.8567 13.2832 15.9954 12.9347 15.996H7.06436C6.71583 15.9954 6.38174 15.8567 6.13529 15.6103C5.88884 15.3639 5.75013 15.0298 5.74956 14.6813ZM6.99442 9.98517C6.99493 9.96678 7.00246 9.94929 7.01546 9.93628C7.02847 9.92327 7.04597 9.91574 7.06436 9.91523H12.9344C12.9528 9.91574 12.9703 9.92327 12.9833 9.93628C12.9963 9.94929 13.0038 9.96678 13.0044 9.98517V14.6813C13.0039 14.6996 12.9963 14.7171 12.9833 14.7301C12.9703 14.7431 12.9528 14.7507 12.9344 14.7511H7.06436C7.04597 14.7507 7.02847 14.7431 7.01546 14.7301C7.00244 14.7171 6.99492 14.6996 6.99442 14.6813V9.98527V9.98517ZM8.45439 8.67042V7.4265C8.45439 7.01674 8.61716 6.62376 8.90691 6.33402C9.19665 6.04428 9.58963 5.8815 9.99939 5.8815C10.4091 5.8815 10.8021 6.04428 11.0919 6.33402C11.3816 6.62376 11.5444 7.01674 11.5444 7.4265V8.67052L8.45439 8.67042Z" fill="white"/>
</svg>
