<svg width="40" height="40" viewBox="0 0 40 40" fill="none" xmlns="http://www.w3.org/2000/svg">
<g filter="url(#filter0_b_216_5461)">
<rect width="40" height="40" rx="10" fill="white" fill-opacity="0.1"/>
</g>
<path fill-rule="evenodd" clip-rule="evenodd" d="M10.7633 11.5476C10.5184 15.9108 10.3784 20.2929 11.5138 23.9346C12.6431 27.5566 15.0681 30.4873 19.9994 32C24.9306 30.4873 27.3557 27.5566 28.4849 23.9346C29.6203 20.2929 29.4804 15.9108 29.2355 11.5476L19.9994 8L10.7633 11.5476ZM15.7496 22.6813V17.9853C15.7501 17.6367 15.8888 17.3027 16.1353 17.0562C16.3817 16.8098 16.7158 16.6711 17.0644 16.6705H17.2097V15.4265C17.2127 14.6886 17.508 13.9819 18.0308 13.4612C18.5537 12.9404 19.2616 12.6481 19.9995 12.6481C20.7374 12.6481 21.4453 12.9404 21.9682 13.4612C22.4911 13.9819 22.7863 14.6886 22.7893 15.4265V16.6705H22.9347C23.2832 16.6711 23.6173 16.8098 23.8637 17.0562C24.1102 17.3027 24.2489 17.6367 24.2494 17.9853V22.6813C24.2489 23.0298 24.1102 23.3639 23.8637 23.6103C23.6173 23.8567 23.2832 23.9954 22.9347 23.996H17.0644C16.7158 23.9954 16.3817 23.8567 16.1353 23.6103C15.8888 23.3639 15.7501 23.0298 15.7496 22.6813ZM16.9944 17.9852C16.9949 17.9668 17.0025 17.9493 17.0155 17.9363C17.0285 17.9233 17.046 17.9157 17.0644 17.9152H22.9344C22.9528 17.9157 22.9703 17.9233 22.9833 17.9363C22.9963 17.9493 23.0038 17.9668 23.0044 17.9852V22.6813C23.0039 22.6996 22.9963 22.7171 22.9833 22.7301C22.9703 22.7431 22.9528 22.7507 22.9344 22.7511H17.0644C17.046 22.7507 17.0285 22.7431 17.0155 22.7301C17.0024 22.7171 16.9949 22.6996 16.9944 22.6813V17.9853V17.9852ZM18.4544 16.6704V15.4265C18.4544 15.0167 18.6172 14.6238 18.9069 14.334C19.1967 14.0443 19.5896 13.8815 19.9994 13.8815C20.4091 13.8815 20.8021 14.0443 21.0919 14.334C21.3816 14.6238 21.5444 15.0167 21.5444 15.4265V16.6705L18.4544 16.6704Z" fill="white"/>
<defs>
<filter id="filter0_b_216_5461" x="-44" y="-44" width="128" height="128" filterUnits="userSpaceOnUse" color-interpolation-filters="sRGB">
<feFlood flood-opacity="0" result="BackgroundImageFix"/>
<feGaussianBlur in="BackgroundImageFix" stdDeviation="22"/>
<feComposite in2="SourceAlpha" operator="in" result="effect1_backgroundBlur_216_5461"/>
<feBlend mode="normal" in="SourceGraphic" in2="effect1_backgroundBlur_216_5461" result="shape"/>
</filter>
</defs>
</svg>
