<svg width="48" height="48" viewBox="0 0 48 48" fill="none" xmlns="http://www.w3.org/2000/svg">
<rect width="48" height="48" rx="10" fill="#504DFB"/>
<path d="M29.1754 12.7008L17.8879 16.4508C10.3004 18.9883 10.3004 23.1258 17.8879 25.6508L21.2379 26.7633L22.3504 30.1133C24.8754 37.7008 29.0254 37.7008 31.5504 30.1133L35.3129 18.8383C36.9879 13.7758 34.2379 11.0133 29.1754 12.7008ZM29.5754 19.4258L24.8254 24.2008C24.6379 24.3883 24.4004 24.4758 24.1629 24.4758C23.9254 24.4758 23.6879 24.3883 23.5004 24.2008C23.1379 23.8383 23.1379 23.2383 23.5004 22.8758L28.2504 18.1008C28.6129 17.7383 29.2129 17.7383 29.5754 18.1008C29.9379 18.4633 29.9379 19.0633 29.5754 19.4258Z" fill="white"/>
</svg>
