<svg width="20" height="21" viewBox="0 0 20 21" fill="none" xmlns="http://www.w3.org/2000/svg">
<path fillRule="evenodd" clipRule="evenodd" d="M7.02857 1.51074C7.02853 1.28425 7.10537 1.06445 7.24653 0.887329C7.38768 0.710205 7.58478 0.586245 7.80557 0.535738C9.26859 0.202583 10.7879 0.203267 12.2506 0.537738C12.4715 0.588049 12.6689 0.711925 12.8102 0.889067C12.9516 1.06621 13.0286 1.28611 13.0286 1.51274V3.35974C13.0286 3.53527 13.0748 3.70771 13.1626 3.85973C13.2503 4.01174 13.3766 4.13798 13.5286 4.22574C13.6806 4.31351 13.853 4.35971 14.0286 4.35971C14.2041 4.35971 14.3766 4.3135 14.5286 4.22574L16.1296 3.30074C16.326 3.18736 16.5551 3.14411 16.7793 3.17809C17.0035 3.21207 17.2096 3.32126 17.3636 3.48774C18.3813 4.58893 19.1401 5.90363 19.5846 7.33574C19.6517 7.55232 19.6432 7.78528 19.5606 7.99642C19.4779 8.20755 19.3259 8.38433 19.1296 8.49774L17.5286 9.42174C17.3766 9.50951 17.2503 9.63574 17.1626 9.78776C17.0748 9.93977 17.0286 10.1122 17.0286 10.2877C17.0286 10.4633 17.0748 10.6357 17.1626 10.7877C17.2503 10.9397 17.3766 11.066 17.5286 11.1537L19.1286 12.0767C19.3247 12.1901 19.4765 12.3667 19.5592 12.5776C19.6419 12.7886 19.6505 13.0213 19.5836 13.2377C19.1422 14.6718 18.3834 15.9881 17.3636 17.0887C17.2094 17.2551 17.0034 17.364 16.7791 17.3978C16.5549 17.4316 16.3259 17.3882 16.1296 17.2747L14.5286 16.3497C14.3766 16.262 14.2041 16.2158 14.0286 16.2158C13.853 16.2158 13.6806 16.262 13.5286 16.3497C13.3766 16.4375 13.2503 16.5637 13.1626 16.7157C13.0748 16.8678 13.0286 17.0402 13.0286 17.2157V19.0657C13.0283 19.2922 12.9512 19.5119 12.8099 19.6888C12.6686 19.8657 12.4714 19.9895 12.2506 20.0397C10.7876 20.3729 9.26829 20.3722 7.80557 20.0377C7.58478 19.9872 7.38768 19.8633 7.24653 19.6861C7.10537 19.509 7.02853 19.2892 7.02857 19.0627V17.2157C7.02856 17.0402 6.98235 16.8678 6.89458 16.7157C6.80681 16.5637 6.68058 16.4375 6.52856 16.3497C6.37654 16.262 6.2041 16.2158 6.02856 16.2158C5.85303 16.2158 5.68059 16.262 5.52857 16.3497L3.92757 17.2747C3.73116 17.3881 3.50204 17.4314 3.27781 17.3974C3.05359 17.3634 2.84757 17.2542 2.69357 17.0877C2.18621 16.539 1.74179 15.9352 1.36857 15.2877C0.994508 14.6406 0.693974 13.9537 0.472568 13.2397C0.405436 13.0232 0.413901 12.7902 0.496575 12.5791C0.579248 12.3679 0.731223 12.1911 0.927568 12.0777L2.52757 11.1537C2.67958 11.066 2.8058 10.9397 2.89356 10.7877C2.98132 10.6357 3.02752 10.4633 3.02752 10.2877C3.02752 10.1122 2.98132 9.93977 2.89356 9.78776C2.8058 9.63574 2.67958 9.50951 2.52757 9.42174L0.929568 8.49874C0.733254 8.38552 0.581216 8.20898 0.498368 7.99805C0.41552 7.78711 0.406776 7.55429 0.473568 7.33774C0.915106 5.90399 1.67388 4.5881 2.69357 3.48774C2.84751 3.3215 3.05334 3.21246 3.27735 3.17849C3.50135 3.14451 3.73026 3.18762 3.92657 3.30074L5.52857 4.22574C5.68059 4.3135 5.85303 4.35971 6.02856 4.35971C6.2041 4.35971 6.37654 4.31351 6.52856 4.22574C6.68058 4.13798 6.80681 4.01174 6.89458 3.85973C6.98235 3.70771 7.02856 3.53527 7.02857 3.35974V1.51074ZM10.0286 13.2877C10.8242 13.2877 11.5873 12.9717 12.1499 12.4091C12.7125 11.8464 13.0286 11.0834 13.0286 10.2877C13.0286 9.49209 12.7125 8.72902 12.1499 8.16642C11.5873 7.60381 10.8242 7.28774 10.0286 7.28774C9.23292 7.28774 8.46986 7.60381 7.90725 8.16642C7.34464 8.72902 7.02857 9.49209 7.02857 10.2877C7.02857 11.0834 7.34464 11.8464 7.90725 12.4091C8.46986 12.9717 9.23292 13.2877 10.0286 13.2877Z" fill="white"/>
</svg>
