<svg width="20" height="20" viewBox="0 0 20 20" fill="none" xmlns="http://www.w3.org/2000/svg">
<path d="M13.9016 0.960043L4.87159 3.96004C-1.19841 5.99004 -1.19841 9.30004 4.87159 11.32L7.55159 12.21L8.44159 14.89C10.4616 20.96 13.7816 20.96 15.8016 14.89L18.8116 5.87004C20.1516 1.82004 17.9516 -0.389957 13.9016 0.960043ZM14.2216 6.34004L10.4216 10.16C10.2716 10.31 10.0816 10.38 9.89159 10.38C9.70159 10.38 9.51159 10.31 9.36159 10.16C9.07159 9.87004 9.07159 9.39004 9.36159 9.10004L13.1616 5.28004C13.4516 4.99004 13.9316 4.99004 14.2216 5.28004C14.5116 5.57004 14.5116 6.05004 14.2216 6.34004Z" fill="white"/>
</svg>
