<svg width="20" height="20" viewBox="0 0 20 20" fill="none" xmlns="http://www.w3.org/2000/svg">
<path d="M8.60191 17.4752L7.75988 18.6147L4.64926 16.3242L3.28809 18.188L5.36734 19.7065L9.82168 19.7065L10.4008 18.775L8.60191 17.4752Z" fill="#FFB09E"/>
<path d="M13.1411 15.3567L12.7975 15.1084C11.8955 14.4567 10.6359 14.6596 9.98422 15.5616L8.60156 17.4752L10.5784 18.9035L13.1411 15.3567Z" fill="#68C0E0"/>
<path d="M18.9745 19.7061H10.4004V17.6513C10.4004 16.0145 11.7273 14.6875 13.3642 14.6875H16.7873C17.9953 14.6875 18.9745 15.6668 18.9745 16.8747V19.7061H18.9745Z" fill="#68C0E0"/>
<path d="M14.0479 16.2316C13.2583 16.2316 12.6182 15.5915 12.6182 14.8019V12.5469H15.4776V14.8019C15.4776 15.5915 14.8375 16.2316 14.0479 16.2316Z" fill="#FFCEBF"/>
<path d="M9.23906 0.712891H11.4649C12.5128 0.712891 13.4941 0.997656 14.3361 1.49355C14.714 1.01809 15.2969 0.712891 15.9514 0.712891C17.4763 0.712891 18.7125 1.9491 18.7125 3.47402V9.98602C18.7125 10.6115 18.2055 11.1185 17.58 11.1185H17.0117L13.8888 7.91594H6.71387V3.23809C6.71387 1.84348 7.84445 0.712891 9.23906 0.712891Z" fill="#494A47"/>
<path d="M10.1496 0.712891H9.23906C7.84441 0.712891 6.71387 1.84348 6.71387 3.23809V7.91594H7.62438V3.23809C7.62438 1.84348 8.75492 0.712891 10.1496 0.712891Z" fill="#333331"/>
<path d="M17.9337 6.35938C18.8938 6.38137 19.6656 7.16602 19.6656 8.13148C19.6656 9.09695 18.8938 9.8816 17.9337 9.90359H15.9268V6.35938H17.9337Z" fill="#FFB09E"/>
<path d="M11.2303 14.2002H12.6039C15.1948 14.2002 17.2952 12.0998 17.2952 9.50891L17.0153 7.18492C17.0153 5.42805 15.5911 4.00391 13.8343 4.00391H10C8.24316 4.00391 6.81902 5.42809 6.81902 7.18492L6.53906 9.50891C6.53902 12.0998 8.63934 14.2002 11.2303 14.2002Z" fill="#FFCEBF"/>
<path d="M7.74996 9.50891L8.02992 7.18492C8.02992 5.42805 9.4541 4.00391 11.2109 4.00391H10C8.24316 4.00391 6.81902 5.42809 6.81902 7.18492L6.53906 9.50891C6.53906 12.0998 8.63941 14.2002 11.2304 14.2002H12.4412C9.85031 14.2002 7.74996 12.0998 7.74996 9.50891Z" fill="#FFB09E"/>
<path d="M10.8912 12.7003C11.4696 12.7003 11.9386 12.2314 11.9386 11.6529C11.9386 11.0744 11.4696 10.6055 10.8912 10.6055C10.3127 10.6055 9.84375 11.0744 9.84375 11.6529C9.84375 12.2314 10.3127 12.7003 10.8912 12.7003Z" fill="#E15F4F"/>
<path d="M2.8798 19.0059L1.66602 17.7921L4.71566 14.5215L6.15039 15.9562L2.8798 19.0059Z" fill="#494A47"/>
<path d="M1.88691 18.0098L2.6625 18.7854L1.88691 19.5609L1.11133 18.7854L1.88691 18.0098Z" fill="#494A47"/>
<path d="M6.55117 16.0027C7.5907 16.0027 8.4334 15.16 8.4334 14.1205C8.4334 13.081 7.5907 12.2383 6.55117 12.2383C5.51165 12.2383 4.66895 13.081 4.66895 14.1205C4.66895 15.16 5.51165 16.0027 6.55117 16.0027Z" fill="#494A47"/>
<path d="M2.07755 17.1914L1.9261 17.04C1.56239 16.6763 1.56239 16.0866 1.9261 15.7229L2.7629 14.8861C3.12661 14.5224 3.7163 14.5224 4.08001 14.8861L4.23146 15.0375C4.59517 15.4012 4.59517 15.9909 4.23146 16.3546L3.39466 17.1914C3.03095 17.5551 2.44126 17.5551 2.07755 17.1914ZM3.80696 17.8692C3.50595 17.5681 3.50595 17.0801 3.80696 16.7792L4.19606 16.39C4.49708 16.089 4.98509 16.089 5.28606 16.39C5.58708 16.6911 5.58708 17.1791 5.28606 17.48L4.89696 17.8692C4.59599 18.1702 4.10794 18.1702 3.80696 17.8692Z" fill="#FFB09E"/>
<path d="M1.67758 1.24496L1.67746 4.11277H0.9975C0.608945 4.11277 0.293945 4.42777 0.293945 4.81637C0.293945 5.20496 0.608945 5.51996 0.9975 5.51996H1.61895C1.99547 5.51996 2.3007 5.21472 2.3007 4.8382V2.03469L4.34414 1.71851V3.46465H3.66418C3.27562 3.46465 2.96062 3.77965 2.96062 4.16824C2.96062 4.55679 3.27562 4.87179 3.66418 4.87179H4.28562C4.66215 4.87179 4.96738 4.56656 4.96738 4.19004V0.833826C4.96738 0.63992 4.79445 0.491717 4.60281 0.521365L1.94543 0.932498C1.87084 0.944034 1.80283 0.981875 1.75371 1.03918C1.70458 1.09649 1.67758 1.16948 1.67758 1.24496Z" fill="#F8D250"/>
<path d="M5.60854 7.75193C5.60854 7.59509 5.46865 7.47517 5.31365 7.49916L3.85951 7.72412C3.78492 7.73565 3.71691 7.77349 3.66779 7.8308C3.61866 7.88811 3.59166 7.9611 3.59166 8.03658L3.59155 10.9044H2.92315C2.53733 10.9044 2.21451 11.2102 2.20811 11.596C2.20155 11.99 2.51901 12.3115 2.91158 12.3115H3.53303C3.90955 12.3115 4.21479 12.0063 4.21479 11.6298V8.82627L5.39186 8.64416C5.4522 8.63482 5.50721 8.60421 5.54695 8.55785C5.58669 8.51149 5.60854 8.45244 5.60854 8.39138V7.75193Z" fill="#47D186"/>
<path d="M12.8516 8.42233C12.9302 8.34332 13.0237 8.28069 13.1266 8.23804C13.2296 8.1954 13.34 8.17359 13.4514 8.17389C13.678 8.17389 13.8909 8.26213 14.0512 8.42233C14.0893 8.46045 14.1393 8.47951 14.1893 8.47951C14.2392 8.47951 14.2893 8.46045 14.3273 8.42233C14.364 8.3857 14.3845 8.33602 14.3845 8.28422C14.3845 8.23242 14.364 8.18274 14.3273 8.14612C14.0934 7.91213 13.7823 7.78326 13.4514 7.78326C13.1205 7.78326 12.8094 7.91213 12.5755 8.14612C12.557 8.16417 12.5422 8.18571 12.5321 8.2095C12.522 8.2333 12.5167 8.25886 12.5165 8.28472C12.5163 8.31058 12.5213 8.33621 12.5311 8.36013C12.5409 8.38405 12.5554 8.40578 12.5737 8.42407C12.592 8.44235 12.6137 8.45683 12.6376 8.46665C12.6615 8.47647 12.6872 8.48144 12.713 8.48128C12.7389 8.48112 12.7645 8.47582 12.7882 8.4657C12.812 8.45558 12.8336 8.44084 12.8516 8.42233ZM8.2525 8.42233C8.33108 8.34332 8.42454 8.28069 8.52748 8.23804C8.63042 8.1954 8.7408 8.17359 8.85223 8.17389C9.07879 8.17389 9.29176 8.26213 9.45199 8.42233C9.49012 8.46045 9.54012 8.47951 9.59008 8.47951C9.64004 8.47951 9.69008 8.46045 9.72816 8.42233C9.76479 8.3857 9.78537 8.33602 9.78537 8.28422C9.78537 8.23242 9.76479 8.18274 9.72816 8.14612C9.49422 7.91213 9.18312 7.78326 8.85223 7.78326C8.52137 7.78326 8.21027 7.91213 7.97633 8.14612C7.95781 8.16417 7.94307 8.18571 7.93294 8.2095C7.92282 8.2333 7.91752 8.25886 7.91736 8.28472C7.91719 8.31058 7.92216 8.33621 7.93198 8.36013C7.94179 8.38405 7.95626 8.40578 7.97455 8.42407C7.99283 8.44235 8.01456 8.45683 8.03848 8.46665C8.0624 8.47647 8.08803 8.48144 8.11389 8.48128C8.13974 8.48112 8.16531 8.47582 8.18911 8.4657C8.2129 8.45558 8.23445 8.44084 8.2525 8.42233ZM10.8912 12.896C11.5764 12.896 12.1339 12.3385 12.1339 11.6532C12.1339 10.968 11.5764 10.4105 10.8912 10.4105C10.2059 10.4105 9.64848 10.968 9.64848 11.6532C9.64848 12.3385 10.2059 12.896 10.8912 12.896ZM10.8912 10.8012C11.361 10.8012 11.7433 11.1834 11.7433 11.6532C11.7433 12.1231 11.361 12.5053 10.8912 12.5053C10.4213 12.5053 10.0391 12.1231 10.0391 11.6532C10.0391 11.1834 10.4213 10.8012 10.8912 10.8012ZM0.9975 5.71526H1.61891C2.10254 5.71526 2.49598 5.32178 2.49598 4.83815V2.20209L4.14883 1.94639V3.26936H3.66418C3.16855 3.26936 2.76531 3.6726 2.76531 4.16826C2.76531 4.66389 3.16852 5.06713 3.66418 5.06713H4.28562C4.76926 5.06713 5.1627 4.67369 5.1627 4.19006V0.83381C5.1627 0.684318 5.09762 0.542756 4.9841 0.44549C4.9281 0.397431 4.86235 0.36207 4.79138 0.341841C4.72041 0.321612 4.6459 0.316993 4.57297 0.328303L1.91555 0.739474C1.66449 0.778342 1.48227 0.99092 1.48227 1.24494L1.48215 3.91748H0.9975C0.501875 3.91748 0.0986328 4.32072 0.0986328 4.81635C0.0986328 5.31197 0.501875 5.71526 0.9975 5.71526ZM0.9975 4.30811H1.67746C1.72926 4.30811 1.77894 4.28753 1.81557 4.2509C1.8522 4.21427 1.87277 4.16459 1.87277 4.11279L1.87289 1.24494C1.87277 1.21606 1.88304 1.18809 1.90184 1.16616C1.92064 1.14422 1.94671 1.12979 1.97527 1.12549L4.63266 0.714357C4.6499 0.711588 4.66753 0.712632 4.68432 0.717417C4.70112 0.722203 4.71665 0.730612 4.72984 0.742053C4.74315 0.753341 4.75382 0.767406 4.7611 0.783257C4.76839 0.799109 4.77212 0.816364 4.77203 0.83381V4.18998C4.77203 4.45819 4.55379 4.67643 4.28559 4.67643H3.66418C3.38395 4.67643 3.15594 4.44846 3.15594 4.16819C3.15594 3.88791 3.38395 3.6599 3.66418 3.6599H4.34414C4.39594 3.6599 4.44562 3.63933 4.48225 3.6027C4.51888 3.56607 4.53945 3.51639 4.53945 3.46459V1.7185C4.53945 1.69032 4.53334 1.66249 4.52157 1.63689C4.50979 1.6113 4.49262 1.58856 4.47123 1.57022C4.44984 1.55189 4.42473 1.5384 4.39764 1.53068C4.37054 1.52296 4.3421 1.52119 4.31426 1.52549L2.27078 1.84162C2.22471 1.84875 2.1827 1.87212 2.15236 1.90752C2.12202 1.94292 2.10534 1.98801 2.10535 2.03463V4.83815C2.10535 5.10639 1.88711 5.32463 1.61891 5.32463H0.9975C0.717266 5.32463 0.489258 5.09662 0.489258 4.81635C0.489258 4.53612 0.717266 4.30811 0.9975 4.30811ZM3.39676 8.03631L3.39664 10.7088H2.92359C2.42969 10.7088 2.02133 11.1052 2.01324 11.5924C2.00918 11.8355 2.10074 12.0648 2.27109 12.238C2.44145 12.4112 2.66906 12.5065 2.91199 12.5065H3.5334C4.01703 12.5065 4.41047 12.1131 4.41047 11.6295V8.99338L5.42211 8.83686C5.52873 8.82086 5.62603 8.767 5.6962 8.68514C5.76636 8.60328 5.80471 8.49889 5.80422 8.39108V7.75158C5.80422 7.61975 5.7468 7.4949 5.64668 7.40908C5.54656 7.32326 5.41445 7.28561 5.28414 7.30576L3.83 7.53073C3.7091 7.54892 3.59879 7.61002 3.51924 7.70285C3.43969 7.79569 3.39621 7.91405 3.39676 8.03631ZM5.34391 7.69186C5.35252 7.69052 5.36133 7.69106 5.36972 7.69345C5.37811 7.69583 5.38588 7.70001 5.3925 7.70569C5.40039 7.71244 5.41363 7.7274 5.41363 7.75162V8.39112C5.41363 8.42115 5.39207 8.44627 5.36238 8.45084L4.18527 8.63295C4.1392 8.64008 4.09719 8.66345 4.06685 8.69885C4.03651 8.73425 4.01984 8.77934 4.01984 8.82596V11.6295C4.01984 11.8977 3.8016 12.1159 3.5334 12.1159H2.91199C2.77461 12.1159 2.6459 12.062 2.54961 11.964C2.45332 11.8661 2.40152 11.7364 2.40383 11.5989C2.4084 11.3235 2.6416 11.0994 2.92363 11.0994H3.59199C3.64379 11.0994 3.69347 11.0788 3.7301 11.0422C3.76673 11.0056 3.7873 10.9559 3.7873 10.9041L3.78742 8.03627C3.7873 8.00738 3.79757 7.97942 3.81637 7.95748C3.83517 7.93555 3.86124 7.92111 3.8898 7.91682L5.34391 7.69186Z" fill="black"/>
<path d="M19.7061 19.5105H19.1699V16.8744C19.1699 15.5607 18.1011 14.4919 16.7874 14.4919H15.6733V13.3083C16.3206 12.7845 16.832 12.0991 17.1453 11.3138H17.5805C18.3126 11.3138 18.9082 10.7182 18.9082 9.98602V9.8168C19.0512 9.73054 19.1826 9.62654 19.2994 9.50727C19.6615 9.13738 19.861 8.64855 19.861 8.13078C19.861 7.61301 19.6616 7.12414 19.2994 6.75426C19.1826 6.635 19.0512 6.531 18.9082 6.44473V3.47402C18.9082 1.84383 17.582 0.517578 15.9518 0.517578C15.316 0.517578 14.7205 0.780391 14.2932 1.24406C13.4304 0.76832 12.4563 0.517578 11.4653 0.517578H9.23945C7.73938 0.517578 6.51891 1.73801 6.51891 3.23809V7.9159C6.51891 7.93531 6.52262 7.95371 6.52789 7.97141L6.34555 9.48531C6.34461 9.49306 6.34414 9.50086 6.34414 9.50867C6.34414 10.4663 6.62156 11.3602 7.09965 12.1149C6.92112 12.0663 6.73691 12.0417 6.55188 12.0417C5.99691 12.0417 5.47519 12.2578 5.08285 12.6502C4.69043 13.0426 4.47434 13.5643 4.47434 14.1193C4.47434 14.2355 4.48438 14.35 4.50293 14.4625L4.22836 14.757L4.21852 14.7471C3.77922 14.3079 3.06441 14.3079 2.6252 14.7471L1.78844 15.5839C1.57563 15.7967 1.45844 16.0796 1.45844 16.3805C1.45844 16.6815 1.57563 16.9644 1.7884 17.1772L1.88324 17.272L1.52371 17.6576C1.48919 17.6946 1.47039 17.7436 1.47128 17.7942C1.47217 17.8448 1.49268 17.8931 1.52848 17.9289L1.60941 18.0098L0.971836 18.6474C0.935209 18.684 0.914632 18.7337 0.914632 18.7855C0.914632 18.8373 0.935209 18.887 0.971836 18.9236L1.55863 19.5104H0.293945C0.242145 19.5104 0.192467 19.531 0.155839 19.5676C0.11921 19.6043 0.0986328 19.6539 0.0986328 19.7057C0.0986328 19.7575 0.11921 19.8072 0.155839 19.8438C0.192467 19.8805 0.242145 19.9011 0.293945 19.9011H19.7061C19.7574 19.9003 19.8064 19.8794 19.8424 19.8429C19.8785 19.8064 19.8987 19.7571 19.8987 19.7058C19.8987 19.6545 19.8785 19.6052 19.8424 19.5686C19.8064 19.5321 19.7575 19.5112 19.7061 19.5105ZM18.7793 16.8744V19.5105H16.862V17.2359C16.862 17.1841 16.8415 17.1344 16.8048 17.0978C16.7682 17.0612 16.7185 17.0406 16.6667 17.0406C16.6149 17.0406 16.5652 17.0612 16.5286 17.0978C16.492 17.1344 16.4714 17.1841 16.4714 17.2359V19.5105H10.5958V17.651C10.5958 16.4482 11.3673 15.4231 12.4411 15.042C12.5576 15.8245 13.2338 16.4268 14.0482 16.4268C14.9172 16.4268 15.629 15.7412 15.6712 14.8825H16.7874C17.8857 14.8825 18.7793 15.7761 18.7793 16.8744ZM5.43074 19.5105L3.85684 18.361L4.00336 18.2244C4.11465 18.2674 4.23295 18.2894 4.35227 18.2893C4.61031 18.2893 4.85289 18.1888 5.03535 18.0064L5.42453 17.6173C5.51679 17.5251 5.58932 17.4152 5.6377 17.2941L7.64379 18.7713C7.68546 18.802 7.7376 18.8149 7.78876 18.8071C7.83992 18.7994 7.88593 18.7717 7.91668 18.7301L8.64383 17.746L10.1384 18.8259L9.71277 19.5105H5.43074ZM2.41145 18.2596L2.02359 17.8717L1.93793 17.7861L2.18891 17.5169C2.35627 17.6102 2.54478 17.659 2.73641 17.6586C2.97594 17.6586 3.20387 17.5842 3.39426 17.4466C3.42081 17.6575 3.51673 17.8536 3.66691 18.004L2.88496 18.7331L2.41145 18.2596ZM4.33469 16.5271C4.44688 16.415 4.59414 16.359 4.74145 16.359C4.88875 16.359 5.03617 16.4151 5.14832 16.5273C5.2425 16.6213 5.301 16.7451 5.31379 16.8776C5.27175 16.9078 5.22735 16.9347 5.18102 16.9578L5.30488 17.049C5.28267 17.1597 5.22821 17.2613 5.14836 17.3411L4.75922 17.7302C4.70591 17.7838 4.6425 17.8263 4.57265 17.8552C4.5028 17.8841 4.42791 17.8989 4.3523 17.8987C4.2767 17.8989 4.20181 17.8841 4.13197 17.8552C4.06212 17.8263 3.99871 17.7838 3.94539 17.7302C3.83672 17.6215 3.77687 17.477 3.77687 17.3232C3.77687 17.1695 3.83672 17.025 3.94539 16.9163L4.33469 16.5271ZM6.5518 16.1958C7.08383 16.1958 7.61582 15.9933 8.02082 15.5883C8.55875 15.0504 8.73898 14.2886 8.56234 13.6002C9.32996 14.1027 10.2467 14.3953 11.2307 14.3953H12.4232V14.6356C12.4007 14.6426 12.3784 14.6499 12.3561 14.6574C12.0107 14.5344 11.638 14.499 11.266 14.5589C10.6832 14.6528 10.1717 14.968 9.82598 15.4466L8.44418 17.359L7.71844 18.3412L5.70336 16.8574C5.69839 16.7941 5.68723 16.7315 5.67004 16.6704L6.20969 16.1671C6.32275 16.186 6.43717 16.1956 6.5518 16.1958ZM10.2052 17.651V18.3921L8.87437 17.4306L10.1426 15.6753C10.4273 15.2813 10.8483 15.0218 11.3282 14.9445C11.473 14.9212 11.62 14.9154 11.7662 14.9273C10.833 15.477 10.2052 16.4919 10.2052 17.651ZM10.2052 19.4583V19.5105H10.1728L10.2052 19.4583ZM15.2826 14.8017C15.2826 15.4824 14.7289 16.0361 14.0482 16.0361C13.3675 16.0361 12.8138 15.4824 12.8138 14.8017V14.3905C13.7225 14.352 14.5676 14.0642 15.2826 13.5938V14.8017H15.2826ZM17.5804 10.9232H17.2819C17.3636 10.6538 17.4216 10.3777 17.4553 10.0982H17.9338L17.9382 10.0982C18.1352 10.0937 18.3304 10.0598 18.5173 9.99746C18.5111 10.5089 18.0933 10.9232 17.5804 10.9232ZM19.4703 8.13082C19.4703 8.98012 18.7802 9.68699 17.9314 9.70762H17.4865C17.4891 9.6416 17.4909 9.57535 17.4909 9.50871C17.4909 9.5009 17.4904 9.49312 17.4895 9.48535L17.2109 7.17285C17.2099 6.96518 17.1898 6.75804 17.1508 6.55406H17.9314C18.7802 6.57461 19.4703 7.28152 19.4703 8.13082ZM9.23941 0.908203H11.4652C12.4416 0.908203 13.4001 1.16883 14.2374 1.66188C14.278 1.68577 14.3258 1.69419 14.3721 1.68559C14.4184 1.67699 14.4601 1.65195 14.4894 1.61508C14.8464 1.16586 15.3794 0.908203 15.9518 0.908203C17.3666 0.908203 18.5176 2.05922 18.5176 3.47402V6.26426C18.3306 6.20186 18.1353 6.16787 17.9382 6.16344L17.9338 6.1634H17.0529C16.619 4.79941 15.3405 3.80836 13.8346 3.80836H10.0004C8.62109 3.80836 7.43301 4.64004 6.90953 5.82797V3.23809C6.90953 1.9534 7.95473 0.908203 9.23941 0.908203ZM7.01324 7.20809C7.01418 7.20031 7.01465 7.19254 7.01465 7.18473C7.01465 5.5384 8.35402 4.19902 10.0004 4.19902H13.8346C15.4809 4.19902 16.8204 5.5384 16.8204 7.18473C16.8204 7.19254 16.8208 7.20031 16.8218 7.20809L17.1003 9.52031C17.0939 11.994 15.0795 14.0047 12.6043 14.0047H11.2307C8.75555 14.0047 6.74113 11.994 6.73473 9.52031L7.01324 7.20809ZM5.35895 12.9264C5.67758 12.6078 6.10121 12.4323 6.5518 12.4323C7.00234 12.4323 7.42598 12.6078 7.74461 12.9264C8.40234 13.5842 8.40234 14.6544 7.74461 15.3121C7.08684 15.9699 6.01664 15.9698 5.35895 15.3121C5.04035 14.9935 4.86488 14.5699 4.86488 14.1193C4.86488 13.6687 5.04035 13.2451 5.35895 12.9264ZM5.08277 15.5883C5.27869 15.7847 5.51213 15.9395 5.76918 16.0437L5.48047 16.313C5.46272 16.2915 5.44406 16.2709 5.42453 16.2511C5.21672 16.0433 4.93707 15.9507 4.66484 15.9722C4.74375 15.6591 4.68648 15.3187 4.4934 15.0455L4.62668 14.9025C4.73133 15.1593 4.88642 15.3925 5.08277 15.5883ZM2.06457 15.8601L2.90133 15.0233C3.18828 14.7363 3.65527 14.7363 3.94227 15.0233L4.09371 15.1748C4.38066 15.4618 4.38066 15.9287 4.09371 16.2157L4.05852 16.2509L4.05832 16.2511L3.66922 16.6402L3.25691 17.0525C3.18872 17.121 3.10761 17.1754 3.01827 17.2124C2.92893 17.2494 2.83314 17.2683 2.73645 17.268C2.53988 17.268 2.355 17.1915 2.21602 17.0525L2.06457 16.901C1.99601 16.8328 1.94166 16.7517 1.90465 16.6624C1.86765 16.573 1.84873 16.4772 1.84898 16.3805C1.84872 16.2838 1.86764 16.1881 1.90465 16.0987C1.94165 16.0094 1.99601 15.9283 2.06457 15.8601ZM1.88555 18.2861L2.385 18.7855L1.88555 19.285L1.38609 18.7855L1.88555 18.2861ZM2.66121 19.0618L2.74215 19.1427C2.76026 19.1609 2.78179 19.1753 2.80549 19.1851C2.82918 19.1949 2.85459 19.1999 2.88023 19.1999C2.92969 19.1999 2.97731 19.1812 3.01344 19.1474L3.56594 18.6323L4.7684 19.5105H2.2125L2.66121 19.0618Z" fill="black"/>
</svg>
