<svg width="26" height="26" viewBox="0 0 26 26" fill="none" xmlns="http://www.w3.org/2000/svg">
<path d="M13.0003 2.16663C7.0178 2.16663 2.16699 7.0168 2.16699 13C2.16699 18.9831 7.0178 23.8333 13.0003 23.8333C18.9841 23.8333 23.8337 18.9831 23.8337 13C23.8337 7.0168 18.9841 2.16663 13.0003 2.16663ZM16.9984 9.39222C17.4023 9.40376 17.7857 9.57231 18.0673 9.86206C18.3489 10.1518 18.5065 10.5399 18.5065 10.944C18.5065 11.3481 18.3489 11.7362 18.0673 12.0259C17.7857 12.3157 17.4023 12.4842 16.9984 12.4958C16.5945 12.4842 16.211 12.3157 15.9294 12.0259C15.6478 11.7362 15.4903 11.3481 15.4903 10.944C15.4903 10.5399 15.6478 10.1518 15.9294 9.86206C16.211 9.57231 16.5945 9.40376 16.9984 9.39222ZM9.00164 9.39222C9.41328 9.39222 9.80806 9.55575 10.0991 9.84682C10.3902 10.1379 10.5537 10.5327 10.5537 10.9443C10.5537 11.356 10.3902 11.7507 10.0991 12.0418C9.80806 12.3329 9.41328 12.4964 9.00164 12.4964C8.59 12.4964 8.19522 12.3329 7.90415 12.0418C7.61307 11.7507 7.44955 11.356 7.44955 10.9443C7.44955 10.5327 7.61307 10.1379 7.90415 9.84682C8.19522 9.55575 8.59 9.39222 9.00164 9.39222ZM18.8456 16.7665C18.1936 17.7147 17.3209 18.4902 16.3026 19.0262C15.2843 19.5622 14.1511 19.8427 13.0003 19.8435C11.8495 19.843 10.716 19.5627 9.69765 19.0265C8.67931 18.4903 7.8067 17.7145 7.15507 16.7659C7.01246 16.5585 6.95807 16.3029 7.00386 16.0555C7.04966 15.808 7.19188 15.5889 7.39926 15.4462C7.60663 15.3036 7.86216 15.2492 8.10963 15.295C8.35711 15.3408 8.57626 15.4831 8.71887 15.6904C9.69055 17.103 11.2917 17.9457 13.001 17.9457C14.7103 17.9457 16.3101 17.103 17.2843 15.6904C17.4272 15.4834 17.6464 15.3415 17.8938 15.2959C18.1412 15.2502 18.3965 15.3045 18.6039 15.4469C19.0335 15.7442 19.1423 16.3344 18.8456 16.7665Z" fill="white"/>
</svg>
