<svg width="4" height="16" viewBox="0 0 4 16" fill="none" xmlns="http://www.w3.org/2000/svg">
<path fillRule="evenodd" clipRule="evenodd" d="M2 4C0.89543 4 -1.35705e-07 3.10457 -8.74228e-08 2C-3.91405e-08 0.89543 0.895431 -1.35705e-07 2 -8.74228e-08C3.10457 -3.91405e-08 4 0.895431 4 2C4 3.10457 3.10457 4 2 4ZM2 9.99986C0.89543 9.99986 -1.59549e-07 9.10443 -1.11267e-07 7.99986C-6.29843e-08 6.89529 0.895431 5.99986 2 5.99986C3.10457 5.99986 4 6.89529 4 7.99986C4 9.10443 3.10457 9.99986 2 9.99986ZM-1.3511e-07 13.9997C-1.83393e-07 15.1043 0.89543 15.9997 2 15.9997C3.10457 15.9997 4 15.1043 4 13.9997C4 12.8952 3.10457 11.9997 2 11.9997C0.895431 11.9997 -8.6828e-08 12.8952 -1.3511e-07 13.9997Z" fill="white"/>
</svg>
