<svg width="22" height="22" viewBox="0 0 22 22" fill="none" xmlns="http://www.w3.org/2000/svg">
<path d="M11 0C4.9251 0 0 4.9251 0 11C0 17.0749 4.9251 22 11 22C17.0749 22 22 17.0749 22 11C22 4.9251 17.0749 0 11 0ZM14.1597 15.3366C13.6798 15.9206 13.0551 16.3144 12.3263 16.5136C12.0095 16.5996 11.8646 16.7671 11.8827 17.0975C11.8963 17.4235 11.8827 17.7449 11.8782 18.0708C11.8782 18.3605 11.7288 18.5144 11.4436 18.5235C11.258 18.528 11.0724 18.5325 10.8868 18.5325C10.7239 18.5325 10.5609 18.5325 10.3979 18.528C10.0901 18.5235 9.94527 18.3469 9.94527 18.0481C9.94074 17.8128 9.94074 17.5728 9.94074 17.3374C9.93621 16.8123 9.91811 16.7942 9.41564 16.7128C8.77284 16.6086 8.1391 16.4638 7.55062 16.1786C7.08889 15.9523 7.03909 15.8391 7.17037 15.3502C7.26996 14.9881 7.36955 14.6259 7.48272 14.2683C7.5642 14.0058 7.64115 13.8881 7.78148 13.8881C7.86296 13.8881 7.96708 13.9288 8.10741 14.0012C8.75926 14.3407 9.45185 14.5309 10.1807 14.6214C10.3029 14.635 10.4251 14.644 10.5473 14.644C10.8868 14.644 11.2173 14.5807 11.5387 14.4403C12.349 14.0872 12.4757 13.1502 11.7922 12.5889C11.5613 12.3988 11.2942 12.2584 11.0181 12.1362C10.3074 11.8239 9.56955 11.5885 8.89959 11.1856C7.81317 10.5337 7.1251 9.64198 7.20658 8.32016C7.29712 6.82634 8.14362 5.89383 9.51523 5.39588C10.0811 5.19218 10.0856 5.19671 10.0856 4.60823C10.0856 4.40905 10.0811 4.20988 10.0901 4.00617C10.1037 3.56255 10.1761 3.4856 10.6198 3.47202H11.1358C11.9778 3.47202 11.9778 3.50823 11.9823 4.41811C11.9868 5.08807 11.9868 5.08807 12.6523 5.19218C13.1638 5.27366 13.6481 5.42305 14.1189 5.63128C14.377 5.74444 14.4765 5.92551 14.3951 6.20165C14.2774 6.60905 14.1642 7.02099 14.0374 7.42387C13.956 7.66831 13.879 7.78148 13.7342 7.78148C13.6527 7.78148 13.5531 7.74979 13.4263 7.68642C12.7745 7.36955 12.0909 7.21564 11.3757 7.21564C11.2852 7.21564 11.1901 7.22016 11.0996 7.22469C10.8868 7.23827 10.6786 7.26543 10.4794 7.35144C9.77325 7.65926 9.66008 8.43786 10.2621 8.9177C10.5654 9.16214 10.914 9.33416 11.2716 9.48354C11.8963 9.74156 12.521 9.99053 13.114 10.3165C14.979 11.3576 15.486 13.7251 14.1597 15.3366Z" fill="white"/>
</svg>
