<svg width="61" height="61" viewBox="0 0 61 61" fill="none" xmlns="http://www.w3.org/2000/svg">
<circle cx="30.48" cy="30.48" r="30.48" fill="white"/>
<g clip-path="url(#clip0_228_21027)">
<path d="M15.8788 42.9481H17.6365C18.1219 42.9481 18.5153 42.5547 18.5153 42.0693V32.4021H15.8788C15.3935 32.4021 15 32.7956 15 33.2809V42.0693C15 42.5546 15.3935 42.9481 15.8788 42.9481ZM37.9669 16.583C34.0839 16.583 30.9362 19.7307 30.9362 23.6137C30.9362 27.4966 34.0839 30.6444 37.9669 30.6444C41.8499 30.6444 44.9976 27.4966 44.9976 23.6137C44.9976 19.7307 41.8499 16.583 37.9669 16.583ZM39.4397 26.7767C39.2494 26.8718 39.0498 26.9468 38.8456 27.0035V27.2463C38.8456 27.7317 38.4521 28.1252 37.9668 28.1252C37.4814 28.1252 37.088 27.7317 37.088 27.2463V27.031C36.7221 26.9389 36.381 26.784 36.0919 26.5673C35.7037 26.2761 35.6249 25.7252 35.9162 25.3369C36.2074 24.9487 36.7583 24.8699 37.1465 25.1611C37.4981 25.4248 38.1742 25.4444 38.6536 25.2046C38.8463 25.1082 38.9503 24.9922 38.9503 24.9321C38.9503 24.8269 38.9503 24.8107 38.8334 24.7483C38.6041 24.6259 38.1986 24.5507 37.8065 24.4779C37.283 24.3808 36.7417 24.2804 36.2726 24.03C35.5877 23.6644 35.2256 23.0647 35.2256 22.2956C35.2256 21.5256 35.6873 20.8531 36.4924 20.4506C36.6831 20.3557 36.8826 20.2794 37.088 20.2229V19.9813C37.088 19.4959 37.4814 19.1025 37.9668 19.1025C38.4521 19.1025 38.8456 19.4959 38.8456 19.9813V20.1965C39.2115 20.2886 39.5526 20.4436 39.8416 20.6603C40.23 20.9516 40.3087 21.5024 40.0174 21.8907C39.7262 22.279 39.1754 22.3577 38.787 22.0665C38.435 21.8024 37.7583 21.7828 37.2784 22.0227C37.0846 22.1196 36.9833 22.2333 36.9833 22.2955C36.9833 22.4007 36.9833 22.4169 37.1002 22.4794C37.3295 22.6017 37.735 22.677 38.1271 22.7497C38.6506 22.8468 39.1919 22.9472 39.661 23.1976C40.3459 23.5632 40.708 24.163 40.708 24.9321C40.7081 25.7013 40.2457 26.3736 39.4397 26.7767ZM30.866 43.4169H31.0593C34.0122 43.3816 36.842 42.5439 39.338 41.0322L44.2419 37.6048C45.0679 37.0247 45.2262 35.935 44.6813 35.1617C44.1188 34.3531 43.0291 34.1598 42.2381 34.7222L37.5275 38.0267C36.016 38.9055 34.1705 39.0988 32.5006 38.5363L27.0811 36.7434C26.6241 36.6029 26.378 36.0931 26.5362 35.6362C26.6768 35.1968 27.1338 34.9507 27.5908 35.0738C27.6084 35.0738 33.6782 37.0424 33.6782 37.0424C34.7003 37.3487 35.6085 36.7704 35.8929 35.9175C36.1916 34.9858 35.6819 34.0015 34.7679 33.7028L26.501 30.996C24.6929 30.3377 22.2562 30.4737 20.273 31.5827V41.4211L27.1689 42.9833C28.4322 43.2612 29.6717 43.4169 30.866 43.4169Z" fill="#504DFB"/>
</g>
<defs>
<clipPath id="clip0_228_21027">
<rect width="30" height="30" fill="white" transform="translate(15 15)"/>
</clipPath>
</defs>
</svg>
