<svg width="20" height="20" viewBox="0 0 20 20" fill="none" xmlns="http://www.w3.org/2000/svg">
<path d="M0.599453 8.78703C0.272695 8.78703 0.0078125 9.05196 0.0078125 9.37867V18.0684C0.0078125 18.3952 0.272734 18.6601 0.599453 18.6601H4.16402V8.78703H0.599453ZM19.9926 12.0542C19.9926 11.3031 19.5891 10.6445 18.9874 10.2838C19.226 9.93987 19.3536 9.53114 19.3531 9.11254C19.3531 7.97532 18.4279 7.05008 17.2907 7.05008H12.9368C13.0703 6.44539 13.2528 5.53801 13.3798 4.58813C13.7105 2.11621 13.4845 0.745315 12.6686 0.27387C12.16 -0.0199972 11.6115 -0.0796066 11.1243 0.105862C10.748 0.249221 10.2397 0.601682 9.95004 1.46672L8.80574 4.46285C8.22563 5.89555 6.4491 7.39965 5.34734 8.23133V18.9219C7.3893 19.6373 9.52008 20 11.6939 20H16.4379C17.5751 20 18.5004 19.0748 18.5004 17.9375C18.5008 17.5536 18.3935 17.1773 18.1906 16.8514C18.8781 16.5166 19.353 15.8106 19.353 14.9959C19.3535 14.5773 19.2259 14.1685 18.9873 13.8246C19.5891 13.4639 19.9926 12.8052 19.9926 12.0542Z" fill="#504DFB"/>
</svg>
