<svg width="38" height="38" viewBox="0 0 38 38" fill="none" xmlns="http://www.w3.org/2000/svg">
<circle cx="19" cy="19" r="19" fill="white"/>
<path d="M14.25 25.4062V26.7188C14.25 26.8928 14.3191 27.0597 14.4422 27.1828C14.5653 27.3059 14.7322 27.375 14.9062 27.375H16.2188C16.2188 26.8529 16.0113 26.3521 15.6421 25.9829C15.2729 25.6137 14.7721 25.4062 14.25 25.4062ZM22.7812 27.375H24.0938C24.2678 27.375 24.4347 27.3059 24.5578 27.1828C24.6809 27.0597 24.75 26.8928 24.75 26.7188V25.4062C24.2279 25.4062 23.7271 25.6137 23.3579 25.9829C22.9887 26.3521 22.7812 26.8529 22.7812 27.375ZM28.0312 11.625H10.9688C10.7947 11.625 10.6278 11.6941 10.5047 11.8172C10.3816 11.9403 10.3125 12.1072 10.3125 12.2812V16.2188C10.3125 16.3928 10.3816 16.5597 10.5047 16.6828C10.6278 16.8059 10.7947 16.875 10.9688 16.875H12.9375V14.9062C12.9375 14.7322 13.0066 14.5653 13.1297 14.4422C13.2528 14.3191 13.4197 14.25 13.5938 14.25H25.4062C25.5803 14.25 25.7472 14.3191 25.8703 14.4422C25.9934 14.5653 26.0625 14.7322 26.0625 14.9062V16.875H28.0312C28.2053 16.875 28.3722 16.8059 28.4953 16.6828C28.6184 16.5597 28.6875 16.3928 28.6875 16.2188V12.2812C28.6875 12.1072 28.6184 11.9403 28.4953 11.8172C28.3722 11.6941 28.2053 11.625 28.0312 11.625Z" fill="#504DFB"/>
<path d="M14.25 15.5625V24.0938C15.1202 24.0938 15.9548 24.4395 16.5702 25.0548C17.1855 25.6702 17.5312 26.5048 17.5312 27.375H21.4688C21.4688 26.5048 21.8145 25.6702 22.4298 25.0548C23.0452 24.4395 23.8798 24.0938 24.75 24.0938V15.5625H14.25ZM20.8125 19.5C20.9865 19.5 21.1535 19.5691 21.2765 19.6922C21.3996 19.8153 21.4688 19.9822 21.4688 20.1562V22.125C21.4688 22.299 21.3996 22.466 21.2765 22.589C21.1535 22.7121 20.9865 22.7812 20.8125 22.7812H20.1562C20.1562 22.9553 20.0871 23.1222 19.964 23.2453C19.841 23.3684 19.674 23.4375 19.5 23.4375C19.326 23.4375 19.159 23.3684 19.036 23.2453C18.9129 23.1222 18.8438 22.9553 18.8438 22.7812H18.1875C18.0135 22.7812 17.8465 22.7121 17.7235 22.589C17.6004 22.466 17.5312 22.299 17.5312 22.125C17.5312 21.951 17.6004 21.784 17.7235 21.661C17.8465 21.5379 18.0135 21.4688 18.1875 21.4688H20.1562V20.8125H18.1875C18.0135 20.8125 17.8465 20.7434 17.7235 20.6203C17.6004 20.4972 17.5312 20.3303 17.5312 20.1562V18.1875C17.5312 18.0135 17.6004 17.8465 17.7235 17.7235C17.8465 17.6004 18.0135 17.5312 18.1875 17.5312H18.8438C18.8438 17.3572 18.9129 17.1903 19.036 17.0672C19.159 16.9441 19.326 16.875 19.5 16.875C19.674 16.875 19.841 16.9441 19.964 17.0672C20.0871 17.1903 20.1562 17.3572 20.1562 17.5312H20.8125C20.9865 17.5312 21.1535 17.6004 21.2765 17.7235C21.3996 17.8465 21.4688 18.0135 21.4688 18.1875C21.4688 18.3615 21.3996 18.5285 21.2765 18.6515C21.1535 18.7746 20.9865 18.8438 20.8125 18.8438H18.8438V19.5H20.8125Z" fill="#504DFB"/>
</svg>
