<svg width="20" height="20" viewBox="0 0 20 20" fill="none" xmlns="http://www.w3.org/2000/svg">
<path fill-rule="evenodd" clip-rule="evenodd" d="M3.57797 13.089C3.42175 12.9327 3.33398 12.7208 3.33398 12.4999C3.33398 12.2789 3.42175 12.067 3.57797 11.9107L9.41131 6.07735C9.56758 5.92113 9.7795 5.83336 10.0005 5.83336C10.2214 5.83336 10.4334 5.92113 10.5896 6.07735L16.423 11.9107C16.5748 12.0679 16.6588 12.2784 16.6569 12.4969C16.655 12.7154 16.5673 12.9244 16.4128 13.0789C16.2583 13.2334 16.0493 13.321 15.8308 13.3229C15.6123 13.3248 15.4018 13.2408 15.2446 13.089L10.0005 7.84485L4.75631 13.089C4.60003 13.2452 4.38811 13.333 4.16714 13.333C3.94617 13.333 3.73425 13.2452 3.57797 13.089Z" fill="white"/>
</svg>
