<svg width="21" height="20" viewBox="0 0 21 20" fill="none" xmlns="http://www.w3.org/2000/svg">
<path d="M21 9.1875C21 14.2616 16.2986 18.375 10.5 18.375C9.45998 18.3773 8.42422 18.2423 7.41956 17.9734C6.65306 18.3619 4.893 19.1074 1.932 19.593C1.6695 19.635 1.47 19.362 1.57369 19.1179C2.03831 18.0206 2.45831 16.5585 2.58431 15.225C0.9765 13.6106 0 11.4975 0 9.1875C0 4.11338 4.70137 0 10.5 0C16.2986 0 21 4.11338 21 9.1875ZM6.5625 9.1875C6.5625 8.8394 6.42422 8.50556 6.17808 8.25942C5.93194 8.01328 5.5981 7.875 5.25 7.875C4.9019 7.875 4.56806 8.01328 4.32192 8.25942C4.07578 8.50556 3.9375 8.8394 3.9375 9.1875C3.9375 9.5356 4.07578 9.86944 4.32192 10.1156C4.56806 10.3617 4.9019 10.5 5.25 10.5C5.5981 10.5 5.93194 10.3617 6.17808 10.1156C6.42422 9.86944 6.5625 9.5356 6.5625 9.1875ZM11.8125 9.1875C11.8125 8.8394 11.6742 8.50556 11.4281 8.25942C11.1819 8.01328 10.8481 7.875 10.5 7.875C10.1519 7.875 9.81806 8.01328 9.57192 8.25942C9.32578 8.50556 9.1875 8.8394 9.1875 9.1875C9.1875 9.5356 9.32578 9.86944 9.57192 10.1156C9.81806 10.3617 10.1519 10.5 10.5 10.5C10.8481 10.5 11.1819 10.3617 11.4281 10.1156C11.6742 9.86944 11.8125 9.5356 11.8125 9.1875ZM15.75 10.5C16.0981 10.5 16.4319 10.3617 16.6781 10.1156C16.9242 9.86944 17.0625 9.5356 17.0625 9.1875C17.0625 8.8394 16.9242 8.50556 16.6781 8.25942C16.4319 8.01328 16.0981 7.875 15.75 7.875C15.4019 7.875 15.0681 8.01328 14.8219 8.25942C14.5758 8.50556 14.4375 8.8394 14.4375 9.1875C14.4375 9.5356 14.5758 9.86944 14.8219 10.1156C15.0681 10.3617 15.4019 10.5 15.75 10.5Z" fill="white"/>
</svg>
