<svg width="33" height="33" viewBox="0 0 33 33" fill="none" xmlns="http://www.w3.org/2000/svg">
<path d="M28.509 15.5169H21.4939C19.2951 15.5169 17.4852 17.3268 17.4852 19.5255C17.4852 21.7242 19.2951 23.5341 21.4939 23.5341H25.5025V26.5406C25.5025 27.0908 25.0505 27.5427 24.5003 27.5427H8.46585C6.81631 27.5427 5.45939 26.1858 5.45939 24.5363V9.50394C5.45939 7.85439 6.81631 6.49747 8.46585 6.49747H10.4702C11.0203 6.49747 11.4723 6.0455 11.4723 5.49532C11.4723 4.94514 11.0203 4.49316 10.4702 4.49316H8.46585C5.71694 4.49316 3.45508 6.75503 3.45508 9.50394V24.5363C3.45508 27.2852 5.71694 29.547 8.46585 29.547H24.5003C26.1499 29.547 27.5068 28.1901 27.5068 26.5406V23.5341H28.509C29.0591 23.5341 29.5111 23.0821 29.5111 22.532V16.519C29.5111 15.9688 29.0591 15.5169 28.509 15.5169ZM27.5068 21.5298H21.4939C20.3945 21.5298 19.4896 20.6249 19.4896 19.5255C19.4896 18.4261 20.3945 17.5212 21.4939 17.5212H27.5068V21.5298Z" fill="#504DFB"/>
<path d="M8.10483 8.57188C6.98643 9.05993 7.35622 10.506 8.46561 10.506H24.5001C25.0503 10.506 25.5022 10.958 25.5022 11.5082V12.5103C25.5022 13.0605 25.9542 13.5125 26.5044 13.5125C27.0546 13.5125 27.5066 13.0605 27.5066 12.5103V11.5082C27.5066 10.7108 27.1898 9.94612 26.626 9.3823C26.0622 8.81848 25.2975 8.50173 24.5001 8.50173H24.1794L22.4256 4.12231C22.3264 3.87827 22.1354 3.68284 21.8937 3.57793C21.6521 3.47301 21.3789 3.46698 21.1328 3.5611L8.10483 8.57188ZM22.0147 8.50173H13.8672L20.9324 5.78589L22.0147 8.50173Z" fill="#504DFB"/>
</svg>
