<svg width="50" height="50" viewBox="0 0 50 50" fill="none" xmlns="http://www.w3.org/2000/svg">
<g filter="url(#filter0_b_433_3132)">
<rect width="50" height="50" rx="10" transform="matrix(1 0 0 -1 0 50)" fill="#25D366" fill-opacity="0.1"/>
</g>
<g clip-path="url(#clip0_433_3132)">
<path d="M25 43C15.0604 43 7 34.9396 7 25C7 15.0604 15.0604 7 25 7C34.9396 7 43 15.0604 43 25C43 34.9396 34.9396 43 25 43Z" fill="#25D366"/>
<path fillRule="evenodd" clipRule="evenodd" d="M33.4203 16.6191C31.1883 14.3835 28.2147 13.1523 25.0503 13.1487C18.5307 13.1487 13.2207 18.4551 13.2207 24.9783C13.2207 27.0627 13.7643 29.1003 14.8011 30.8931L13.1235 37.0239L19.3947 35.3787C21.1227 36.3219 23.0667 36.8187 25.0467 36.8187H25.0503C31.5699 36.8187 36.8763 31.5123 36.8799 24.9891C36.8835 21.8283 35.6559 18.8547 33.4203 16.6191ZM25.0539 34.8207H25.0503C23.2863 34.8207 21.5547 34.3455 20.0463 33.4491L19.6863 33.2367L15.9639 34.2123L16.9575 30.5835L16.7235 30.2127C15.7407 28.6467 15.2187 26.8395 15.2187 24.9783C15.2223 19.5567 19.6323 15.1467 25.0575 15.1467C27.6855 15.1467 30.1515 16.1727 32.0091 18.0303C33.8667 19.8879 34.8891 22.3611 34.8855 24.9855C34.8855 30.4107 30.4719 34.8207 25.0539 34.8207ZM30.4467 27.4551C30.1515 27.3075 28.6971 26.5911 28.4271 26.4939C28.1571 26.3967 27.9591 26.3463 27.7611 26.6415C27.5631 26.9367 26.9979 27.6027 26.8251 27.8007C26.6523 27.9987 26.4795 28.0239 26.1843 27.8763C25.8891 27.7287 24.9351 27.4155 23.8083 26.4075C22.9299 25.6227 22.3359 24.6543 22.1631 24.3591C21.9903 24.0639 22.1451 23.9019 22.2927 23.7543C22.4259 23.6211 22.5879 23.4087 22.7355 23.2359C22.8831 23.0631 22.9335 22.9407 23.0307 22.7427C23.1279 22.5447 23.0811 22.3719 23.0055 22.2243C22.9299 22.0767 22.3395 20.6223 22.0947 20.0283C21.8535 19.4523 21.6123 19.5315 21.4287 19.5207C21.2559 19.5135 21.0579 19.5099 20.8635 19.5099C20.6655 19.5099 20.3451 19.5855 20.0751 19.8807C19.8051 20.1759 19.0419 20.8923 19.0419 22.3467C19.0419 23.8011 20.1003 25.2087 20.2479 25.4031C20.3955 25.6011 22.3323 28.5855 25.2987 29.8671C26.0043 30.1731 26.5551 30.3531 26.9835 30.4899C27.6927 30.7167 28.3371 30.6843 28.8447 30.6087C29.4135 30.5223 30.5943 29.8923 30.8391 29.2047C31.0839 28.5135 31.0839 27.9231 31.0119 27.8007C30.9399 27.6783 30.7419 27.6063 30.4467 27.4551Z" fill="white"/>
</g>
<defs>
<filter id="filter0_b_433_3132" x="-44" y="-44" width="138" height="138" filterUnits="userSpaceOnUse" colorInterpolationFilters="sRGB">
<feFlood floodOpacity="0" result="BackgroundImageFix"/>
<feGaussianBlur in="BackgroundImageFix" stdDeviation="22"/>
<feComposite in2="SourceAlpha" operator="in" result="effect1_backgroundBlur_433_3132"/>
<feBlend mode="normal" in="SourceGraphic" in2="effect1_backgroundBlur_433_3132" result="shape"/>
</filter>
<clipPath id="clip0_433_3132">
<rect width="36" height="36" fill="white" transform="translate(7 7)"/>
</clipPath>
</defs>
</svg>
