<svg width="20" height="20" viewBox="0 0 20 20" fill="none" xmlns="http://www.w3.org/2000/svg">
<path d="M15.1724 0.689655C15.1719 0.506915 15.099 0.331816 14.9698 0.202598C14.8406 0.0733809 14.6655 0.000545768 14.4828 0L5.1131 0C4.93021 3.90603e-05 4.75482 0.0727246 4.62552 0.202069L0.202069 4.62552C0.0727246 4.75482 3.90603e-05 4.93021 0 5.1131L0 19.3103C0.000545768 19.4931 0.0733809 19.6682 0.202598 19.7974C0.331816 19.9266 0.506915 19.9995 0.689655 20H14.4828C14.6657 20 14.8411 19.9273 14.9704 19.798C15.0998 19.6687 15.1724 19.4933 15.1724 19.3103V0.689655Z" fill="#F9EAB0"/>
<path d="M12.7591 7.24044H2.06944C1.97798 7.24044 1.89027 7.20411 1.82561 7.13944C1.76094 7.07477 1.72461 6.98706 1.72461 6.89561C1.72461 6.80415 1.76094 6.71645 1.82561 6.65178C1.89027 6.58711 1.97798 6.55078 2.06944 6.55078H12.7591C12.8505 6.55078 12.9383 6.58711 13.0029 6.65178C13.0676 6.71645 13.1039 6.80415 13.1039 6.89561C13.1039 6.98706 13.0676 7.07477 13.0029 7.13944C12.9383 7.20411 12.8505 7.24044 12.7591 7.24044ZM10.266 8.96457H2.06944C1.97798 8.96457 1.89027 8.92824 1.82561 8.86358C1.76094 8.79891 1.72461 8.7112 1.72461 8.61975C1.72461 8.52829 1.76094 8.44058 1.82561 8.37592C1.89027 8.31125 1.97798 8.27492 2.06944 8.27492H10.266C10.3574 8.27492 10.4452 8.31125 10.5098 8.37592C10.5745 8.44058 10.6108 8.52829 10.6108 8.61975C10.6108 8.7112 10.5745 8.79891 10.5098 8.86358C10.4452 8.92824 10.3574 8.96457 10.266 8.96457ZM7.76944 10.6887H2.06944C1.97798 10.6887 1.89027 10.6524 1.82561 10.5877C1.76094 10.523 1.72461 10.4353 1.72461 10.3439C1.72461 10.2524 1.76094 10.1647 1.82561 10.1001C1.89027 10.0354 1.97798 9.99906 2.06944 9.99906H7.76944C7.86089 9.99906 7.9486 10.0354 8.01327 10.1001C8.07793 10.1647 8.11426 10.2524 8.11426 10.3439C8.11426 10.4353 8.07793 10.523 8.01327 10.5877C7.9486 10.6524 7.86089 10.6887 7.76944 10.6887ZM4.66254 13.7922H2.06944C1.97798 13.7922 1.89027 13.7558 1.82561 13.6912C1.76094 13.6265 1.72461 13.5388 1.72461 13.4473C1.72461 13.3559 1.76094 13.2682 1.82561 13.2035C1.89027 13.1388 1.97798 13.1025 2.06944 13.1025H4.66254C4.75399 13.1025 4.8417 13.1388 4.90637 13.2035C4.97104 13.2682 5.00737 13.3559 5.00737 13.4473C5.00737 13.5388 4.97104 13.6265 4.90637 13.6912C4.8417 13.7558 4.75399 13.7922 4.66254 13.7922ZM3.48668 15.5163H2.06944C1.97798 15.5163 1.89027 15.48 1.82561 15.4153C1.76094 15.3506 1.72461 15.2629 1.72461 15.1715C1.72461 15.08 1.76094 14.9923 1.82561 14.9276C1.89027 14.863 1.97798 14.8266 2.06944 14.8266H3.48668C3.57813 14.8266 3.66584 14.863 3.73051 14.9276C3.79518 14.9923 3.83151 15.08 3.83151 15.1715C3.83151 15.2629 3.79518 15.3506 3.73051 15.4153C3.66584 15.48 3.57813 15.5163 3.48668 15.5163ZM5.46254 17.2404H2.06944C1.97798 17.2404 1.89027 17.2041 1.82561 17.1394C1.76094 17.0748 1.72461 16.9871 1.72461 16.8956C1.72461 16.8042 1.76094 16.7164 1.82561 16.6518C1.89027 16.5871 1.97798 16.5508 2.06944 16.5508H5.46254C5.55399 16.5508 5.6417 16.5871 5.70637 16.6518C5.77104 16.7164 5.80737 16.8042 5.80737 16.8956C5.80737 16.9871 5.77104 17.0748 5.70637 17.1394C5.6417 17.2041 5.55399 17.2404 5.46254 17.2404Z" fill="#CBB292"/>
<path d="M13.4479 18.6208H11.7237C11.6323 18.6208 11.5446 18.5845 11.4799 18.5198C11.4152 18.4552 11.3789 18.3675 11.3789 18.276C11.3789 18.1845 11.4152 18.0968 11.4799 18.0322C11.5446 17.9675 11.6323 17.9312 11.7237 17.9312H13.103V16.5519C13.103 16.4604 13.1394 16.3727 13.204 16.308C13.2687 16.2434 13.3564 16.207 13.4479 16.207C13.5393 16.207 13.627 16.2434 13.6917 16.308C13.7564 16.3727 13.7927 16.4604 13.7927 16.5519V18.276C13.7927 18.3675 13.7564 18.4552 13.6917 18.5198C13.627 18.5845 13.5393 18.6208 13.4479 18.6208Z" fill="white"/>
<path d="M13.4482 2.06856H10.6896C10.5981 2.06856 10.5104 2.03223 10.4457 1.96756C10.3811 1.9029 10.3447 1.81519 10.3447 1.72373C10.3447 1.63228 10.3811 1.54457 10.4457 1.4799C10.5104 1.41524 10.5981 1.37891 10.6896 1.37891H13.4482C13.5396 1.37891 13.6273 1.41524 13.692 1.4799C13.7567 1.54457 13.793 1.63228 13.793 1.72373C13.793 1.81519 13.7567 1.9029 13.692 1.96756C13.6273 2.03223 13.5396 2.06856 13.4482 2.06856ZM13.4482 3.44787H11.724C11.6326 3.44787 11.5449 3.41154 11.4802 3.34687C11.4155 3.28221 11.3792 3.1945 11.3792 3.10304C11.3792 3.01159 11.4155 2.92388 11.4802 2.85921C11.5449 2.79455 11.6326 2.75822 11.724 2.75822H13.4482C13.5396 2.75822 13.6273 2.79455 13.692 2.85921C13.7567 2.92388 13.793 3.01159 13.793 3.10304C13.793 3.1945 13.7567 3.28221 13.692 3.34687C13.6273 3.41154 13.5396 3.44787 13.4482 3.44787Z" fill="#CBB292"/>
<path d="M4.82802 0.0625V3.79353C4.82802 4.0679 4.71903 4.33102 4.52502 4.52502C4.33102 4.71903 4.0679 4.82802 3.79353 4.82802H0.0625C0.0969828 4.75216 0.145259 4.68319 0.203879 4.62457L4.62457 0.203879C4.68319 0.145259 4.75216 0.0969828 4.82802 0.0625Z" fill="#F3D55B"/>
<path d="M19.8168 7.78673L19.0306 6.65225C18.8745 6.42702 18.6354 6.27293 18.3658 6.2238C18.0962 6.17467 17.8182 6.2345 17.5926 6.39018L15.6064 7.76259L14.1892 8.7419L7.43402 13.414C7.41561 13.4248 7.39927 13.4388 7.38574 13.4554L9.34091 16.2795C9.3604 16.2712 9.3789 16.2608 9.39609 16.2485L16.1513 11.5795L17.5685 10.6002L19.5547 9.22432C19.7798 9.06823 19.9339 8.82922 19.983 8.55971C20.0321 8.29021 19.9723 8.01222 19.8168 7.78673Z" fill="#BDC3C7"/>
<path d="M19.5547 9.22466L17.5685 10.6005L15.6064 7.76259L17.5927 6.39018C17.8182 6.2345 18.0962 6.17467 18.3658 6.2238C18.6354 6.27293 18.8745 6.42702 19.0306 6.65225L19.8168 7.78673C19.9725 8.01225 20.0323 8.29031 19.9832 8.5599C19.934 8.82949 19.7799 9.06857 19.5547 9.22466Z" fill="#FF5364"/>
<path d="M14.1904 8.75206L15.6084 7.77344L17.568 10.6127L16.1501 11.5914L14.1904 8.75206Z" fill="#BDC3C7"/>
<path d="M16.1513 11.5801C8.96781 16.5456 9.37574 16.2698 9.34091 16.2801L7.38574 13.456C7.41367 13.4215 6.97436 13.7318 14.1892 8.74219L16.1513 11.5801Z" fill="#3B97D3"/>
<path d="M9.34166 16.2792C9.30718 16.3002 9.39994 16.2716 7.18994 16.8103L6.13477 15.2792C7.41408 13.4023 7.34718 13.4944 7.38649 13.4551L9.34166 16.2792Z" fill="#FDD7AD"/>
<path d="M7.19013 16.8107L5.54875 17.2069C5.48081 17.2235 5.40944 17.219 5.34409 17.1941C5.27874 17.1692 5.22251 17.125 5.18285 17.0674C5.1432 17.0098 5.122 16.9415 5.12207 16.8716C5.12214 16.8016 5.14347 16.7334 5.18323 16.6758L6.13496 15.2793L7.19013 16.8107Z" fill="#464F5D"/>
</svg>
