<svg width="18" height="20" viewBox="0 0 18 20" fill="none" xmlns="http://www.w3.org/2000/svg">
<path d="M9 9.75C11.6234 9.75 13.75 7.62335 13.75 5C13.75 2.37665 11.6234 0.25 9 0.25C6.37665 0.25 4.25 2.37665 4.25 5C4.25 7.62335 6.37665 9.75 9 9.75Z" fill="white"/>
<path d="M17.4703 15.32L17.3403 15C16.9034 13.9024 16.1522 12.9582 15.1809 12.2857C14.2096 11.6133 13.0614 11.2425 11.8803 11.22H6.13026C4.94912 11.2425 3.80093 11.6133 2.82963 12.2857C1.85833 12.9582 1.10715 13.9024 0.670263 15L0.530263 15.31C0.312185 15.8105 0.220907 16.3571 0.264514 16.9013C0.308121 17.4455 0.485268 17.9706 0.780263 18.43C1.02047 18.8223 1.35692 19.1467 1.7577 19.3724C2.15847 19.5982 2.61028 19.7178 3.07026 19.72H14.9203C15.3816 19.7176 15.8347 19.598 16.237 19.3723C16.6394 19.1467 16.9777 18.8224 17.2203 18.43C17.5127 17.9714 17.6885 17.4482 17.732 16.9061C17.7756 16.3639 17.6857 15.8194 17.4703 15.32Z" fill="white"/>
</svg>
