<svg width="45" height="45" viewBox="0 0 45 45" fill="none" xmlns="http://www.w3.org/2000/svg">
<path d="M34.7099 18.8946C34.7099 20.2802 33.5381 21.4033 32.0924 21.4033C30.6487 21.4033 29.4768 20.2783 29.4768 18.8946C29.4768 17.5089 30.6487 16.3877 32.0924 16.3877C33.5362 16.3877 34.7099 17.5089 34.7099 18.8946Z" fill="white"/>
<path fillRule="evenodd" clipRule="evenodd" d="M33.8175 10.3727C31.83 10.1177 29.2913 10.1177 26.0869 10.1177H18.9131C15.7069 10.1177 13.1681 10.1177 11.1825 10.3727C9.13875 10.6371 7.48125 11.1921 6.17625 12.4427C4.87125 13.6952 4.29187 15.2814 4.01625 17.2427C3.75 19.1439 3.75 21.5777 3.75 24.6508V24.8383C3.75 27.9114 3.75 30.3452 4.01625 32.2502C4.29187 34.2096 4.87125 35.7958 6.17625 37.0464C7.48125 38.2989 9.13875 38.8539 11.1825 39.1164C13.17 39.3752 15.7087 39.3752 18.9131 39.3752H26.0869C29.2931 39.3752 31.8319 39.3752 33.8175 39.1183C35.8612 38.8558 37.5187 38.3008 38.8237 37.0483C40.1287 35.7977 40.7081 34.2114 40.9837 32.2521C41.25 30.3471 41.25 27.9133 41.25 24.8402V24.6527C41.25 21.5777 41.25 19.1458 40.9837 17.2408C40.7081 15.2814 40.1287 13.6952 38.8237 12.4427C37.5187 11.1921 35.8612 10.6371 33.8175 10.3727ZM11.5312 12.8589C9.77625 13.0839 8.76563 13.5096 8.025 14.2164C7.28813 14.9252 6.84563 15.8927 6.60938 17.5746C6.42188 18.9246 6.37875 20.6121 6.36938 22.817L7.25063 22.0764C9.36 20.3083 12.5363 20.4096 14.5163 22.3071L21.9975 29.4789C22.3683 29.8286 22.8468 30.042 23.3546 30.0842C23.8625 30.1264 24.3697 29.995 24.7931 29.7114L25.3144 29.3608C26.5371 28.5431 27.9932 28.1465 29.4617 28.2311C30.9302 28.3157 32.3311 28.8769 33.4519 29.8296L37.965 33.7258C38.1488 33.2308 38.2894 32.6383 38.3906 31.9164C38.6306 30.1989 38.6344 27.9339 38.6344 24.7464C38.6344 21.5589 38.6306 19.2939 38.3906 17.5746C38.1544 15.8927 37.7119 14.9252 36.9731 14.2183C36.2362 13.5096 35.2238 13.0858 33.4688 12.8589C31.6763 12.6283 29.3137 12.6246 25.9875 12.6246H19.0125C15.6863 12.6246 13.3238 12.6283 11.5312 12.8589Z" fill="white"/>
<path d="M32.0363 4.89375C30.4238 4.6875 28.3725 4.6875 25.8132 4.6875H20.0194C17.4619 4.6875 15.4088 4.6875 13.7963 4.89375C12.1275 5.10937 10.7363 5.565 9.63191 6.61875C9.02242 7.20379 8.55763 7.9228 8.27441 8.71875C9.21941 8.2875 10.2882 8.0325 11.4882 7.875C13.5207 7.6125 16.1194 7.6125 19.4007 7.6125H26.7394C30.0207 7.6125 32.6175 7.6125 34.6519 7.875C35.6982 8.01187 36.6469 8.22375 37.5 8.56125C37.2145 7.82737 36.7716 7.16496 36.2025 6.62062C35.0982 5.565 33.7069 5.10938 32.0363 4.89563" fill="white"/>
</svg>
