<svg width="41" height="41" viewBox="0 0 41 41" fill="none" xmlns="http://www.w3.org/2000/svg">
<path d="M20.5 26.9062C23.3305 26.9062 25.625 24.6117 25.625 21.7812C25.625 18.9508 23.3305 16.6562 20.5 16.6562C17.6695 16.6562 15.375 18.9508 15.375 21.7812C15.375 24.6117 17.6695 26.9062 20.5 26.9062Z" fill="white"/>
<path d="M36.5156 11.5312H29.8691C29.6289 11.5312 29.331 11.3759 29.0988 11.1309L26.9143 7.70352C26.0254 6.40625 25.625 6.40625 24.1836 6.40625H16.8164C15.375 6.40625 14.8945 6.40625 14.0881 7.70432L11.9012 11.1309C11.7234 11.3246 11.4736 11.5312 11.2109 11.5312V10.25C11.2109 10.0801 11.1434 9.91715 11.0233 9.79701C10.9032 9.67687 10.7402 9.60938 10.5703 9.60938H7.36719C7.19728 9.60938 7.03434 9.67687 6.9142 9.79701C6.79406 9.91715 6.72656 10.0801 6.72656 10.25V11.5312H4.48438C3.97466 11.5312 3.48583 11.7337 3.1254 12.0942C2.76498 12.4546 2.5625 12.9434 2.5625 13.4531V32.6719C2.5625 33.1816 2.76498 33.6704 3.1254 34.0308C3.48583 34.3913 3.97466 34.5938 4.48438 34.5938H36.5156C37.0253 34.5938 37.5142 34.3913 37.8746 34.0308C38.235 33.6704 38.4375 33.1816 38.4375 32.6719V13.4531C38.4375 12.9434 38.235 12.4546 37.8746 12.0942C37.5142 11.7337 37.0253 11.5312 36.5156 11.5312ZM20.8612 29.4607C19.3117 29.5335 17.7764 29.1359 16.4571 28.32C15.1378 27.5041 14.0962 26.3082 13.4691 24.8894C12.842 23.4707 12.6588 21.8954 12.9436 20.3705C13.2283 18.8457 13.9677 17.4427 15.0646 16.3458C16.1614 15.249 17.5644 14.5096 19.0893 14.2248C20.6141 13.9401 22.1894 14.1233 23.6082 14.7504C25.027 15.3775 26.2229 16.4191 27.0387 17.7384C27.8546 19.0577 28.2523 20.5929 28.1795 22.1424C28.0877 24.0537 27.2872 25.8623 25.9342 27.2154C24.5811 28.5685 22.7725 29.369 20.8612 29.4607Z" fill="white"/>
</svg>
